# This file uses centimeters as units for non-parametric coordinates.

mtllib Ö_25.mtl
v -5.429764 0.069672 1.215240
v 3.644028 0.069672 2.594116
v -5.429764 5.902191 1.215240
v 3.644028 5.902191 2.594116
v -6.239395 5.902191 -2.702606
v 3.282516 5.902191 -2.307922
v -6.239395 0.069672 -2.702606
v 3.282516 0.069672 -2.307922
v -3.776672 5.940796 -2.492493
v -3.776672 0.035004 -2.492493
v -3.649155 0.035004 2.527344
v -3.649155 5.940796 2.527344
v 0.601929 5.940796 -2.437897
v 0.601929 0.035004 -2.437897
v 0.658859 0.035004 3.065155
v 0.658859 5.940796 3.065155
v 3.014648 5.940796 -0.063202
v 0.525177 5.990417 -0.023529
v -3.716156 5.990417 -0.145050
v -6.059296 5.940796 -0.692230
v -6.059296 0.035004 -0.692230
v -3.716156 -0.009583 -0.145050
v 0.525177 -0.009583 -0.023529
v 3.014648 0.035004 -0.063202
v 4.103973 5.018097 2.861115
v 0.683975 5.018097 3.469391
v -3.639389 5.018097 2.872070
v -5.530624 5.018097 1.270874
v -6.321503 5.018097 -0.772705
v -6.534576 5.018097 -2.990875
v -3.785126 5.018097 -2.783356
v 0.618896 5.018097 -2.730042
v 3.655701 5.018097 -2.560272
v 3.303696 5.018097 -0.071167
v 4.103973 0.922852 2.861115
v 0.683975 0.922852 3.469391
v -3.639389 0.922852 2.872070
v -5.530624 0.922852 1.270874
v -6.321503 0.922852 -0.772705
v -6.534576 0.922852 -2.990875
v -3.785126 0.922852 -2.783356
v 0.618896 0.922852 -2.730042
v 3.655701 0.922852 -2.560272
v 3.303696 0.922852 -0.071167
v 3.880386 0.911835 1.545746
v 3.581924 0.915924 -1.537567
v 3.241211 2.967194 -0.083130
v 2.512497 0.919434 -2.818329
v 3.682159 0.151855 -2.577972
v -1.611832 0.921600 -2.704346
v 0.624985 0.147003 -2.750275
v -5.497757 0.918060 -3.055115
v -3.792007 0.147339 -2.801727
v -6.657623 0.917023 -2.049622
v -6.555450 0.151825 -3.011108
v -5.991501 0.922729 0.310059
v -6.338730 0.150818 -0.776520
v -4.839508 0.922180 2.160492
v -5.603531 2.965942 1.294861
v -1.623886 0.921234 3.300873
v -3.691360 2.967285 2.890564
v 2.804855 0.920410 3.410553
v 0.714828 2.966766 3.507629
v 4.133484 2.967560 2.876190
v 3.880432 5.029175 1.545807
v 3.581955 5.025055 -1.537567
v 3.318832 5.803528 -0.071960
v 2.512512 5.021515 -2.818329
v 3.684006 2.967529 -2.578308
v -1.611832 5.019379 -2.704346
v 0.698776 2.966339 -2.719421
v -5.497787 5.022919 -3.055115
v -3.847366 2.966888 -2.760925
v -6.657669 5.023956 -2.049652
v -6.556534 2.967529 -3.011444
v -5.991501 5.018219 0.310059
v -6.327866 2.966125 -0.727142
v -4.839523 5.018768 2.160522
v -5.537735 5.807220 1.274597
v -1.623901 5.019714 3.300873
v -3.645874 5.808014 2.897247
v 2.804855 5.020538 3.410583
v 0.687973 5.809631 3.499908
v 4.135483 5.806366 2.879120
v 3.318756 0.154724 -0.071991
v 2.069733 -0.012543 -0.040894
v 3.544052 0.031769 1.587128
v -1.613571 -0.009583 -0.047272
v 0.593521 -0.013397 1.695313
v -5.185623 -0.012054 -0.423187
v -3.682037 -0.012329 1.355927
v -6.338638 5.807373 -0.776550
v -5.763931 0.032654 0.449829
v -5.185684 5.993225 -0.423187
v -6.359879 5.943481 -1.995087
v -1.613571 5.990417 -0.047272
v -3.756607 5.993683 -1.512299
v 2.069794 5.993774 -0.040955
v 0.550491 5.993286 -1.456085
v 3.270096 5.943329 -1.540039
v 0.593506 5.994690 1.695282
v 0.688034 0.148560 3.500061
v 2.722214 5.943359 3.010132
v 0.550476 -0.012146 -1.456085
v 2.722214 0.032715 3.010132
v 0.624878 5.811157 -2.750183
v 2.457367 0.032990 -2.515167
v 2.457367 5.943054 -2.515167
v -3.682037 5.993530 1.355927
v -3.646027 0.150238 2.897369
v -1.621948 5.940979 2.915924
v -3.756607 -0.012482 -1.512299
v -1.621948 0.034851 2.915924
v -3.791870 5.810822 -2.801666
v -1.611526 0.034576 -2.417450
v -1.611526 5.941284 -2.417450
v 3.270035 0.032745 -1.540009
v -6.359863 0.032593 -1.995056
v 3.681900 5.806641 -2.577850
v -6.555252 5.806671 -3.010956
v 3.544098 5.944397 1.587158
v -5.763916 5.943420 0.449829
v 4.135757 0.152161 2.879242
v -5.537857 0.151123 1.274658
v -5.474335 0.033081 -2.758423
v -5.474335 5.942932 -2.758423
v -4.888840 5.943237 1.862823
v -4.888763 0.032837 1.862732
v 3.925674 2.966888 1.584442
v 3.599594 2.967133 -1.575897
v 2.561508 2.967285 -2.840942
v -1.637711 2.965118 -2.657227
v -5.547852 2.967224 -3.080017
v -6.701706 2.967102 -2.081848
v -6.034927 2.965790 0.350555
v -4.901199 2.966980 2.182098
v -1.663574 2.966888 3.336212
v 2.843185 2.967377 3.433472
v 3.913010 5.816315 1.558899
v 3.606369 5.811615 -1.549622
v 2.529984 5.809265 -2.838379
v -1.612503 5.813751 -2.724640
v -5.511856 5.809845 -3.076416
v -6.680679 5.811707 -2.065125
v -6.003647 5.807312 0.310059
v -4.847229 5.809692 2.175446
v -1.626053 5.810486 3.330078
v 2.826035 5.808929 3.435669
v 3.606491 0.146729 -1.549744
v 2.207870 -0.014465 -1.498077
v -1.611710 -0.013153 -1.446350
v -5.355850 -0.014740 -1.753967
v -6.680878 0.146606 -2.065247
v -5.355850 5.996216 -1.753967
v -1.611710 5.994415 -1.446350
v 2.207916 5.995880 -1.498108
v 2.368790 5.997437 1.659332
v 2.826263 0.149414 3.435822
v 2.368774 -0.015839 1.659302
v 2.530212 0.149078 -2.838531
v -1.619568 5.994598 1.612793
v -1.626114 0.147736 3.330231
v -1.619568 -0.013306 1.612793
v -1.612503 0.144409 -2.724670
v -6.003754 0.150940 0.310089
v 3.913223 0.142029 1.558990
v -5.022675 -0.015015 0.885529
v -5.512070 0.148499 -3.076538
v -5.022736 5.996490 0.885559
v -4.847366 0.148621 2.175537
vt 0.375000 0.000000
vt 0.625000 0.000000
vt 0.375000 0.250000
vt 0.625000 0.250000
vt 0.375000 0.500000
vt 0.625000 0.500000
vt 0.375000 0.750000
vt 0.625000 0.750000
vt 0.375000 1.000000
vt 0.625000 1.000000
vt 0.875000 0.000000
vt 0.875000 0.250000
vt 0.125000 0.000000
vt 0.125000 0.250000
vt 0.436885 0.500000
vt 0.436885 0.750000
vt 0.436885 0.000000
vt 0.436885 1.000000
vt 0.436885 0.250000
vt 0.556657 0.500000
vt 0.556657 0.750000
vt 0.556657 0.000000
vt 0.556657 1.000000
vt 0.556657 0.250000
vt 0.625000 0.380829
vt 0.755829 0.250000
vt 0.556657 0.380829
vt 0.436885 0.380829
vt 0.244171 0.250000
vt 0.375000 0.380829
vt 0.244171 0.000000
vt 0.375000 0.869171
vt 0.436885 0.869171
vt 0.556657 0.869171
vt 0.625000 0.869171
vt 0.755829 0.000000
vt 0.625000 0.231617
vt 0.556657 0.231617
vt 0.436885 0.231617
vt 0.375000 0.231617
vt 0.244171 0.231617
vt 0.125000 0.231617
vt 0.375000 0.518383
vt 0.436885 0.518383
vt 0.556657 0.518383
vt 0.625000 0.518383
vt 0.875000 0.231617
vt 0.755829 0.231617
vt 0.625000 0.016508
vt 0.556657 0.016508
vt 0.436885 0.016508
vt 0.375000 0.016508
vt 0.244171 0.016508
vt 0.125000 0.016508
vt 0.375000 0.733492
vt 0.436885 0.733492
vt 0.556657 0.733492
vt 0.625000 0.733492
vt 0.875000 0.016508
vt 0.755829 0.016508
vt 0.690414 0.016508
vt 0.815414 0.016508
vt 0.755829 0.124063
vt 0.590829 0.733492
vt 0.625000 0.741746
vt 0.875000 0.008254
vt 0.496771 0.733492
vt 0.556657 0.741746
vt 0.405943 0.733492
vt 0.436885 0.741746
vt 0.184585 0.016508
vt 0.125000 0.008254
vt 0.375000 0.741746
vt 0.309585 0.016508
vt 0.244171 0.008254
vt 0.405943 0.016508
vt 0.375000 0.124063
vt 0.496771 0.016508
vt 0.436885 0.124063
vt 0.590829 0.016508
vt 0.556657 0.124063
vt 0.625000 0.124063
vt 0.690415 0.231617
vt 0.815415 0.231617
vt 0.755829 0.240809
vt 0.590829 0.518383
vt 0.625000 0.625937
vt 0.875000 0.124063
vt 0.496771 0.518383
vt 0.556657 0.625937
vt 0.405943 0.518383
vt 0.436885 0.625937
vt 0.184585 0.231617
vt 0.125000 0.124063
vt 0.375000 0.625937
vt 0.309585 0.231617
vt 0.244171 0.124063
vt 0.405943 0.231617
vt 0.375000 0.240809
vt 0.496771 0.231617
vt 0.436885 0.240809
vt 0.590829 0.231617
vt 0.556657 0.240809
vt 0.625000 0.240809
vt 0.755829 0.008254
vt 0.590829 0.869171
vt 0.625000 0.934585
vt 0.690415 0.000000
vt 0.496771 0.869171
vt 0.556657 0.934585
vt 0.405943 0.869171
vt 0.436885 0.934585
vt 0.244171 0.240809
vt 0.309585 0.000000
vt 0.375000 0.934585
vt 0.405943 0.380829
vt 0.184585 0.250000
vt 0.375000 0.440415
vt 0.496771 0.380829
vt 0.436885 0.440415
vt 0.590829 0.380829
vt 0.556657 0.440415
vt 0.625000 0.440415
vt 0.815415 0.250000
vt 0.556657 0.315415
vt 0.556657 0.008254
vt 0.590829 0.250000
vt 0.556657 0.809585
vt 0.590829 0.000000
vt 0.590829 1.000000
vt 0.556657 0.509191
vt 0.590829 0.750000
vt 0.590829 0.500000
vt 0.436885 0.315415
vt 0.436885 0.008254
vt 0.496771 0.250000
vt 0.436885 0.809585
vt 0.496771 0.000000
vt 0.496771 1.000000
vt 0.436885 0.509191
vt 0.496771 0.750000
vt 0.496771 0.500000
vt 0.625000 0.809585
vt 0.815415 0.000000
vt 0.184585 0.000000
vt 0.375000 0.809585
vt 0.625000 0.509191
vt 0.875000 0.240809
vt 0.125000 0.240809
vt 0.375000 0.509191
vt 0.625000 0.315415
vt 0.690415 0.250000
vt 0.309585 0.250000
vt 0.375000 0.315415
vt 0.625000 0.008254
vt 0.375000 0.008254
vt 0.405943 0.750000
vt 0.405943 0.500000
vt 0.405943 0.250000
vt 0.405943 0.000000
vt 0.405943 1.000000
vt 0.690415 0.124063
vt 0.815414 0.124063
vt 0.590829 0.625937
vt 0.496771 0.625937
vt 0.405943 0.625937
vt 0.184585 0.124063
vt 0.309585 0.124063
vt 0.405943 0.124063
vt 0.496771 0.124063
vt 0.590829 0.124063
vt 0.690415 0.240809
vt 0.815415 0.240809
vt 0.590829 0.509191
vt 0.496771 0.509191
vt 0.405943 0.509191
vt 0.184585 0.240809
vt 0.309585 0.240809
vt 0.405943 0.240809
vt 0.496771 0.240809
vt 0.590829 0.240809
vt 0.815414 0.008254
vt 0.590829 0.809585
vt 0.496771 0.809585
vt 0.405943 0.809585
vt 0.184585 0.008254
vt 0.405943 0.440415
vt 0.496771 0.440415
vt 0.590829 0.440415
vt 0.590829 0.315415
vt 0.590829 0.008254
vt 0.590829 0.934585
vt 0.590829 0.741746
vt 0.496771 0.315415
vt 0.496771 0.008254
vt 0.496771 0.934585
vt 0.496771 0.741746
vt 0.309585 0.008254
vt 0.690415 0.008254
vt 0.405943 0.934585
vt 0.405943 0.741746
vt 0.405943 0.315415
vt 0.405943 0.008254
vn -0.255959 -0.953543 0.158876
vn -0.091414 -0.989550 0.111507
vn -0.614884 -0.255097 0.746219
vn -0.843001 -0.124968 0.523194
vn -0.288194 0.940716 0.178880
vn -0.103971 0.986462 0.126816
vn -0.031364 0.999242 0.023056
vn -0.186372 0.980156 0.067522
vn -0.654509 -0.003265 -0.756047
vn 0.083026 0.005651 -0.996531
vn 0.069176 -0.279792 -0.957565
vn -0.640620 -0.222676 -0.734861
vn -0.142796 -0.989118 0.035416
vn -0.018536 -0.999821 0.003710
vn -0.028181 -0.999388 0.020718
vn -0.164252 -0.984620 0.059538
vn 0.100720 -0.993057 0.060775
vn 0.113493 -0.993405 -0.016320
vn 0.912621 -0.327514 -0.244658
vn 0.830212 -0.280766 0.481579
vn -0.914837 -0.206554 0.347001
vn -0.927619 -0.267867 0.260327
vn 0.095352 0.015277 -0.995326
vn 0.010764 0.018633 -0.999768
vn 0.011326 -0.312784 -0.949757
vn 0.085998 -0.315448 -0.945038
vn -0.035803 -0.993586 0.107263
vn -0.004570 -0.999846 0.016958
vn -0.001836 -0.999873 0.015803
vn -0.012469 -0.995100 0.098086
vn -0.333964 -0.005446 0.942570
vn -0.310121 -0.338351 0.888450
vn -0.125583 -0.379962 0.916438
vn -0.137135 -0.002828 0.990548
vn 0.000719 1.000000 -0.000065
vn -0.005083 0.999809 0.018872
vn -0.002040 0.999843 0.017586
vn -0.000004 1.000000 -0.000155
vn -0.033161 0.012513 -0.999372
vn 0.050891 0.003277 -0.998699
vn 0.056927 -0.286346 -0.956434
vn -0.026030 -0.312738 -0.949483
vn -0.002576 -0.995363 0.096159
vn -0.000950 -0.999873 0.015936
vn 0.015371 -0.999802 0.012641
vn 0.024176 -0.994747 0.099470
vn -0.023875 -0.001979 0.999713
vn -0.021633 -0.396067 0.917967
vn 0.165782 -0.366650 0.915469
vn 0.175812 -0.000695 0.984424
vn -0.000709 1.000000 -0.000362
vn -0.001064 0.999842 0.017739
vn 0.017111 0.999755 0.014075
vn 0.016477 0.999863 -0.001659
vn -0.003579 0.989928 -0.141528
vn -0.000959 0.999773 -0.021277
vn 0.017168 0.999673 -0.018962
vn 0.018353 0.988286 -0.151507
vn 0.012247 0.990273 -0.138598
vn 0.002256 0.999775 -0.021076
vn 0.000296 0.999786 -0.020694
vn 0.001720 0.990285 -0.139043
vn -0.162370 0.985906 0.040324
vn -0.020637 0.999779 0.004137
vn -0.016558 0.999661 -0.020095
vn -0.163088 0.986611 0.000582
vn -0.094028 -0.989103 -0.113285
vn -0.142944 -0.989731 0.000071
vn -0.961091 -0.262775 0.085166
vn 0.000967 -0.990763 -0.135602
vn -0.014872 -0.999727 -0.018044
vn -0.000628 -1.000000 -0.000321
vn -0.000007 -1.000000 -0.000135
vn 0.000264 -0.999827 -0.018597
vn -0.000857 -0.999817 -0.019116
vn 0.102944 -0.994648 -0.008815
vn 0.014805 -0.999889 -0.001486
vn 0.015427 -0.999736 -0.017030
vn 0.125315 -0.992113 0.002787
vn 0.994870 0.014252 -0.100154
vn 0.923478 -0.372731 -0.090880
vn 0.942576 -0.307506 0.130346
vn 0.988031 0.010327 0.153910
vn -0.002948 0.993951 0.109781
vn -0.021732 0.383608 0.923240
vn 0.166392 0.355888 0.919596
vn 0.027341 0.993137 0.113717
vn -0.040875 0.991657 0.122252
vn -0.310828 0.327249 0.892353
vn -0.126096 0.367864 0.921290
vn -0.014242 0.993612 0.111953
vn -0.849140 0.019820 0.527796
vn -0.643949 0.013850 0.764943
vn -0.615352 0.245808 0.748946
vn -0.843424 0.121071 0.523430
vn -0.963045 0.005420 0.269287
vn -0.935682 0.013667 0.352581
vn -0.916592 0.198675 0.346969
vn -0.930284 0.258030 0.260752
vn -0.654517 0.003326 -0.756040
vn -0.995030 0.003777 0.099508
vn -0.963201 0.254991 0.084986
vn -0.641514 0.217507 -0.735629
vn -0.107540 0.985742 -0.129414
vn 0.001488 0.987958 -0.154713
vn 0.069275 0.271097 -0.960056
vn 0.011376 0.301953 -0.953255
vn 0.086363 0.304402 -0.948621
vn 0.057130 0.277544 -0.959013
vn -0.026115 0.301963 -0.952962
vn 0.117228 0.993054 -0.010056
vn 0.928915 0.358831 -0.091421
vn 0.945709 0.297705 0.130407
vn 0.142753 0.989752 0.003555
vn 0.865564 0.000719 0.500798
vn 0.961582 -0.006319 -0.274445
vn 0.916091 0.317282 -0.245174
vn 0.831891 0.273738 0.482725
vn -0.023883 0.002017 0.999713
vn -0.022643 -0.000003 0.999744
vn 0.180132 -0.000002 0.983643
vn 0.175806 0.000758 0.984425
vn -0.333975 0.005458 0.942566
vn -0.336869 0.000001 0.941552
vn -0.138522 -0.000001 0.990359
vn -0.137131 0.002859 0.990549
vn -0.849115 -0.019954 0.527831
vn -0.643881 -0.013913 0.764999
vn -0.644851 0.000003 0.764308
vn -0.849930 -0.000010 0.526896
vn -0.963053 -0.005428 0.269257
vn -0.935701 -0.013755 0.352525
vn -0.936839 -0.000003 0.349761
vn -0.963393 -0.000004 0.268093
vn -0.995031 -0.003750 0.099498
vn -0.995425 -0.000004 0.095551
vn -0.655049 0.000001 -0.755587
vn 0.082979 -0.005568 -0.996536
vn 0.081851 -0.000001 -0.996645
vn 0.095298 -0.015122 -0.995334
vn 0.010766 -0.018443 -0.999772
vn 0.010834 0.000007 -0.999941
vn 0.099942 -0.000005 -0.994993
vn -0.033122 -0.012369 -0.999375
vn 0.050907 -0.003196 -0.998698
vn 0.053494 -0.000001 -0.998568
vn -0.036198 -0.000003 -0.999345
vn 0.994873 -0.014121 -0.100145
vn 0.995165 -0.000004 -0.098217
vn 0.987656 -0.000005 0.156641
vn 0.988045 -0.010212 0.153828
vn 0.865536 -0.000615 0.500846
vn 0.961563 0.006419 -0.274511
vn 0.961553 -0.000006 -0.274619
vn 0.865108 -0.000001 0.501585
vn 0.770788 0.000001 -0.637092
vn 0.769587 -0.000296 -0.638542
vn 0.769588 0.000386 -0.638540
vn 0.129570 0.991388 -0.019028
vn 0.115404 0.990900 0.069283
vn 0.749698 0.225385 -0.622218
vn 0.121341 0.986994 -0.105444
vn 0.748618 -0.230798 -0.621532
vn 0.106092 -0.990063 -0.092305
vn 0.016416 -0.991022 -0.132690
vn -0.003117 -0.992286 -0.123930
vn 0.001503 -0.992570 -0.121665
vn 0.002019 -0.999819 -0.018935
vn 0.010719 -0.992548 -0.121385
vn 0.000637 -1.000000 -0.000057
s 1
usemtl initialShadingGroup
f 1/1/1 128/160/2 170/203/3 124/156/4
f 3/3/5 127/159/6 169/202/7 122/154/8
f 40/55/9 52/69/10 168/201/11 55/73/12
f 21/32/13 90/111/14 167/200/15 93/115/16
f 2/2/17 87/108/18 166/199/19 123/155/20
f 21/31/13 93/114/16 165/198/21 57/75/22
f 41/56/23 50/67/24 164/197/25 53/70/26
f 11/18/27 91/112/28 163/196/29 113/139/30
f 37/51/31 110/135/32 162/195/33 60/78/34
f 19/28/35 109/134/36 161/194/37 96/119/38
f 42/57/39 48/64/40 160/193/41 51/68/42
f 15/23/43 89/110/44 159/192/45 105/130/46
f 36/50/47 102/126/48 158/191/49 62/80/50
f 18/27/51 101/125/52 157/190/53 98/121/54
f 13/20/55 99/122/56 156/189/57 108/133/58
f 9/15/59 97/120/60 155/188/61 116/142/62
f 20/30/63 94/116/64 154/187/65 95/118/66
f 7/13/67 118/145/68 153/186/69 55/72/12
f 7/7/67 125/157/70 152/185/71 118/146/68
f 23/34/72 88/109/73 151/184/74 104/128/75
f 24/35/76 86/106/77 150/183/78 117/143/79
f 44/60/80 85/105/81 149/182/82 46/62/83
f 16/24/84 83/103/85 148/181/86 103/127/87
f 12/19/88 81/101/89 147/180/90 111/136/91
f 28/40/92 78/98/93 146/179/94 79/99/95
f 29/41/96 76/96/97 145/178/98 92/113/99
f 30/42/100 74/93/101 144/177/102 120/149/103
f 5/5/104 126/158/105 143/176/106 120/150/103
f 9/15/59 116/142/62 142/175/107 114/140/108
f 13/20/55 108/133/58 141/174/109 106/131/110
f 17/26/111 67/85/112 140/173/113 100/124/114
f 25/37/115 65/83/116 139/172/117 84/104/118
f 26/38/119 63/81/120 138/171/121 82/102/122
f 27/39/123 61/79/124 137/170/125 80/100/126
f 38/52/127 58/76/128 136/169/129 59/77/130
f 39/53/131 56/74/132 135/168/133 77/97/134
f 40/54/9 54/71/135 134/167/136 75/94/137
f 30/43/100 72/91/138 133/166/139 75/95/137
f 31/44/140 70/89/141 132/165/142 73/92/143
f 32/45/144 68/86/145 131/164/146 71/90/147
f 34/48/148 47/63/149 130/163/150 66/84/151
f 35/49/152 45/61/153 129/162/154 64/82/155
f 65/83/116 129/162/154 47/63/149 34/48/148
f 47/63/149 129/162/154 45/61/153 44/60/80
f 64/82/155 129/162/154 65/83/116 25/37/115
f 69/88/156 130/163/150 46/62/83 43/59/157
f 46/62/83 130/163/150 47/63/149 44/60/80
f 66/84/151 130/163/150 69/88/156 33/47/158
f 48/64/40 131/164/146 69/87/156 43/58/157
f 69/87/156 131/164/146 68/86/145 33/46/158
f 71/90/147 131/164/146 48/64/40 42/57/39
f 50/67/24 132/165/142 71/90/147 42/57/39
f 71/90/147 132/165/142 70/89/141 32/45/144
f 73/92/143 132/165/142 50/67/24 41/56/23
f 52/69/10 133/166/139 73/92/143 41/56/23
f 73/92/143 133/166/139 72/91/138 31/44/140
f 75/95/137 133/166/139 52/69/10 40/55/9
f 74/93/101 134/167/136 77/97/134 29/41/96
f 77/97/134 134/167/136 54/71/135 39/53/131
f 75/94/137 134/167/136 74/93/101 30/42/100
f 76/96/97 135/168/133 59/77/130 28/40/92
f 59/77/130 135/168/133 56/74/132 38/52/127
f 77/97/134 135/168/133 76/96/97 29/41/96
f 78/98/93 136/169/129 61/79/124 27/39/123
f 61/79/124 136/169/129 58/76/128 37/51/31
f 59/77/130 136/169/129 78/98/93 28/40/92
f 63/81/120 137/170/125 60/78/34 36/50/47
f 60/78/34 137/170/125 61/79/124 37/51/31
f 80/100/126 137/170/125 63/81/120 26/38/119
f 64/82/155 138/171/121 62/80/50 35/49/152
f 62/80/50 138/171/121 63/81/120 36/50/47
f 82/102/122 138/171/121 64/82/155 25/37/115
f 121/152/159 139/172/117 67/85/112 17/26/111
f 67/85/112 139/172/117 65/83/116 34/48/148
f 84/104/118 139/172/117 121/152/159 4/4/160
f 119/148/161 140/173/113 66/84/151 33/47/158
f 66/84/151 140/173/113 67/85/112 34/48/148
f 100/124/114 140/173/113 119/148/161 6/12/162
f 68/86/145 141/174/109 119/147/161 33/46/158
f 119/147/161 141/174/109 108/133/58 6/6/162
f 106/131/110 141/174/109 68/86/145 32/45/144
f 70/89/141 142/175/107 106/131/110 32/45/144
f 106/131/110 142/175/107 116/142/62 13/20/55
f 114/140/108 142/175/107 70/89/141 31/44/140
f 72/91/138 143/176/106 114/140/108 31/44/140
f 114/140/108 143/176/106 126/158/105 9/15/59
f 120/150/103 143/176/106 72/91/138 30/43/100
f 95/117/66 144/177/102 92/113/99 20/29/63
f 92/113/99 144/177/102 74/93/101 29/41/96
f 120/149/103 144/177/102 95/117/66 5/14/104
f 122/153/8 145/178/98 79/99/95 3/3/5
f 79/99/95 145/178/98 76/96/97 28/40/92
f 92/113/99 145/178/98 122/153/8 20/29/63
f 127/159/6 146/179/94 81/101/89 12/19/88
f 81/101/89 146/179/94 78/98/93 27/39/123
f 79/99/95 146/179/94 127/159/6 3/3/5
f 83/103/85 147/180/90 80/100/126 26/38/119
f 80/100/126 147/180/90 81/101/89 27/39/123
f 111/136/91 147/180/90 83/103/85 16/24/84
f 84/104/118 148/181/86 82/102/122 25/37/115
f 82/102/122 148/181/86 83/103/85 26/38/119
f 103/127/87 148/181/86 84/104/118 4/4/160
f 49/66/163 149/182/82 117/144/79 8/11/164
f 117/144/79 149/182/82 85/105/81 24/36/76
f 46/62/83 149/182/82 49/66/163 43/59/157
f 107/132/165 150/183/78 104/128/75 14/21/166
f 104/128/75 150/183/78 86/106/77 23/34/72
f 117/143/79 150/183/78 107/132/165 8/8/164
f 115/141/167 151/184/74 112/137/168 10/16/169
f 112/137/168 151/184/74 88/109/73 22/33/170
f 104/128/75 151/184/74 115/141/167 14/21/166
f 90/111/14 152/185/71 112/137/168 22/33/170
f 112/137/168 152/185/71 125/157/70 10/16/169
f 118/146/68 152/185/71 90/111/14 21/32/13
f 54/71/135 153/186/69 57/75/22 39/53/131
f 57/75/22 153/186/69 118/145/68 21/31/13
f 55/72/12 153/186/69 54/71/135 40/54/9
f 126/158/105 154/187/65 97/120/60 9/15/59
f 97/120/60 154/187/65 94/116/64 19/28/35
f 95/118/66 154/187/65 126/158/105 5/5/104
f 99/122/56 155/188/61 96/119/38 18/27/51
f 96/119/38 155/188/61 97/120/60 19/28/35
f 116/142/62 155/188/61 99/122/56 13/20/55
f 100/123/114 156/189/57 98/121/54 17/25/111
f 98/121/54 156/189/57 99/122/56 18/27/51
f 108/133/58 156/189/57 100/123/114 6/6/162
f 121/151/159 157/190/53 103/127/87 4/4/160
f 103/127/87 157/190/53 101/125/52 16/24/84
f 98/121/54 157/190/53 121/151/159 17/25/111
f 123/155/20 158/191/49 105/129/46 2/2/17
f 105/129/46 158/191/49 102/126/48 15/22/43
f 62/80/50 158/191/49 123/155/20 35/49/152
f 87/107/18 159/192/45 86/106/77 24/35/76
f 86/106/77 159/192/45 89/110/44 23/34/72
f 105/130/46 159/192/45 87/107/18 2/10/17
f 107/132/165 160/193/41 49/65/163 8/8/164
f 49/65/163 160/193/41 48/64/40 43/58/157
f 51/68/42 160/193/41 107/132/165 14/21/166
f 101/125/52 161/194/37 111/136/91 16/24/84
f 111/136/91 161/194/37 109/134/36 12/19/88
f 96/119/38 161/194/37 101/125/52 18/27/51
f 102/126/48 162/195/33 113/138/30 15/22/43
f 113/138/30 162/195/33 110/135/32 11/17/27
f 60/78/34 162/195/33 102/126/48 36/50/47
f 89/110/44 163/196/29 88/109/73 23/34/72
f 88/109/73 163/196/29 91/112/28 22/33/170
f 113/139/30 163/196/29 89/110/44 15/23/43
f 115/141/167 164/197/25 51/68/42 14/21/166
f 51/68/42 164/197/25 50/67/24 42/57/39
f 53/70/26 164/197/25 115/141/167 10/16/169
f 56/74/132 165/198/21 124/156/4 38/52/127
f 124/156/4 165/198/21 93/114/16 1/1/1
f 57/75/22 165/198/21 56/74/132 39/53/131
f 45/61/153 166/199/19 85/105/81 44/60/80
f 85/105/81 166/199/19 87/108/18 24/36/76
f 123/155/20 166/199/19 45/61/153 35/49/152
f 128/161/2 167/200/15 91/112/28 11/18/27
f 91/112/28 167/200/15 90/111/14 22/33/170
f 93/115/16 167/200/15 128/161/2 1/9/1
f 125/157/70 168/201/11 53/70/26 10/16/169
f 53/70/26 168/201/11 52/69/10 41/56/23
f 55/73/12 168/201/11 125/157/70 7/7/67
f 94/116/64 169/202/7 109/134/36 19/28/35
f 109/134/36 169/202/7 127/159/6 12/19/88
f 122/154/8 169/202/7 94/116/64 20/30/63
f 58/76/128 170/203/3 110/135/32 37/51/31
f 110/135/32 170/203/3 128/160/2 11/17/27
f 124/156/4 170/203/3 58/76/128 38/52/127
