# This file uses centimeters as units for non-parametric coordinates.

mtllib Ö_30.mtl
v -3.596100 0.035248 4.237457
v 5.267303 0.035248 4.237457
v -3.596100 3.871063 4.237457
v 5.267303 3.871063 4.237457
v -7.916290 3.871063 -3.830475
v 8.193848 3.871063 -3.830475
v -7.916290 0.035248 -3.830475
v 8.193848 0.035248 -3.830475
v 3.598450 3.909576 -3.802216
v 3.598450 0.001923 -3.802216
v 3.016693 0.001923 5.607941
v 3.016693 3.909576 5.607941
v -3.371582 3.909576 -3.802216
v -3.371582 0.001923 -3.802216
v -0.905609 0.001923 5.607941
v -0.905609 3.909576 5.607941
v 4.954987 3.210907 5.407654
v 2.927826 3.210907 6.977600
v -0.543518 3.210907 6.977600
v -3.112183 3.210907 5.407654
v -9.154480 3.210907 -5.178741
v -3.733673 3.210907 -5.171906
v 3.687317 3.210907 -5.171906
v 9.210907 3.210907 -5.178741
v 4.954987 0.654724 5.407654
v 2.927826 0.654724 6.977600
v -0.543518 0.654724 6.977600
v -3.112183 0.654724 5.407654
v -9.154480 0.654724 -5.178741
v -3.733673 0.654724 -5.171906
v 3.687317 0.654724 -5.171906
v 9.210907 0.654724 -5.178741
v 7.630615 0.623962 -0.023895
v 7.332672 0.647949 -6.064362
v 9.271973 0.127319 -5.259247
v -0.010773 0.654694 -4.917542
v 3.697906 0.120331 -5.271637
v -7.473175 0.647858 -6.064575
v -3.765259 0.120422 -5.271423
v -6.722046 0.622284 -0.024506
v -9.228241 0.127350 -5.258789
v -1.541565 0.649628 7.077484
v -3.094940 1.929047 5.441223
v 1.215179 0.653961 6.977600
v -0.682037 1.927551 6.977600
v 3.799774 0.649780 7.077087
v 3.062744 1.927765 6.977600
v 4.941711 1.929016 5.443024
v 7.631927 3.241913 -0.024231
v 7.332916 3.217621 -6.064606
v 9.231934 1.929047 -5.204041
v -0.010773 3.210907 -4.917542
v 3.714172 1.927704 -5.076416
v -7.473419 3.217682 -6.064789
v -3.751465 1.927704 -5.075104
v -6.723511 3.243591 -0.024841
v -9.177155 1.929047 -5.201721
v -1.541473 3.215942 7.077728
v -3.082184 3.761658 5.479065
v 1.215179 3.211670 6.977600
v -0.527679 3.765533 7.078949
v 3.799713 3.215820 7.077332
v 2.933105 3.765137 7.077484
v 4.935303 3.761688 5.479401
v -2.220581 3.988525 0.958221
v -0.527832 0.122803 7.079742
v 1.077209 3.909576 5.639893
v -2.227600 -0.068176 0.962952
v 1.077209 0.001923 5.639893
v -3.764954 3.767883 -5.270782
v 0.126953 0.001862 -3.581543
v 0.126953 3.909668 -3.581543
v 3.398254 3.986877 0.954376
v 2.933441 0.123199 7.078278
v 4.205627 3.911835 5.591980
v 3.405273 -0.066467 0.958405
v 4.205597 -0.000031 5.591980
v 3.697754 3.767975 -5.270996
v 6.953156 -0.000031 -4.585236
v 6.953156 3.911835 -4.585266
v 7.466217 -0.034332 0.017639
v -6.538269 -0.033875 0.018890
v 9.271515 3.761475 -5.258698
v -9.227753 3.761444 -5.258270
v 7.455597 3.950287 0.020325
v -6.528137 3.949890 0.021271
v 4.935059 0.127106 5.480133
v -3.081848 0.127136 5.479767
v -6.822174 0.000000 -4.584015
v -6.822174 3.911804 -4.584015
v -2.220276 3.911774 5.590820
v -2.220276 0.000000 5.590820
v 7.851410 1.927155 -0.079681
v 7.385345 1.928802 -6.117340
v -0.006012 1.927673 -4.819763
v -7.529022 1.928833 -6.112854
v -6.945892 1.927216 -0.077332
v -1.519562 1.928772 7.145477
v 1.348358 1.907654 6.977600
v 3.788574 1.928741 7.147003
v 7.760101 3.809601 -0.056610
v 7.365692 3.763397 -6.149414
v -0.021332 3.768250 -5.017456
v -7.520020 3.763184 -6.147797
v -6.861969 3.810760 -0.057526
v -1.514282 3.763184 7.159393
v 1.226044 3.765656 7.079468
v 3.786682 3.763275 7.160034
v 0.611328 3.993011 1.095795
v 1.226166 0.122681 7.080261
v 0.612396 -0.073181 1.103455
v -0.021423 0.120026 -5.018097
v 5.812256 3.998657 0.483032
v 3.786530 0.125336 7.160950
v 5.823517 -0.076508 0.482025
v 7.366272 0.125214 -6.150208
v -6.864410 0.078033 -0.058105
v 7.762451 0.079132 -0.057190
v -4.775665 -0.076965 0.481689
v -7.520691 0.125427 -6.148560
v -4.764374 3.999237 0.482666
v -1.513977 0.125397 7.160309
vt 0.375000 0.000000
vt 0.625000 0.000000
vt 0.375000 0.250000
vt 0.625000 0.250000
vt 0.375000 0.500000
vt 0.625000 0.500000
vt 0.375000 0.750000
vt 0.625000 0.750000
vt 0.375000 1.000000
vt 0.625000 1.000000
vt 0.875000 0.000000
vt 0.875000 0.250000
vt 0.125000 0.000000
vt 0.125000 0.250000
vt 0.544636 0.500000
vt 0.544636 0.750000
vt 0.544636 0.000000
vt 0.544636 1.000000
vt 0.544636 0.250000
vt 0.457657 0.500000
vt 0.457657 0.750000
vt 0.457657 0.000000
vt 0.457657 1.000000
vt 0.457657 0.250000
vt 0.625000 0.222498
vt 0.544636 0.222498
vt 0.457657 0.222498
vt 0.375000 0.222498
vt 0.125000 0.222498
vt 0.375000 0.527502
vt 0.457657 0.527502
vt 0.544636 0.527502
vt 0.625000 0.527502
vt 0.875000 0.222498
vt 0.625000 0.023802
vt 0.544636 0.023802
vt 0.457657 0.023802
vt 0.375000 0.023802
vt 0.125000 0.023802
vt 0.375000 0.726198
vt 0.457657 0.726198
vt 0.544636 0.726198
vt 0.625000 0.726198
vt 0.875000 0.023802
vt 0.750000 0.023802
vt 0.584818 0.726198
vt 0.625000 0.738099
vt 0.875000 0.011901
vt 0.501146 0.726198
vt 0.544636 0.738099
vt 0.416329 0.726198
vt 0.457657 0.738099
vt 0.250000 0.023802
vt 0.125000 0.011901
vt 0.375000 0.738099
vt 0.416329 0.023802
vt 0.375000 0.123150
vt 0.501146 0.023802
vt 0.457657 0.123150
vt 0.584818 0.023802
vt 0.544636 0.123150
vt 0.625000 0.123150
vt 0.750000 0.222498
vt 0.584818 0.527502
vt 0.625000 0.626850
vt 0.875000 0.123150
vt 0.501146 0.527502
vt 0.544636 0.626850
vt 0.416329 0.527502
vt 0.457657 0.626850
vt 0.250000 0.222498
vt 0.125000 0.123150
vt 0.375000 0.626850
vt 0.416329 0.222498
vt 0.375000 0.236249
vt 0.501146 0.222498
vt 0.457657 0.236249
vt 0.584818 0.222498
vt 0.544636 0.236249
vt 0.625000 0.236249
vt 0.457657 0.375000
vt 0.457657 0.011901
vt 0.501146 0.250000
vt 0.457657 0.875000
vt 0.501146 0.000000
vt 0.501146 1.000000
vt 0.457657 0.513751
vt 0.501146 0.750000
vt 0.501146 0.500000
vt 0.544636 0.375000
vt 0.544636 0.011901
vt 0.584818 0.250000
vt 0.544636 0.875000
vt 0.584818 0.000000
vt 0.584818 1.000000
vt 0.544636 0.513751
vt 0.584818 0.750000
vt 0.584818 0.500000
vt 0.625000 0.875000
vt 0.750000 0.000000
vt 0.250000 0.000000
vt 0.375000 0.875000
vt 0.625000 0.513751
vt 0.875000 0.236249
vt 0.125000 0.236249
vt 0.375000 0.513751
vt 0.625000 0.375000
vt 0.750000 0.250000
vt 0.250000 0.250000
vt 0.375000 0.375000
vt 0.625000 0.011901
vt 0.375000 0.011901
vt 0.416329 0.750000
vt 0.416329 0.500000
vt 0.416329 0.250000
vt 0.416329 0.000000
vt 0.416329 1.000000
vt 0.750000 0.123150
vt 0.584818 0.626850
vt 0.501146 0.626850
vt 0.416329 0.626850
vt 0.250000 0.123150
vt 0.416329 0.123150
vt 0.501146 0.123150
vt 0.584818 0.123150
vt 0.750000 0.236249
vt 0.584818 0.513751
vt 0.501146 0.513751
vt 0.416329 0.513751
vt 0.250000 0.236249
vt 0.416329 0.236249
vt 0.501146 0.236249
vt 0.584818 0.236249
vt 0.501146 0.375000
vt 0.501146 0.011901
vt 0.501146 0.875000
vt 0.501146 0.738099
vt 0.584818 0.375000
vt 0.584818 0.011901
vt 0.584818 0.875000
vt 0.584818 0.738099
vt 0.250000 0.011901
vt 0.750000 0.011901
vt 0.416329 0.875000
vt 0.416329 0.738099
vt 0.416329 0.375000
vt 0.416329 0.011901
vn -0.112172 -0.989725 0.088666
vn -0.023494 -0.998965 0.038941
vn -0.280347 -0.797784 0.533803
vn -0.751886 -0.335164 0.567743
vn -0.133503 0.985514 0.104589
vn -0.027447 0.998594 0.045349
vn -0.012043 0.999925 0.002244
vn -0.105442 0.993085 0.051617
vn -0.992171 0.001909 0.124873
vn 0.017929 0.055880 -0.998277
vn -0.014805 -0.861817 -0.507003
vn -0.795464 -0.603907 0.050329
vn -0.071704 -0.997418 0.003973
vn -0.004346 -0.999253 -0.038400
vn -0.010570 -0.999942 0.001917
vn -0.088020 -0.995205 0.042657
vn 0.119741 -0.990161 0.072414
vn 0.091967 -0.995343 0.028877
vn 0.855510 -0.401820 0.326564
vn 0.828164 -0.315408 0.463317
vn -0.805136 -0.397988 0.439729
vn -0.158782 0.086270 -0.983537
vn -0.016334 0.054417 -0.998385
vn 0.009183 -0.867941 -0.496582
vn -0.067454 -0.900820 -0.428921
vn 0.000446 -0.999638 0.026910
vn -0.001147 -0.999996 -0.002486
vn 0.010635 -0.999943 0.000141
vn 0.025839 -0.999025 0.035808
vn -0.044698 0.050632 0.997717
vn -0.011213 -0.921687 0.387772
vn 0.344049 -0.786485 0.512905
vn 0.630187 0.018526 0.776222
vn -0.005863 0.999288 -0.037282
vn -0.001487 0.999995 -0.002802
vn 0.012168 0.999926 0.000214
vn 0.004509 0.999003 -0.044417
vn 0.155782 0.084911 -0.984135
vn -0.000202 0.108150 -0.994135
vn 0.000608 -0.900176 -0.435527
vn 0.069554 -0.895119 -0.440369
vn -0.000505 -0.999630 0.027205
vn 0.001057 -0.999996 -0.002631
vn 0.000110 -0.999999 -0.001553
vn 0.000245 -0.999570 0.029337
vn 0.040602 0.048694 0.997988
vn 0.009870 -0.922771 0.385222
vn 0.000190 -0.909678 0.415313
vn 0.000056 0.055089 0.998482
vn 0.005927 0.999238 -0.038566
vn 0.001391 0.999995 -0.002995
vn 0.000099 0.999998 -0.001769
vn -0.000003 0.999317 -0.036948
vn 0.000264 0.999514 0.031189
vn -0.011731 0.911282 0.411616
vn 0.354365 0.767946 0.533558
vn 0.030289 0.998669 0.041748
vn -0.000331 0.999506 0.031434
vn 0.010302 0.912495 0.408959
vn 0.000203 0.898233 0.439520
vn 0.000236 0.999422 0.034004
vn -0.805853 0.006983 0.592075
vn -0.538064 -0.017605 0.842720
vn -0.289051 0.779549 0.555655
vn -0.755776 0.319550 0.571568
vn -0.992174 -0.000881 0.124859
vn -0.864816 0.012273 0.501940
vn -0.811801 0.380336 0.443085
vn -0.810370 0.583835 0.049360
vn -0.086580 0.996225 0.006264
vn -0.004866 0.998962 -0.045303
vn -0.015790 0.847495 -0.530569
vn 0.000660 0.888033 -0.459779
vn 0.073513 0.882409 -0.464704
vn 0.009679 0.853914 -0.520324
vn -0.071303 0.888689 -0.452932
vn 0.877542 0.009795 0.479400
vn 0.925123 0.015723 0.379342
vn 0.862513 0.384561 0.328913
vn 0.831952 0.300834 0.466214
vn -0.044285 -0.048888 0.997822
vn -0.058471 -0.000025 0.998289
vn 0.616485 -0.000025 0.787366
vn 0.629797 -0.017877 0.776554
vn 0.040259 -0.047066 0.998080
vn 0.052109 -0.000027 0.998641
vn -0.000000 0.000000 1.000000
vn 0.000057 -0.053087 0.998590
vn -0.805876 -0.006568 0.592048
vn -0.538481 0.018237 0.842441
vn -0.522679 -0.000026 0.852529
vn -0.803135 -0.000140 0.595797
vn -0.864715 -0.011932 0.502122
vn -0.871537 -0.000224 0.490330
vn -0.994006 -0.000214 0.109327
vn 0.017681 -0.054439 -0.998361
vn 0.004415 -0.000051 -0.999990
vn 0.155746 -0.083115 -0.984294
vn -0.000198 -0.105918 -0.994375
vn -0.000249 -0.000001 -1.000000
vn 0.160893 -0.000014 -0.986972
vn -0.158738 -0.084442 -0.983703
vn -0.016116 -0.052989 -0.998465
vn -0.004692 -0.000056 -0.999989
vn -0.164245 -0.000017 -0.986420
vn 0.877556 -0.009396 0.479383
vn 0.925055 -0.015396 0.379521
vn 0.929948 -0.000222 0.367690
vn 0.875482 -0.000138 0.483251
vn 0.997954 -0.000200 -0.063939
vn 0.998867 0.002546 -0.047521
vn 0.998869 -0.001578 -0.047522
vn 0.110055 0.993306 0.035073
vn 0.789717 0.607022 -0.088716
vn 0.085134 0.996333 -0.008528
vn 0.142431 0.986132 0.085191
vn 0.000009 -0.999501 -0.031580
vn -0.004917 -0.999481 -0.031839
vn 0.004980 -0.999445 -0.032926
vn 0.003984 -0.999281 -0.037705
vn 0.070600 -0.997470 -0.008269
vn 0.774229 -0.627156 -0.085111
s 1
usemtl initialShadingGroup
f 1/1/1 92/116/2 122/147/3 88/112/4
f 3/3/5 91/115/6 121/146/7 86/110/8
f 29/40/9 38/51/10 120/145/11 41/55/12
f 7/7/13 89/113/14 119/144/15 82/102/16
f 2/2/17 81/100/18 118/143/19 87/111/20
f 7/13/13 82/101/16 117/142/21 41/54/12
f 31/42/22 34/46/23 116/141/24 37/50/25
f 11/18/26 76/93/27 115/140/28 77/95/29
f 26/36/30 74/91/31 114/139/32 46/60/33
f 9/15/34 73/90/35 113/138/36 80/98/37
f 30/41/38 36/49/39 112/137/40 39/52/41
f 15/23/42 68/84/43 111/136/44 69/86/45
f 27/37/46 66/82/47 110/135/48 44/58/49
f 13/20/50 65/81/51 109/134/52 72/89/53
f 12/19/54 63/79/55 108/133/56 75/92/57
f 16/24/58 61/77/59 107/132/60 67/83/61
f 20/28/62 58/74/63 106/131/64 59/75/65
f 21/29/66 56/71/67 105/130/68 84/105/69
f 5/5/70 90/114/71 104/129/72 84/106/69
f 13/20/50 72/89/53 103/128/73 70/87/74
f 9/15/34 80/98/37 102/127/75 78/96/76
f 17/25/77 49/63/78 101/126/79 64/80/80
f 18/26/81 47/61/82 100/125/83 62/78/84
f 19/27/85 45/59/86 99/124/87 60/76/88
f 28/38/89 42/56/90 98/123/91 43/57/92
f 29/39/9 40/53/93 97/122/94 57/72/95
f 21/30/66 54/69/96 96/121/97 57/73/95
f 22/31/98 52/67/99 95/120/100 55/70/101
f 23/32/102 50/64/103 94/119/104 53/68/105
f 25/35/106 33/45/107 93/118/108 48/62/109
f 49/63/78 93/118/108 51/66/110 24/34/111
f 51/66/110 93/118/108 33/45/107 32/44/112
f 48/62/109 93/118/108 49/63/78 17/25/77
f 34/46/23 94/119/104 51/65/110 32/43/112
f 51/65/110 94/119/104 50/64/103 24/33/111
f 53/68/105 94/119/104 34/46/23 31/42/22
f 36/49/39 95/120/100 53/68/105 31/42/22
f 53/68/105 95/120/100 52/67/99 23/32/102
f 55/70/101 95/120/100 36/49/39 30/41/38
f 38/51/10 96/121/97 55/70/101 30/41/38
f 55/70/101 96/121/97 54/69/96 22/31/98
f 57/73/95 96/121/97 38/51/10 29/40/9
f 56/71/67 97/122/94 43/57/92 20/28/62
f 43/57/92 97/122/94 40/53/93 28/38/89
f 57/72/95 97/122/94 56/71/67 21/29/66
f 58/74/63 98/123/91 45/59/86 19/27/85
f 45/59/86 98/123/91 42/56/90 27/37/46
f 43/57/92 98/123/91 58/74/63 20/28/62
f 47/61/82 99/124/87 44/58/49 26/36/30
f 44/58/49 99/124/87 45/59/86 27/37/46
f 60/76/88 99/124/87 47/61/82 18/26/81
f 48/62/109 100/125/83 46/60/33 25/35/106
f 46/60/33 100/125/83 47/61/82 26/36/30
f 62/78/84 100/125/83 48/62/109 17/25/77
f 85/108/113 101/126/79 83/104/114 6/12/115
f 83/104/114 101/126/79 49/63/78 24/34/111
f 64/80/80 101/126/79 85/108/113 4/4/116
f 50/64/103 102/127/75 83/103/114 24/33/111
f 83/103/114 102/127/75 80/98/37 6/6/115
f 78/96/76 102/127/75 50/64/103 23/32/102
f 52/67/99 103/128/73 78/96/76 23/32/102
f 78/96/76 103/128/73 72/89/53 9/15/34
f 70/87/74 103/128/73 52/67/99 22/31/98
f 54/69/96 104/129/72 70/87/74 22/31/98
f 70/87/74 104/129/72 90/114/71 13/20/50
f 84/106/69 104/129/72 54/69/96 21/30/66
f 86/109/8 105/130/68 59/75/65 3/3/5
f 59/75/65 105/130/68 56/71/67 20/28/62
f 84/105/69 105/130/68 86/109/8 5/14/70
f 91/115/6 106/131/64 61/77/59 16/24/58
f 61/77/59 106/131/64 58/74/63 19/27/85
f 59/75/65 106/131/64 91/115/6 3/3/5
f 63/79/55 107/132/60 60/76/88 18/26/81
f 60/76/88 107/132/60 61/77/59 19/27/85
f 67/83/61 107/132/60 63/79/55 12/19/54
f 64/80/80 108/133/56 62/78/84 17/25/77
f 62/78/84 108/133/56 63/79/55 18/26/81
f 75/92/57 108/133/56 64/80/80 4/4/116
f 73/90/35 109/134/52 67/83/61 12/19/54
f 67/83/61 109/134/52 65/81/51 16/24/58
f 72/89/53 109/134/52 73/90/35 9/15/34
f 74/91/31 110/135/48 69/85/45 11/17/26
f 69/85/45 110/135/48 66/82/47 15/22/42
f 44/58/49 110/135/48 74/91/31 26/36/30
f 76/93/27 111/136/44 71/88/117 10/16/118
f 71/88/117 111/136/44 68/84/43 14/21/119
f 69/86/45 111/136/44 76/93/27 11/18/26
f 71/88/117 112/137/40 37/50/25 10/16/118
f 37/50/25 112/137/40 36/49/39 31/42/22
f 39/52/41 112/137/40 71/88/117 14/21/119
f 85/107/113 113/138/36 75/92/57 4/4/116
f 75/92/57 113/138/36 73/90/35 12/19/54
f 80/98/37 113/138/36 85/107/113 6/6/115
f 87/111/20 114/139/32 77/94/29 2/2/17
f 77/94/29 114/139/32 74/91/31 11/17/26
f 46/60/33 114/139/32 87/111/20 25/35/106
f 81/99/18 115/140/28 79/97/120 8/8/121
f 79/97/120 115/140/28 76/93/27 10/16/118
f 77/95/29 115/140/28 81/99/18 2/10/17
f 79/97/120 116/141/24 35/47/122 8/8/121
f 35/47/122 116/141/24 34/46/23 32/43/112
f 37/50/25 116/141/24 79/97/120 10/16/118
f 40/53/93 117/142/21 88/112/4 28/38/89
f 88/112/4 117/142/21 82/101/16 1/1/1
f 41/54/12 117/142/21 40/53/93 29/39/9
f 33/45/107 118/143/19 35/48/122 32/44/112
f 35/48/122 118/143/19 81/100/18 8/11/121
f 87/111/20 118/143/19 33/45/107 25/35/106
f 92/117/2 119/144/15 68/84/43 15/23/42
f 68/84/43 119/144/15 89/113/14 14/21/119
f 82/102/16 119/144/15 92/117/2 1/9/1
f 89/113/14 120/145/11 39/52/41 14/21/119
f 39/52/41 120/145/11 38/51/10 30/41/38
f 41/55/12 120/145/11 89/113/14 7/7/13
f 90/114/71 121/146/7 65/81/51 13/20/50
f 65/81/51 121/146/7 91/115/6 16/24/58
f 86/110/8 121/146/7 90/114/71 5/5/70
f 42/56/90 122/147/3 66/82/47 27/37/46
f 66/82/47 122/147/3 92/116/2 15/22/42
f 88/112/4 122/147/3 42/56/90 28/38/89
