# This file uses centimeters as units for non-parametric coordinates.

mtllib Ö_27.mtl
v -1.595871 0.068115 3.757294
v 1.195023 0.068115 3.688202
v -1.595871 5.823486 3.757294
v 1.195023 5.823486 3.688202
v -1.769958 5.823486 -4.413879
v 2.132294 5.823486 -4.622894
v -1.769958 0.068115 -4.413879
v 2.132294 0.068115 -4.622894
v 2.993835 5.879486 -1.756744
v -2.857147 5.879486 -1.370667
v -2.857147 0.017090 -1.370667
v 2.993835 0.017090 -1.756744
v 2.065918 5.879486 1.294739
v -2.439789 5.879486 1.619049
v -2.439789 0.017090 1.619049
v 2.065918 0.017090 1.294739
v 1.547104 4.845978 3.943207
v -1.942291 4.845978 3.995056
v -3.095444 4.845978 1.665405
v -3.698639 4.845978 -1.315216
v -2.247070 4.845978 -4.727448
v 2.629013 4.845978 -4.977417
v 3.835327 4.845978 -1.812225
v 2.721573 4.845978 1.248383
v 1.547104 1.006287 3.943207
v -1.942291 1.006287 3.995056
v -3.095444 1.006287 1.665405
v -3.698639 1.006287 -1.315216
v -2.247070 1.006287 -4.727448
v 2.629013 1.006287 -4.977417
v 3.835327 1.006287 -1.812225
v 2.721573 1.006287 1.248383
v 2.312653 1.001434 2.783173
v 3.377502 1.003906 -0.241211
v 2.666962 2.920593 1.243164
v 3.701126 1.003754 -3.599396
v 3.874557 2.922089 -1.800232
v 0.205414 0.990509 -5.343994
v 2.660675 0.208862 -5.000214
v -3.402237 1.003357 -3.185455
v -2.277786 0.208740 -4.747864
v -3.513931 1.005280 0.259979
v -3.757111 0.208221 -1.309479
v -2.736496 1.003296 3.012421
v -3.143860 0.202972 1.670197
v -0.193466 0.996521 4.327606
v -1.968811 2.922363 4.014343
v 1.571625 2.922363 3.963837
v 2.312698 4.850891 2.783203
v 3.377518 4.848389 -0.241211
v 2.768967 5.673615 1.244354
v 3.701157 4.848511 -3.599396
v 3.893005 5.665558 -1.814453
v 0.205414 4.861847 -5.344269
v 2.649002 2.922455 -4.993011
v -3.402267 4.848938 -3.185455
v -2.268158 2.922424 -4.743225
v -3.513931 4.847015 0.259979
v -3.737930 2.921997 -1.294281
v -2.736542 4.848999 3.012451
v -3.075058 2.916107 1.736298
v -0.193466 4.855804 4.327759
v -1.965714 5.666565 4.011230
v 1.570663 5.666443 3.960602
v 2.769180 0.200562 1.244324
v -0.212296 -0.098022 1.465515
v 1.744751 0.013763 2.823334
v -3.143600 5.671204 1.670135
v -2.166702 0.014038 2.999115
v -0.210175 6.002014 1.464813
v -2.738266 5.879486 0.203369
v 2.601730 5.879517 -0.184967
v 3.893326 0.208740 -1.814423
v 0.090103 -0.117432 -1.470337
v 2.601715 0.017090 -0.184967
v -3.756790 5.666077 -1.309540
v -2.738251 0.017090 0.203369
v 0.088989 6.023712 -1.475128
v -2.603134 5.883209 -3.251740
v 2.901886 5.883057 -3.571686
v 2.901886 0.013855 -3.571686
v -2.603134 0.013702 -3.251740
v 2.660416 5.665771 -5.000031
v -2.277527 5.665894 -4.747711
v 1.744736 5.883148 2.823334
v -2.166702 5.882843 2.999115
v 1.570938 0.208160 3.960815
v -1.966003 0.208008 4.011444
v 0.194427 -0.000854 -4.969910
v 0.194412 5.899078 -4.969269
v -0.196655 5.898071 4.050873
v -0.196640 0.000000 4.051666
v 2.350327 2.921753 2.822754
v 3.431549 2.920593 -0.218994
v 3.732254 2.922302 -3.612976
v 0.207153 2.921997 -5.403381
v -3.435974 2.922272 -3.198364
v -3.559677 2.921143 0.293182
v -2.774353 2.921906 3.044098
v -0.192749 2.921875 4.389801
v 2.350189 5.670532 2.793213
v 3.432770 5.669495 -0.243896
v 3.746811 5.666870 -3.613892
v 0.206970 5.688934 -5.397491
v -3.448502 5.667603 -3.195282
v -3.568222 5.668549 0.265381
v -2.772568 5.668854 3.024261
v -0.193039 5.684662 4.364807
v 3.433075 0.204773 -0.243896
v -0.075729 -0.115570 0.060608
v -3.568527 0.205719 0.265472
v -0.075165 6.020111 0.056610
v 3.747131 0.207581 -3.614014
v 0.157669 -0.089020 -3.520905
v -3.448822 0.206848 -3.195374
v 0.157516 5.995392 -3.518829
v -2.772873 0.205536 3.024414
v 2.350510 0.203857 2.793365
v -0.215500 -0.078125 2.971863
v 0.207001 0.185699 -5.398071
v -0.215393 5.983490 2.970306
v -0.193039 0.189850 4.365326
vt 0.375000 0.000000
vt 0.625000 0.000000
vt 0.375000 0.250000
vt 0.625000 0.250000
vt 0.375000 0.500000
vt 0.625000 0.500000
vt 0.375000 0.750000
vt 0.625000 0.750000
vt 0.375000 1.000000
vt 0.625000 1.000000
vt 0.875000 0.000000
vt 0.875000 0.250000
vt 0.125000 0.000000
vt 0.125000 0.250000
vt 0.625000 0.367777
vt 0.742777 0.250000
vt 0.257223 0.250000
vt 0.375000 0.367777
vt 0.257223 0.000000
vt 0.375000 0.882223
vt 0.625000 0.882223
vt 0.742777 0.000000
vt 0.625000 0.305522
vt 0.680522 0.250000
vt 0.319478 0.250000
vt 0.375000 0.305522
vt 0.319478 0.000000
vt 0.375000 0.944478
vt 0.625000 0.944478
vt 0.680522 0.000000
vt 0.625000 0.223327
vt 0.375000 0.223327
vt 0.319478 0.223327
vt 0.257223 0.223327
vt 0.125000 0.223327
vt 0.375000 0.526673
vt 0.625000 0.526673
vt 0.875000 0.223327
vt 0.742777 0.223327
vt 0.680522 0.223327
vt 0.625000 0.024291
vt 0.375000 0.024291
vt 0.319478 0.024291
vt 0.257223 0.024291
vt 0.125000 0.024291
vt 0.375000 0.725709
vt 0.625000 0.725709
vt 0.875000 0.024291
vt 0.742777 0.024291
vt 0.680522 0.024291
vt 0.652761 0.024291
vt 0.711650 0.024291
vt 0.680522 0.123809
vt 0.808888 0.024291
vt 0.742777 0.123809
vt 0.500000 0.725709
vt 0.625000 0.737855
vt 0.875000 0.012145
vt 0.191112 0.024291
vt 0.125000 0.012145
vt 0.375000 0.737855
vt 0.288350 0.024291
vt 0.257223 0.012145
vt 0.347239 0.024291
vt 0.319478 0.012145
vt 0.500000 0.024291
vt 0.375000 0.123809
vt 0.625000 0.123809
vt 0.652761 0.223327
vt 0.711650 0.223327
vt 0.680522 0.236664
vt 0.808888 0.223327
vt 0.742777 0.236664
vt 0.500000 0.526673
vt 0.625000 0.626191
vt 0.875000 0.123809
vt 0.191112 0.223327
vt 0.125000 0.123809
vt 0.375000 0.626191
vt 0.288350 0.223327
vt 0.257223 0.123809
vt 0.347239 0.223327
vt 0.319478 0.123809
vt 0.500000 0.223327
vt 0.375000 0.236664
vt 0.625000 0.236664
vt 0.680522 0.012145
vt 0.500000 0.944478
vt 0.625000 0.972239
vt 0.652761 0.000000
vt 0.319478 0.236664
vt 0.347239 0.000000
vt 0.375000 0.972239
vt 0.500000 0.305522
vt 0.288350 0.250000
vt 0.375000 0.336650
vt 0.625000 0.336650
vt 0.711650 0.250000
vt 0.742777 0.012145
vt 0.500000 0.882223
vt 0.625000 0.913350
vt 0.711650 0.000000
vt 0.257223 0.236664
vt 0.288350 0.000000
vt 0.375000 0.913350
vt 0.500000 0.367777
vt 0.191112 0.250000
vt 0.375000 0.433888
vt 0.625000 0.433888
vt 0.808888 0.250000
vt 0.625000 0.816112
vt 0.808888 0.000000
vt 0.191112 0.000000
vt 0.375000 0.816112
vt 0.625000 0.513336
vt 0.875000 0.236664
vt 0.125000 0.236664
vt 0.375000 0.513336
vt 0.625000 0.277761
vt 0.652761 0.250000
vt 0.347239 0.250000
vt 0.375000 0.277761
vt 0.625000 0.012145
vt 0.375000 0.012145
vt 0.500000 0.750000
vt 0.500000 0.500000
vt 0.500000 0.250000
vt 0.500000 0.000000
vt 0.500000 1.000000
vt 0.652761 0.123809
vt 0.711650 0.123809
vt 0.808888 0.123809
vt 0.500000 0.626191
vt 0.191112 0.123809
vt 0.288350 0.123809
vt 0.347239 0.123809
vt 0.500000 0.123809
vt 0.652761 0.236664
vt 0.711650 0.236664
vt 0.808888 0.236664
vt 0.500000 0.513336
vt 0.191112 0.236664
vt 0.288350 0.236664
vt 0.347239 0.236664
vt 0.500000 0.236664
vt 0.711650 0.012145
vt 0.500000 0.913350
vt 0.288350 0.012145
vt 0.500000 0.336650
vt 0.808888 0.012145
vt 0.500000 0.816112
vt 0.191112 0.012145
vt 0.500000 0.433888
vt 0.347239 0.012145
vt 0.652761 0.012145
vt 0.500000 0.972239
vt 0.500000 0.737855
vt 0.500000 0.277761
vt 0.500000 0.012145
vn -0.098925 -0.976234 0.192826
vn 0.005743 -0.978865 0.204427
vn 0.014820 -0.247233 0.968843
vn -0.456730 -0.267464 0.848446
vn -0.109104 0.970825 0.213529
vn 0.006306 0.974061 0.226199
vn 0.001803 0.999235 0.039067
vn -0.120565 0.990628 0.064195
vn -0.513112 0.001836 -0.858320
vn -0.051429 0.000715 -0.998676
vn -0.046140 -0.325445 -0.944435
vn -0.493361 -0.356406 -0.793455
vn -0.098507 -0.994891 0.022097
vn -0.000520 -0.999929 0.011943
vn 0.001712 -0.999335 0.036438
vn -0.109241 -0.992278 0.058737
vn 0.110789 -0.977354 0.180290
vn 0.111352 -0.992293 0.054368
vn 0.822131 -0.450579 0.347964
vn 0.516024 -0.274078 0.811542
vn -0.805318 -0.450486 0.385390
vn -0.798332 -0.559924 0.221702
vn -0.098721 0.995094 -0.006536
vn 0.000472 0.999998 -0.002023
vn -0.001234 0.999472 -0.032477
vn -0.098674 0.993938 -0.048480
vn -0.085242 -0.986150 -0.142272
vn -0.089348 -0.995020 -0.044194
vn -0.776995 -0.544966 -0.315104
vn -0.007984 -0.987770 -0.155711
vn -0.001143 -0.999546 -0.030110
vn 0.995677 0.004193 0.092785
vn 0.798248 -0.598043 0.071724
vn 0.784800 -0.549502 -0.286595
vn 0.933813 0.005990 -0.357711
vn -0.108155 0.993847 0.023902
vn -0.000521 0.999926 0.012182
vn -0.000142 0.999957 0.009317
vn -0.102819 0.994599 0.014177
vn -0.089723 -0.995946 -0.006384
vn -0.093805 -0.995511 0.012631
vn -0.788499 -0.595270 0.154673
vn -0.796247 -0.604438 -0.025404
vn 0.000456 -0.999997 -0.002367
vn -0.000133 -0.999963 0.008586
vn 0.942595 0.016264 0.333543
vn 0.790309 -0.545893 0.278231
vn 0.770927 -0.575153 0.273625
vn 0.935873 0.008574 0.352233
vn -0.458430 0.004648 0.888718
vn 0.014578 0.005119 0.999881
vn 0.014909 0.239380 0.970811
vn -0.458444 0.259063 0.850127
vn -0.961689 -0.008029 0.274025
vn -0.897155 -0.002908 0.441706
vn -0.812212 0.435907 0.387681
vn -0.809249 0.542964 0.224290
vn -0.999386 -0.005146 -0.034658
vn -0.978957 -0.005955 0.203982
vn -0.800322 0.578751 0.156629
vn -0.808359 0.588127 -0.025755
vn -0.513138 -0.001674 -0.858305
vn -0.919641 -0.004882 -0.392730
vn -0.786508 0.529431 -0.317976
vn -0.496149 0.345187 -0.796670
vn -0.094188 0.982959 -0.157859
vn -0.008861 0.984904 -0.172875
vn -0.046272 0.315012 -0.947959
vn 0.099323 0.995034 0.006548
vn 0.810084 0.581797 0.072630
vn 0.794371 0.534194 -0.289157
vn 0.098190 0.994195 -0.044002
vn 0.108664 0.993553 0.032325
vn 0.800679 0.528751 0.281665
vn 0.781824 0.558552 0.277074
vn 0.104019 0.994056 0.032132
vn 0.522980 0.004679 0.852332
vn 0.920625 -0.007634 0.390372
vn 0.829165 0.435743 0.350163
vn 0.517853 0.265501 0.813227
vn -0.458397 -0.004550 0.888736
vn 0.014578 -0.005027 0.999881
vn 0.014548 -0.000023 0.999894
vn -0.461804 -0.000010 0.886982
vn -0.961686 0.008246 0.274029
vn -0.897052 0.003070 0.441915
vn -0.897493 0.000006 0.441029
vn -0.962183 -0.000033 0.272403
vn -0.999383 0.005328 -0.034706
vn -0.978975 0.006143 0.203888
vn -0.978384 0.000011 0.206798
vn -0.999456 0.000001 -0.032968
vn -0.919635 0.005060 -0.392742
vn -0.920115 -0.000003 -0.391649
vn -0.515981 -0.000020 -0.856600
vn -0.051422 -0.000555 -0.998677
vn -0.050661 -0.000037 -0.998716
vn 0.995671 -0.004025 0.092858
vn 0.995709 0.000004 0.092540
vn 0.933963 -0.000003 -0.357370
vn 0.933817 -0.005794 -0.357705
vn 0.942591 -0.015982 0.333567
vn 0.942915 -0.000004 0.333033
vn 0.934686 -0.000009 0.355473
vn 0.935889 -0.008376 0.352197
vn 0.522938 -0.004579 0.852358
vn 0.920640 0.007840 0.390335
vn 0.921759 -0.000011 0.387762
vn 0.525297 -0.000009 0.850919
vn 0.450145 -0.000021 -0.892955
vn 0.446509 0.002620 -0.894775
vn 0.446536 -0.002439 -0.894763
vn 0.122956 0.990630 0.059452
vn 0.122298 0.972189 0.199727
vn 0.435352 0.353719 -0.827860
vn 0.078781 0.984209 -0.158510
vn 0.094861 -0.995068 0.028988
vn 0.090190 -0.995910 0.005468
vn 0.098971 -0.994644 0.029796
vn 0.432630 -0.364965 -0.824398
vn 0.088851 -0.995236 -0.040144
vn 0.071339 -0.987184 -0.142756
s 1
usemtl initialShadingGroup
f 1/1/1 92/128/2 122/159/3 88/124/4
f 3/3/5 91/127/6 121/158/7 86/122/8
f 29/46/9 38/56/10 120/157/11 41/61/12
f 15/28/13 66/88/14 119/156/15 69/93/16
f 2/2/17 67/90/18 118/155/19 87/123/20
f 15/27/13 69/92/16 117/154/21 45/65/22
f 10/18/23 78/106/24 116/153/25 79/108/26
f 7/13/27 82/113/28 115/152/29 41/60/12
f 7/7/27 89/125/30 114/151/31 82/114/28
f 31/49/32 73/99/33 113/150/34 36/54/35
f 14/26/36 70/94/37 112/149/38 71/96/39
f 11/19/40 77/104/41 111/148/42 43/63/43
f 11/20/40 74/100/44 110/147/45 77/105/41
f 32/50/46 65/87/47 109/146/48 34/52/49
f 18/32/50 62/84/51 108/145/52 63/85/53
f 19/33/54 60/82/55 107/144/56 68/91/57
f 20/34/58 58/80/59 106/143/60 76/103/61
f 21/35/62 56/77/63 105/142/64 84/117/65
f 5/5/66 90/126/67 104/141/68 84/118/65
f 9/16/69 53/73/70 103/140/71 80/110/72
f 13/24/73 51/71/74 102/139/75 72/98/76
f 17/31/77 49/69/78 101/138/79 64/86/80
f 26/42/81 46/66/82 100/137/83 47/67/84
f 27/43/85 44/64/86 99/136/87 61/83/88
f 28/44/89 42/62/90 98/135/91 59/81/92
f 29/45/9 40/59/93 97/134/94 57/78/95
f 21/36/62 54/74/96 96/133/97 57/79/95
f 23/39/98 37/55/99 95/132/100 52/72/101
f 24/40/102 35/53/103 94/131/104 50/70/105
f 25/41/106 33/51/107 93/130/108 48/68/109
f 49/69/78 93/130/108 35/53/103 24/40/102
f 35/53/103 93/130/108 33/51/107 32/50/46
f 48/68/109 93/130/108 49/69/78 17/31/77
f 37/55/99 94/131/104 34/52/49 31/49/32
f 34/52/49 94/131/104 35/53/103 32/50/46
f 50/70/105 94/131/104 37/55/99 23/39/98
f 55/76/110 95/132/100 36/54/35 30/48/111
f 36/54/35 95/132/100 37/55/99 31/49/32
f 52/72/101 95/132/100 55/76/110 22/38/112
f 38/56/10 96/133/97 55/75/110 30/47/111
f 55/75/110 96/133/97 54/74/96 22/37/112
f 57/79/95 96/133/97 38/56/10 29/46/9
f 56/77/63 97/134/94 59/81/92 20/34/58
f 59/81/92 97/134/94 40/59/93 28/44/89
f 57/78/95 97/134/94 56/77/63 21/35/62
f 58/80/59 98/135/91 61/83/88 19/33/54
f 61/83/88 98/135/91 42/62/90 27/43/85
f 59/81/92 98/135/91 58/80/59 20/34/58
f 60/82/55 99/136/87 47/67/84 18/32/50
f 47/67/84 99/136/87 44/64/86 26/42/81
f 61/83/88 99/136/87 60/82/55 19/33/54
f 62/84/51 100/137/83 48/68/109 17/31/77
f 48/68/109 100/137/83 46/66/82 25/41/106
f 47/67/84 100/137/83 62/84/51 18/32/50
f 85/120/113 101/138/79 51/71/74 13/24/73
f 51/71/74 101/138/79 49/69/78 24/40/102
f 64/86/80 101/138/79 85/120/113 4/4/114
f 53/73/70 102/139/75 50/70/105 23/39/98
f 50/70/105 102/139/75 51/71/74 24/40/102
f 72/98/76 102/139/75 53/73/70 9/16/69
f 83/116/115 103/140/71 52/72/101 22/38/112
f 52/72/101 103/140/71 53/73/70 23/39/98
f 80/110/72 103/140/71 83/116/115 6/12/116
f 54/74/96 104/141/68 83/115/115 22/37/112
f 83/115/115 104/141/68 90/126/67 6/6/116
f 84/118/65 104/141/68 54/74/96 21/36/62
f 79/107/26 105/142/64 76/103/61 10/17/23
f 76/103/61 105/142/64 56/77/63 20/34/58
f 84/117/65 105/142/64 79/107/26 5/14/66
f 71/95/39 106/143/60 68/91/57 14/25/36
f 68/91/57 106/143/60 58/80/59 19/33/54
f 76/103/61 106/143/60 71/95/39 10/17/23
f 86/121/8 107/144/56 63/85/53 3/3/5
f 63/85/53 107/144/56 60/82/55 18/32/50
f 68/91/57 107/144/56 86/121/8 14/25/36
f 91/127/6 108/145/52 64/86/80 4/4/114
f 64/86/80 108/145/52 62/84/51 17/31/77
f 63/85/53 108/145/52 91/127/6 3/3/5
f 73/99/33 109/146/48 75/102/117 12/22/118
f 75/102/117 109/146/48 65/87/47 16/30/119
f 34/52/49 109/146/48 73/99/33 31/49/32
f 66/88/14 110/147/45 75/101/117 16/29/119
f 75/101/117 110/147/45 74/100/44 12/21/118
f 77/105/41 110/147/45 66/88/14 15/28/13
f 42/62/90 111/148/42 45/65/22 27/43/85
f 45/65/22 111/148/42 77/104/41 15/27/13
f 43/63/43 111/148/42 42/62/90 28/44/89
f 78/106/24 112/149/38 72/97/76 9/15/69
f 72/97/76 112/149/38 70/94/37 13/23/73
f 71/96/39 112/149/38 78/106/24 10/18/23
f 39/58/120 113/150/34 81/112/121 8/11/122
f 81/112/121 113/150/34 73/99/33 12/22/118
f 36/54/35 113/150/34 39/58/120 30/48/111
f 74/100/44 114/151/31 81/111/121 12/21/118
f 81/111/121 114/151/31 89/125/30 8/8/122
f 82/114/28 114/151/31 74/100/44 11/20/40
f 40/59/93 115/152/29 43/63/43 28/44/89
f 43/63/43 115/152/29 82/113/28 11/19/40
f 41/60/12 115/152/29 40/59/93 29/45/9
f 90/126/67 116/153/25 80/109/72 6/6/116
f 80/109/72 116/153/25 78/106/24 9/15/69
f 79/108/26 116/153/25 90/126/67 5/5/66
f 44/64/86 117/154/21 88/124/4 26/42/81
f 88/124/4 117/154/21 69/92/16 1/1/1
f 45/65/22 117/154/21 44/64/86 27/43/85
f 33/51/107 118/155/19 65/87/47 32/50/46
f 65/87/47 118/155/19 67/90/18 16/30/119
f 87/123/20 118/155/19 33/51/107 25/41/106
f 92/129/2 119/156/15 67/89/18 2/10/17
f 67/89/18 119/156/15 66/88/14 16/29/119
f 69/93/16 119/156/15 92/129/2 1/9/1
f 89/125/30 120/157/11 39/57/120 8/8/122
f 39/57/120 120/157/11 38/56/10 30/47/111
f 41/61/12 120/157/11 89/125/30 7/7/27
f 70/94/37 121/158/7 85/119/113 13/23/73
f 85/119/113 121/158/7 91/127/6 4/4/114
f 86/122/8 121/158/7 70/94/37 14/26/36
f 46/66/82 122/159/3 87/123/20 25/41/106
f 87/123/20 122/159/3 92/128/2 2/2/17
f 88/124/4 122/159/3 46/66/82 26/42/81
