# This file uses centimeters as units for non-parametric coordinates.

mtllib Ö_34.mtl
v -8.079498 -6.403259 4.798767
v 8.739349 -6.403259 3.465302
v -8.079498 6.361664 4.798767
v 8.739349 6.361664 3.465302
v -8.625565 6.361664 -2.868530
v 7.968719 6.361664 -4.269806
v -8.625565 -6.403259 -2.868530
v 7.968719 -6.403259 -4.269806
v -2.712280 6.422180 5.528656
v -3.107025 6.422180 -3.337494
v -3.107025 -6.445587 -3.337494
v -2.712280 -6.445587 5.528656
v 3.150558 6.422180 5.248138
v 1.995865 6.422180 -3.847473
v 1.995865 -6.445587 -3.847473
v 3.150558 -6.445587 5.248138
v 9.964325 6.422180 -0.561829
v 2.858551 6.500000 0.147614
v -3.135727 6.500000 0.624725
v -9.656540 6.422180 0.965454
v -9.656540 -6.445587 0.965454
v -3.135727 -6.500000 0.624725
v 2.858551 -6.500000 0.147614
v 9.964325 -6.445587 -0.561829
v -8.531876 4.555878 5.174377
v -10.511139 4.555878 1.004456
v -9.183945 4.555878 -3.287323
v -3.094269 4.555878 -3.820984
v 1.873917 4.555878 -4.331635
v 8.459930 4.555878 -4.782623
v 10.902054 4.555878 -0.661560
v 9.256363 4.555878 3.722717
v 3.171799 4.555878 5.914825
v -2.646545 4.555878 6.168762
v -10.511139 -4.740417 1.004456
v -8.531876 -4.740417 5.174377
v -2.646545 -4.740417 6.168762
v 3.171799 -4.740417 5.914825
v 9.256363 -4.740417 3.722717
v 10.902054 -4.740417 -0.661560
v 8.459930 -4.740417 -4.782623
v 1.873917 -4.740417 -4.331635
v -3.094269 -4.740417 -3.820984
v -9.183945 -4.740417 -3.287323
v -10.402588 -4.746765 -1.434753
v -6.350281 -4.752747 -3.830902
v -9.226105 -6.342255 -3.319397
v -0.638153 -4.742798 -3.994781
v -3.083176 -6.353424 -3.853485
v 5.294022 -4.752289 -4.892120
v 1.853455 -6.353302 -4.363708
v 10.246887 -4.747711 -3.089996
v 8.496719 -6.342163 -4.821655
v 10.648422 -4.741852 1.698242
v 11.060654 -0.109680 -0.654297
v 6.471237 -4.743103 5.102905
v 9.345154 -0.106964 3.764191
v 0.244019 -4.741058 6.215149
v 3.122253 -0.109344 5.994415
v -5.828964 -4.744019 5.965363
v -2.552582 -0.115387 6.241150
v -9.989166 -4.743286 3.355743
v -8.599838 -0.106720 5.230377
v -10.579193 -6.350830 1.008118
v -5.828979 4.559540 5.965393
v 0.244019 4.556519 6.215149
v -2.638229 6.249969 6.217651
v 6.471252 4.558594 5.102936
v 3.169464 6.245911 5.966919
v 10.648453 4.557343 1.698242
v 9.298325 6.242126 3.743317
v 10.246979 4.563263 -3.090057
v 10.976852 6.245087 -0.667877
v 5.294052 4.567902 -4.892212
v 8.502747 -0.106110 -4.831482
v -0.638153 4.558319 -3.994781
v 1.714996 -0.110321 -4.296936
v -6.350327 4.568359 -3.830963
v -2.946381 -0.110718 -3.790039
v -10.402649 4.562286 -1.434784
v -9.234955 -0.106110 -3.328491
v -9.989197 4.558807 3.355743
v -10.683762 -0.111969 1.024292
v -8.567978 6.241425 5.204346
v 10.978012 -6.349915 -0.667938
v 6.782959 -6.504700 -0.241608
v 9.769058 -6.448669 1.881744
v -0.185532 -6.500000 0.416534
v 3.061432 -6.504608 2.987976
v -6.759644 -6.504456 0.819519
v -2.920792 -6.504608 3.361450
v -10.578171 6.245941 1.008087
v -9.176697 -6.449005 3.387726
v -6.759552 6.506378 0.819519
v -9.560699 6.427063 -1.491547
v -0.185532 6.500000 0.416534
v -3.157791 6.504333 -1.712128
v 6.782867 6.506714 -0.241608
v 2.415314 6.504333 -2.220428
v 9.328796 6.427490 -3.018982
v 3.169312 -6.350647 5.967560
v 2.415329 -6.503021 -2.220398
v 6.570282 -6.448669 4.485260
v 1.854095 6.248352 -4.363495
v 5.527145 -6.448792 -4.387970
v 3.061447 6.506561 2.987946
v 5.527130 6.426758 -4.387909
v 6.570267 6.426605 4.485260
v -2.638031 -6.354858 6.218201
v -3.157822 -6.503021 -1.712097
v 0.196136 -6.445618 5.540710
v -3.083664 6.248444 -3.853241
v -0.587738 -6.446259 -3.526062
v -2.920822 6.506592 3.361389
v -0.587723 6.423157 -3.526001
v 0.196136 6.422241 5.540710
v 9.328903 -6.449310 -3.019012
v -9.560776 -6.449005 -1.491577
v 8.495941 6.238678 -4.820801
v -9.225189 6.238770 -3.318665
v 9.768997 6.426605 1.881744
v -9.176575 6.427063 3.387695
v 9.299622 -6.345947 3.743927
v -8.569016 -6.345184 5.205170
v -6.452820 -6.448669 -3.316864
v -6.452805 6.426605 -3.316864
v -5.987671 6.426331 5.378021
v -5.987671 -6.448456 5.378052
v -10.464951 -6.353546 -1.454742
v -6.375092 -6.357086 -3.870270
v -0.643311 -6.359497 -4.028809
v 5.310455 -6.356964 -4.936310
v 10.311905 -6.355286 -3.120911
v 10.711838 -6.351410 1.707581
v 6.496567 -6.353302 5.142517
v 0.246597 -6.353333 6.266815
v -5.848358 -6.353271 6.008209
v -10.046906 -6.353455 3.376984
v -5.847885 6.248901 6.007416
v 0.246597 6.248505 6.266205
v 6.496033 6.248993 5.141785
v 10.710464 6.247009 1.707306
v 10.310760 6.251068 -3.120270
v 5.310150 6.252686 -4.935486
v -0.643219 6.254486 -4.028503
v -6.374619 6.252777 -3.869568
v -10.463791 6.249298 -1.454285
v -10.045700 6.249054 3.376434
v 10.339874 -0.107483 -3.150452
v 6.186264 -6.507843 -2.663269
v -0.412994 -6.503418 -1.928467
v -6.673904 -6.507385 -1.580353
v -10.494888 -0.107483 -1.483521
v -6.673828 6.510529 -1.580292
v -0.412994 6.504913 -1.928497
v 6.186188 6.511169 -2.663147
v 6.531540 -0.108337 5.169556
v 6.794312 -6.508850 2.423004
v 5.325104 -0.108582 -4.974030
v 6.794128 6.512604 2.422913
v 0.234573 -0.111847 6.302979
v 0.034042 -6.504791 3.264801
v -0.671356 -0.120728 -3.898071
v 0.034042 6.506836 3.264771
v -10.096329 -0.108276 3.416718
v 10.768860 -0.108032 1.733734
v -6.418579 -6.508514 3.401398
v -6.407349 -0.108917 -3.905670
v -6.418427 6.512177 3.401276
v -5.891342 -0.108673 6.041779
vt 0.375000 0.000000
vt 0.625000 0.000000
vt 0.375000 0.250000
vt 0.625000 0.250000
vt 0.375000 0.500000
vt 0.625000 0.500000
vt 0.375000 0.750000
vt 0.625000 0.750000
vt 0.375000 1.000000
vt 0.625000 1.000000
vt 0.875000 0.000000
vt 0.875000 0.250000
vt 0.125000 0.000000
vt 0.125000 0.250000
vt 0.460938 0.250000
vt 0.460938 0.500000
vt 0.460938 0.750000
vt 0.460938 0.000000
vt 0.460938 1.000000
vt 0.534360 0.250000
vt 0.534360 0.500000
vt 0.534360 0.750000
vt 0.534360 0.000000
vt 0.534360 1.000000
vt 0.625000 0.371699
vt 0.746699 0.250000
vt 0.534360 0.371699
vt 0.460938 0.371699
vt 0.253301 0.250000
vt 0.375000 0.371699
vt 0.253301 0.000000
vt 0.375000 0.878301
vt 0.460938 0.878301
vt 0.534360 0.878301
vt 0.625000 0.878301
vt 0.746699 0.000000
vt 0.375000 0.236699
vt 0.253301 0.236699
vt 0.125000 0.236699
vt 0.375000 0.513301
vt 0.460938 0.513301
vt 0.534360 0.513301
vt 0.625000 0.513301
vt 0.875000 0.236699
vt 0.746699 0.236699
vt 0.625000 0.236699
vt 0.534360 0.236699
vt 0.460938 0.236699
vt 0.253301 0.009302
vt 0.375000 0.009302
vt 0.460938 0.009302
vt 0.534360 0.009302
vt 0.625000 0.009302
vt 0.746699 0.009302
vt 0.625000 0.740698
vt 0.875000 0.009302
vt 0.534360 0.740698
vt 0.460938 0.740698
vt 0.125000 0.009302
vt 0.375000 0.740698
vt 0.189150 0.009302
vt 0.417969 0.740698
vt 0.125000 0.004651
vt 0.375000 0.745349
vt 0.497649 0.740698
vt 0.460938 0.745349
vt 0.579680 0.740698
vt 0.534360 0.745349
vt 0.810850 0.009302
vt 0.625000 0.745349
vt 0.875000 0.004651
vt 0.685850 0.009302
vt 0.746699 0.123001
vt 0.579680 0.009302
vt 0.625000 0.123001
vt 0.497649 0.009302
vt 0.534360 0.123001
vt 0.417969 0.009302
vt 0.460938 0.123001
vt 0.314150 0.009302
vt 0.375000 0.123001
vt 0.253301 0.004651
vt 0.417969 0.236699
vt 0.497649 0.236699
vt 0.460938 0.243350
vt 0.579680 0.236699
vt 0.534360 0.243350
vt 0.685850 0.236699
vt 0.625000 0.243350
vt 0.810850 0.236699
vt 0.746699 0.243350
vt 0.579680 0.513301
vt 0.625000 0.626999
vt 0.875000 0.123001
vt 0.497649 0.513301
vt 0.534360 0.626999
vt 0.417969 0.513301
vt 0.460938 0.626999
vt 0.189150 0.236699
vt 0.125000 0.123001
vt 0.375000 0.626999
vt 0.314150 0.236699
vt 0.253301 0.123001
vt 0.375000 0.243350
vt 0.746699 0.004651
vt 0.579680 0.878301
vt 0.625000 0.939150
vt 0.685850 0.000000
vt 0.497649 0.878301
vt 0.534360 0.939150
vt 0.417969 0.878301
vt 0.460938 0.939150
vt 0.253301 0.243350
vt 0.314150 0.000000
vt 0.375000 0.939150
vt 0.417969 0.371699
vt 0.189150 0.250000
vt 0.375000 0.435850
vt 0.497649 0.371699
vt 0.460938 0.435850
vt 0.579680 0.371699
vt 0.534360 0.435850
vt 0.625000 0.435850
vt 0.810850 0.250000
vt 0.534360 0.004651
vt 0.534360 0.814150
vt 0.579680 0.000000
vt 0.579680 1.000000
vt 0.534360 0.506650
vt 0.579680 0.750000
vt 0.534360 0.310850
vt 0.579680 0.500000
vt 0.579680 0.250000
vt 0.460938 0.004651
vt 0.460938 0.814150
vt 0.497649 0.000000
vt 0.497649 1.000000
vt 0.460938 0.506650
vt 0.497649 0.750000
vt 0.460938 0.310850
vt 0.497649 0.500000
vt 0.497649 0.250000
vt 0.625000 0.814150
vt 0.810850 0.000000
vt 0.189150 0.000000
vt 0.375000 0.814150
vt 0.625000 0.506650
vt 0.875000 0.243350
vt 0.125000 0.243350
vt 0.375000 0.506650
vt 0.625000 0.310850
vt 0.685850 0.250000
vt 0.314150 0.250000
vt 0.375000 0.310850
vt 0.625000 0.004651
vt 0.375000 0.004651
vt 0.417969 0.750000
vt 0.417969 0.500000
vt 0.417969 0.250000
vt 0.417969 0.000000
vt 0.417969 1.000000
vt 0.189150 0.004651
vt 0.417969 0.745349
vt 0.497649 0.745349
vt 0.579680 0.745349
vt 0.810850 0.004651
vt 0.685850 0.004651
vt 0.579680 0.004651
vt 0.497649 0.004651
vt 0.417969 0.004651
vt 0.314150 0.004651
vt 0.417969 0.243350
vt 0.497649 0.243350
vt 0.579680 0.243350
vt 0.685850 0.243350
vt 0.810850 0.243350
vt 0.579680 0.506650
vt 0.497649 0.506650
vt 0.417969 0.506650
vt 0.189150 0.243350
vt 0.314150 0.243350
vt 0.810850 0.123001
vt 0.579680 0.814150
vt 0.497649 0.814150
vt 0.417969 0.814150
vt 0.189150 0.123001
vt 0.417969 0.435850
vt 0.497649 0.435850
vt 0.579680 0.435850
vt 0.579680 0.123001
vt 0.579680 0.939150
vt 0.579680 0.626999
vt 0.579680 0.310850
vt 0.497649 0.123001
vt 0.497649 0.939150
vt 0.497649 0.626999
vt 0.497649 0.310850
vt 0.314150 0.123001
vt 0.685850 0.123001
vt 0.417969 0.939150
vt 0.417969 0.626999
vt 0.417969 0.310850
vt 0.417969 0.123001
vn -0.529662 -0.007451 0.848176
vn -0.165494 -0.005280 0.986197
vn -0.166446 0.000006 0.986050
vn -0.531336 0.000008 0.847161
vn -0.067717 0.991115 0.114480
vn -0.019354 0.994907 0.098919
vn -0.012584 0.999741 0.018949
vn -0.072823 0.996601 0.038504
vn -0.507901 0.004623 -0.861403
vn -0.081163 0.000894 -0.996700
vn -0.080882 -0.000007 -0.996724
vn -0.510160 0.000005 -0.860080
vn -0.042958 -0.999072 0.003274
vn -0.008955 -0.999960 0.000404
vn -0.008802 -0.999873 0.013257
vn -0.042298 -0.998848 0.022674
vn 0.629868 -0.007648 0.776665
vn 0.934289 -0.010457 0.356363
vn 0.934334 0.000002 0.356399
vn 0.631836 0.000004 0.775102
vn -0.996385 -0.012181 0.084077
vn -0.900455 -0.010990 0.434811
vn -0.899641 0.000010 0.436631
vn -0.996500 -0.000034 0.083589
vn -0.001677 0.995800 0.091542
vn 0.004386 0.996058 0.088591
vn 0.000837 0.999879 0.015548
vn 0.000700 0.999873 0.015898
vn -0.016724 0.007695 -0.999831
vn -0.014388 -0.000019 -0.999897
vn -0.104820 0.000035 -0.994491
vn -0.104594 0.014862 -0.994404
vn -0.000809 -0.998554 0.053744
vn 0.000488 -0.999938 0.011119
vn 0.000583 -0.999941 0.010873
vn 0.002654 -0.998646 0.051950
vn -0.042050 0.004492 0.999106
vn -0.041568 -0.000018 0.999136
vn 0.043410 0.000002 0.999057
vn 0.043525 0.004479 0.999042
vn 0.014552 0.995739 0.091064
vn 0.034933 0.995026 0.093294
vn 0.014680 0.999748 0.016958
vn 0.001518 0.999876 0.015660
vn -0.160099 0.005723 -0.987084
vn -0.162957 -0.000015 -0.986633
vn -0.072953 -0.000007 -0.997335
vn -0.072840 -0.001563 -0.997342
vn 0.008403 -0.998523 0.053682
vn 0.001059 -0.999940 0.010952
vn 0.010271 -0.999877 0.011863
vn 0.020644 -0.998283 0.054823
vn 0.176960 0.004289 0.984209
vn 0.175931 0.000002 0.984403
vn 0.338636 -0.000003 0.940918
vn 0.338157 0.005177 0.941076
vn -0.000993 1.000000 -0.000265
vn 0.011894 0.999928 -0.001448
vn 0.008987 0.999730 -0.021414
vn -0.003221 0.999832 -0.018052
vn 0.000920 1.000000 -0.000464
vn -0.000017 1.000000 -0.000451
vn -0.001745 0.999834 -0.018145
vn 0.000069 0.999828 -0.018544
vn -0.073320 0.997292 0.005695
vn -0.012808 0.999918 0.000575
vn -0.013056 0.999722 -0.019614
vn -0.075109 0.996721 -0.030110
vn -0.507909 -0.004527 -0.861399
vn -0.952963 -0.007994 -0.302983
vn -0.951945 0.000011 -0.306270
vn -0.037322 -0.997036 -0.067277
vn -0.010831 -0.997685 -0.067137
vn -0.009131 -0.999864 -0.013720
vn -0.043344 -0.998896 -0.018121
vn -0.000698 -1.000000 -0.000189
vn -0.000013 -1.000000 -0.000320
vn -0.001220 -0.999919 -0.012690
vn -0.002257 -0.999918 -0.012623
vn 0.040044 -0.999192 -0.003504
vn 0.008317 -0.999965 -0.001013
vn 0.006285 -0.999868 -0.014979
vn 0.035827 -0.999031 -0.025584
vn 0.996297 0.010448 -0.085336
vn 0.996375 -0.000018 -0.085070
vn 0.856490 -0.000001 -0.516164
vn 0.857303 0.006882 -0.514767
vn -0.996382 0.012142 0.084115
vn -0.900520 0.010997 0.434675
vn -0.854936 0.331878 0.398676
vn -0.919778 0.384430 0.078879
vn -0.953020 0.008045 -0.302801
vn -0.899642 0.340869 -0.272859
vn -0.502885 0.220218 -0.835829
vn -0.062903 0.991294 -0.115673
vn -0.017102 0.993196 -0.115192
vn -0.084271 0.241810 -0.966657
vn -0.159969 -0.005548 -0.987107
vn -0.104571 -0.014520 -0.994411
vn -0.098914 0.256938 -0.961353
vn -0.144212 0.262415 -0.954118
vn 0.340427 0.004368 -0.940261
vn -0.072808 0.001645 -0.997345
vn -0.067102 0.249176 -0.966131
vn 0.339514 0.228712 -0.912371
vn 0.068414 0.997639 -0.006017
vn 0.911386 0.404428 -0.076243
vn 0.806357 0.359776 -0.469414
vn 0.062340 0.997106 -0.043513
vn 0.629905 0.007706 0.776634
vn 0.934320 0.010490 0.356282
vn 0.880222 0.349355 0.321187
vn 0.620798 0.217399 0.753225
vn 0.166062 0.315274 0.934359
vn 0.323154 0.277870 0.904632
vn -0.038564 0.318139 0.947259
vn 0.041353 0.326310 0.944358
vn -0.529692 0.007512 0.848157
vn -0.165447 0.005316 0.986204
vn -0.158254 0.276261 0.947964
vn -0.522585 0.217037 0.824500
vn -0.845459 -0.356598 0.397539
vn -0.907113 -0.413594 0.078006
vn -0.040084 -0.996940 0.067118
vn -0.011690 -0.998250 0.057965
vn -0.158514 -0.298807 0.941057
vn -0.519443 -0.232437 0.822285
vn 0.176992 -0.004260 0.984203
vn 0.043568 -0.004468 0.999040
vn 0.040833 -0.352833 0.934795
vn 0.164909 -0.341033 0.925474
vn 0.338142 -0.005131 0.941081
vn 0.322384 -0.300619 0.897606
vn 0.617203 -0.233077 0.751489
vn 0.048735 -0.996865 0.062332
vn 0.042034 -0.998967 0.017292
vn 0.869638 -0.374873 0.321248
vn 0.340422 -0.004267 -0.940263
vn 0.857242 -0.006797 -0.514868
vn 0.795859 -0.385447 -0.466946
vn 0.336120 -0.244610 -0.909500
vn -0.009428 -0.997851 -0.064848
vn -0.143433 -0.285473 -0.947593
vn -0.066072 -0.269597 -0.960704
vn -0.000071 -0.997831 -0.065826
vn -0.002006 -0.997798 -0.066302
vn -0.027520 -0.283651 -0.958533
vn -0.098325 -0.279876 -0.954988
vn -0.006531 -0.997801 -0.065962
vn -0.081115 -0.000807 -0.996704
vn -0.084276 -0.261640 -0.961479
vn -0.499134 -0.235273 -0.833974
vn -0.889963 -0.365590 -0.272598
vn 0.023777 -0.997131 -0.071872
vn 0.897801 -0.433982 -0.074914
vn 0.996293 -0.010430 -0.085385
vn -0.038537 -0.344600 0.937958
vn -0.042065 -0.004477 0.999105
vn 0.082077 0.990946 0.106249
vn 0.071992 0.996967 0.029563
vn 0.039647 0.991628 -0.122889
vn -0.001330 0.993646 -0.112545
vn -0.016131 0.993736 -0.110585
vn -0.011204 0.993576 -0.112612
vn -0.027862 0.260349 -0.965112
vn -0.003399 0.993598 -0.112923
vn -0.016903 -0.007492 -0.999829
vn 0.342678 0.000002 -0.939453
vn 0.000051 -0.999916 -0.012968
vn 0.000644 -1.000000 -0.000325
s 1
usemtl initialShadingGroup
f 36/50/1 60/78/2 170/203/3 63/81/4
f 3/3/5 127/159/6 169/202/7 122/154/8
f 27/40/9 78/97/10 168/201/11 81/101/12
f 21/32/13 90/111/14 167/200/15 93/115/16
f 39/53/17 54/72/18 166/199/19 57/75/20
f 35/49/21 62/80/22 165/198/23 83/103/24
f 9/15/25 116/142/26 164/197/27 114/140/28
f 43/58/29 79/98/30 163/196/31 48/65/32
f 12/19/33 91/112/34 162/195/35 111/137/36
f 34/48/37 61/79/38 161/194/39 66/84/40
f 13/20/41 108/133/42 160/193/43 106/131/44
f 42/57/45 77/96/46 159/192/47 50/67/48
f 16/24/49 89/110/50 158/191/51 103/128/52
f 33/47/53 59/77/54 157/190/55 68/86/56
f 18/27/57 98/121/58 156/189/59 99/122/60
f 19/28/61 96/119/62 155/188/63 97/120/64
f 20/30/65 94/116/66 154/187/67 95/118/68
f 44/59/69 45/61/70 153/186/71 81/100/12
f 7/7/72 125/157/73 152/185/74 118/146/75
f 23/34/76 88/109/77 151/184/78 102/126/79
f 24/35/80 86/106/81 150/183/82 117/143/83
f 31/45/84 55/73/85 149/182/86 72/90/87
f 26/38/88 82/102/89 148/181/90 92/113/91
f 27/39/9 80/99/92 147/180/93 120/149/94
f 5/5/95 126/158/96 146/179/97 120/150/94
f 29/42/98 76/95/99 145/178/100 104/129/101
f 30/43/102 74/92/103 144/177/104 119/147/105
f 17/26/106 73/91/107 143/176/108 100/124/109
f 32/46/110 70/88/111 142/175/112 71/89/113
f 13/20/41 69/87/114 141/174/115 108/133/42
f 9/15/25 67/85/116 140/173/117 116/142/26
f 25/37/118 65/83/119 139/172/120 84/104/121
f 21/31/13 93/114/16 138/171/122 64/82/123
f 1/1/124 128/160/125 137/170/126 124/156/127
f 38/52/128 58/76/129 136/169/130 101/125/131
f 39/53/17 56/74/132 135/168/133 123/155/134
f 2/2/135 87/108/136 134/167/137 123/155/134
f 41/56/138 52/69/139 133/166/140 53/71/141
f 15/22/142 51/68/143 132/165/144 105/130/145
f 11/17/146 49/66/147 131/164/148 113/139/149
f 44/60/69 46/62/150 130/163/151 47/64/152
f 7/13/72 118/145/75 129/162/153 47/63/152
f 45/61/70 129/162/153 64/82/123 35/49/21
f 64/82/123 129/162/153 118/145/75 21/31/13
f 47/63/152 129/162/153 45/61/70 44/59/69
f 125/157/73 130/163/151 49/66/147 11/17/146
f 49/66/147 130/163/151 46/62/150 43/58/29
f 47/64/152 130/163/151 125/157/73 7/7/72
f 51/68/143 131/164/148 48/65/32 42/57/45
f 48/65/32 131/164/148 49/66/147 43/58/29
f 113/139/149 131/164/148 51/68/143 15/22/142
f 53/70/141 132/165/144 50/67/48 41/55/138
f 50/67/48 132/165/144 51/68/143 42/57/45
f 105/130/145 132/165/144 53/70/141 8/8/154
f 117/144/83 133/166/140 85/105/155 24/36/80
f 85/105/155 133/166/140 52/69/139 40/54/156
f 53/71/141 133/166/140 117/144/83 8/11/154
f 54/72/18 134/167/137 85/105/155 40/54/156
f 85/105/155 134/167/137 87/108/136 24/36/80
f 123/155/134 134/167/137 54/72/18 39/53/17
f 103/127/52 135/168/133 101/125/131 16/23/49
f 101/125/131 135/168/133 56/74/132 38/52/128
f 123/155/134 135/168/133 103/127/52 2/2/135
f 111/136/36 136/169/130 109/134/157 12/18/33
f 109/134/157 136/169/130 58/76/129 37/51/158
f 101/125/131 136/169/130 111/136/36 16/23/49
f 60/78/2 137/170/126 109/134/157 37/51/158
f 109/134/157 137/170/126 128/160/125 12/18/33
f 124/156/127 137/170/126 60/78/2 36/50/1
f 62/80/22 138/171/122 124/156/127 36/50/1
f 124/156/127 138/171/122 93/114/16 1/1/124
f 64/82/123 138/171/122 62/80/22 35/49/21
f 127/159/6 139/172/120 67/85/116 9/15/25
f 67/85/116 139/172/120 65/83/119 34/48/37
f 84/104/121 139/172/120 127/159/6 3/3/5
f 69/87/114 140/173/117 66/84/40 33/47/53
f 66/84/40 140/173/117 67/85/116 34/48/37
f 116/142/26 140/173/117 69/87/114 13/20/41
f 71/89/113 141/174/115 68/86/56 32/46/110
f 68/86/56 141/174/115 69/87/114 33/47/53
f 108/133/42 141/174/115 71/89/113 4/4/159
f 121/152/160 142/175/112 73/91/107 17/26/106
f 73/91/107 142/175/112 70/88/111 31/45/84
f 71/89/113 142/175/112 121/152/160 4/4/159
f 119/148/105 143/176/108 72/90/87 30/44/102
f 72/90/87 143/176/108 73/91/107 31/45/84
f 100/124/109 143/176/108 119/148/105 6/12/161
f 107/132/162 144/177/104 104/129/101 14/21/163
f 104/129/101 144/177/104 74/92/103 29/42/98
f 119/147/105 144/177/104 107/132/162 6/6/161
f 115/141/164 145/178/100 112/138/165 10/16/166
f 112/138/165 145/178/100 76/95/99 28/41/167
f 104/129/101 145/178/100 115/141/164 14/21/163
f 78/97/10 146/179/97 112/138/165 28/41/167
f 112/138/165 146/179/97 126/158/96 10/16/166
f 120/150/94 146/179/97 78/97/10 27/40/9
f 95/117/68 147/180/93 92/113/91 20/29/65
f 92/113/91 147/180/93 80/99/92 26/38/88
f 120/149/94 147/180/93 95/117/68 5/14/95
f 122/153/8 148/181/90 84/104/121 3/3/5
f 84/104/121 148/181/90 82/102/89 25/37/118
f 92/113/91 148/181/90 122/153/8 20/29/65
f 75/94/168 149/182/86 52/69/139 41/56/138
f 52/69/139 149/182/86 55/73/85 40/54/156
f 72/90/87 149/182/86 75/94/168 30/44/102
f 105/130/145 150/183/82 102/126/79 15/22/142
f 102/126/79 150/183/82 86/106/81 23/34/76
f 117/143/83 150/183/82 105/130/145 8/8/154
f 113/139/149 151/184/78 110/135/169 11/17/146
f 110/135/169 151/184/78 88/109/77 22/33/170
f 102/126/79 151/184/78 113/139/149 15/22/142
f 90/111/14 152/185/74 110/135/169 22/33/170
f 110/135/169 152/185/74 125/157/73 11/17/146
f 118/146/75 152/185/74 90/111/14 21/32/13
f 80/99/92 153/186/71 83/103/24 26/38/88
f 83/103/24 153/186/71 45/61/70 35/49/21
f 81/100/12 153/186/71 80/99/92 27/39/9
f 126/158/96 154/187/67 97/120/64 10/16/166
f 97/120/64 154/187/67 94/116/66 19/28/61
f 95/118/68 154/187/67 126/158/96 5/5/95
f 115/141/164 155/188/63 99/122/60 14/21/163
f 99/122/60 155/188/63 96/119/62 18/27/57
f 97/120/64 155/188/63 115/141/164 10/16/166
f 107/132/162 156/189/59 100/123/109 6/6/161
f 100/123/109 156/189/59 98/121/58 17/25/106
f 99/122/60 156/189/59 107/132/162 14/21/163
f 57/75/20 157/190/55 56/74/132 39/53/17
f 56/74/132 157/190/55 59/77/54 38/52/128
f 68/86/56 157/190/55 57/75/20 32/46/110
f 87/107/136 158/191/51 86/106/81 24/35/80
f 86/106/81 158/191/51 89/110/50 23/34/76
f 103/128/52 158/191/51 87/107/136 2/10/135
f 75/93/168 159/192/47 74/92/103 30/43/102
f 74/92/103 159/192/47 77/96/46 29/42/98
f 50/67/48 159/192/47 75/93/168 41/55/138
f 98/121/58 160/193/43 121/151/160 17/25/106
f 121/151/160 160/193/43 108/133/42 4/4/159
f 106/131/44 160/193/43 98/121/58 18/27/57
f 59/77/54 161/194/39 58/76/129 38/52/128
f 58/76/129 161/194/39 61/79/38 37/51/158
f 66/84/40 161/194/39 59/77/54 33/47/53
f 89/110/50 162/195/35 88/109/77 23/34/76
f 88/109/77 162/195/35 91/112/34 22/33/170
f 111/137/36 162/195/35 89/110/50 16/24/49
f 77/96/46 163/196/31 76/95/99 29/42/98
f 76/95/99 163/196/31 79/98/30 28/41/167
f 48/65/32 163/196/31 77/96/46 42/57/45
f 96/119/62 164/197/27 106/131/44 18/27/57
f 106/131/44 164/197/27 116/142/26 13/20/41
f 114/140/28 164/197/27 96/119/62 19/28/61
f 82/102/89 165/198/23 63/81/4 25/37/118
f 63/81/4 165/198/23 62/80/22 36/50/1
f 83/103/24 165/198/23 82/102/89 26/38/88
f 70/88/111 166/199/19 55/73/85 31/45/84
f 55/73/85 166/199/19 54/72/18 40/54/156
f 57/75/20 166/199/19 70/88/111 32/46/110
f 128/161/125 167/200/15 91/112/34 12/19/33
f 91/112/34 167/200/15 90/111/14 22/33/170
f 93/115/16 167/200/15 128/161/125 1/9/124
f 46/62/150 168/201/11 79/98/30 43/58/29
f 79/98/30 168/201/11 78/97/10 28/41/167
f 81/101/12 168/201/11 46/62/150 44/60/69
f 94/116/66 169/202/7 114/140/28 19/28/61
f 114/140/28 169/202/7 127/159/6 9/15/25
f 122/154/8 169/202/7 94/116/66 20/30/65
f 65/83/119 170/203/3 61/79/38 34/48/37
f 61/79/38 170/203/3 60/78/2 37/51/158
f 63/81/4 170/203/3 65/83/119 25/37/118
