# This file uses centimeters as units for non-parametric coordinates.

mtllib TungaPeppe02.mtl
g default
v -0.003374 0.212277 -0.102647
v -0.003486 0.221595 -0.102117
v 0.006336 0.221522 -0.101724
v 0.006006 0.212280 -0.102727
v -0.006108 0.236496 -0.097431
v 0.009477 0.236026 -0.096703
v -0.018609 0.207213 -0.100601
v -0.018819 0.221823 -0.101142
v 0.008414 0.197423 -0.102262
v -0.004595 0.197010 -0.102156
v 0.021050 0.221525 -0.100107
v 0.020885 0.210908 -0.101396
v 0.018739 0.230518 -0.098073
v -0.015820 0.231710 -0.099013
v -0.012954 0.199175 -0.101344
v 0.017551 0.202394 -0.101865
v -0.009361 0.245125 -0.077701
v 0.012228 0.243989 -0.076739
v -0.027821 0.237939 -0.080222
v -0.035136 0.220062 -0.089531
v -0.033084 0.205978 -0.090491
v -0.023975 0.190195 -0.089820
v -0.007817 0.183477 -0.091107
v 0.010801 0.183893 -0.092445
v 0.026196 0.190956 -0.093281
v 0.035386 0.205107 -0.091689
v 0.035911 0.222414 -0.088689
v 0.029664 0.236159 -0.081959
v -0.011755 0.244912 -0.056755
v 0.012077 0.244854 -0.056800
v -0.029059 0.238488 -0.062525
v -0.040509 0.222729 -0.067762
v -0.040026 0.203124 -0.068822
v -0.030186 0.187858 -0.069729
v -0.009454 0.180150 -0.069562
v 0.014568 0.180769 -0.071404
v 0.032937 0.190616 -0.071334
v 0.041023 0.206608 -0.073178
v 0.040343 0.223130 -0.069735
v 0.031525 0.237289 -0.063243
v -0.013397 0.239136 -0.021424
v 0.010252 0.240586 -0.021317
v -0.029189 0.230913 -0.020996
v -0.037713 0.215931 -0.023179
v -0.036083 0.200721 -0.022416
v -0.027928 0.190007 -0.024366
v -0.010230 0.183752 -0.024458
v 0.009772 0.184421 -0.025376
v 0.025587 0.191940 -0.025435
v 0.037234 0.204792 -0.024970
v 0.040128 0.219373 -0.024746
v 0.029613 0.233335 -0.024159
v -0.013799 0.237528 0.044822
v 0.009719 0.239498 0.044935
v -0.030198 0.230495 0.045240
v -0.039049 0.214870 0.043071
v -0.035539 0.200466 0.043838
v -0.026791 0.192039 0.041734
v -0.010269 0.186017 0.041726
v 0.008722 0.185737 0.040920
v 0.024124 0.192188 0.040854
v 0.035934 0.204264 0.041296
v 0.040748 0.218252 0.041531
v 0.029715 0.233350 0.042056
v -0.011431 0.234815 0.088247
v 0.010191 0.238511 0.088561
v -0.027458 0.228026 0.087669
v -0.036654 0.211807 0.085764
v -0.032935 0.201137 0.084944
v -0.021790 0.191541 0.083761
v -0.008019 0.186527 0.083644
v 0.007924 0.185825 0.082821
v 0.021936 0.190266 0.082939
v 0.036912 0.203668 0.084423
v 0.039930 0.218695 0.084625
v 0.030151 0.233502 0.087330
v -0.003357 0.217766 0.115901
v -0.001303 0.206466 0.116235
v 0.009655 0.207365 0.116034
v 0.008608 0.219085 0.116330
v 0.008448 0.229066 0.112580
v -0.005896 0.228138 0.111583
v -0.014561 0.217337 0.115270
v -0.012577 0.206189 0.115867
v -0.000821 0.194944 0.114578
v 0.010810 0.196013 0.113688
v 0.020409 0.219355 0.115300
v 0.021298 0.207695 0.115365
v 0.018460 0.226541 0.112806
v 0.019713 0.199633 0.112767
v -0.013296 0.224572 0.113190
v -0.008850 0.198456 0.115241
v -0.008794 0.232668 0.101717
v 0.009333 0.235082 0.102522
v 0.025380 0.231837 0.102826
v 0.034677 0.220230 0.104885
v 0.034555 0.203378 0.104841
v 0.022873 0.192436 0.100717
v 0.010248 0.187790 0.101017
v -0.004642 0.187472 0.101979
v -0.017752 0.190759 0.103647
v -0.028222 0.200339 0.106814
v -0.031440 0.215505 0.106953
v -0.020996 0.227560 0.102775
v -0.012737 0.236784 0.067751
v -0.029490 0.230010 0.067693
v -0.038839 0.213373 0.065646
v -0.034640 0.200521 0.065532
v -0.024098 0.191874 0.063876
v -0.009104 0.186178 0.063818
v 0.008400 0.185178 0.063000
v 0.023167 0.190860 0.063028
v 0.036365 0.204000 0.064023
v 0.040432 0.218506 0.064240
v 0.030145 0.233712 0.065915
v 0.010022 0.239720 0.067944
v -0.013597 0.237682 0.025294
v -0.029611 0.230303 0.025719
v -0.038563 0.215167 0.023548
v -0.035559 0.200612 0.024312
v -0.027193 0.191339 0.022257
v -0.010214 0.185601 0.022213
v 0.008921 0.185866 0.021369
v 0.024256 0.192540 0.021309
v 0.035997 0.204602 0.021764
v 0.041166 0.218691 0.021999
v 0.029366 0.232906 0.022539
v 0.009814 0.239323 0.025402
v -0.013363 0.237853 0.003032
v -0.029163 0.230328 0.003469
v -0.037763 0.215457 0.001297
v -0.035549 0.200782 0.002056
v -0.027593 0.190633 0.000056
v -0.010198 0.184872 -0.000019
v 0.009284 0.185361 -0.000899
v 0.024653 0.192585 -0.000963
v 0.036431 0.204780 -0.000495
v 0.040957 0.219073 -0.000263
v 0.029149 0.232642 0.000294
v 0.009956 0.239442 0.003141
v -0.012768 0.240722 -0.033240
v -0.028758 0.233008 -0.034904
v -0.038625 0.218191 -0.038028
v -0.037459 0.201499 -0.037865
v -0.028569 0.189437 -0.039484
v -0.009952 0.182674 -0.039488
v 0.011273 0.183583 -0.040742
v 0.027724 0.191862 -0.040770
v 0.038788 0.205287 -0.041003
v 0.040134 0.220608 -0.039732
v 0.030135 0.234510 -0.037193
v 0.010820 0.241785 -0.033164
v -0.012404 0.242118 -0.041394
v -0.028830 0.234868 -0.044478
v -0.039703 0.219877 -0.048281
v -0.039037 0.201825 -0.048540
v -0.029380 0.188564 -0.049932
v -0.009823 0.181526 -0.049881
v 0.012397 0.182673 -0.051369
v 0.029426 0.191546 -0.051373
v 0.040233 0.205528 -0.052097
v 0.040727 0.221625 -0.050092
v 0.030764 0.235650 -0.046191
v 0.011259 0.242870 -0.041347
vt 0.906507 0.656692
vt 0.892193 0.629646
vt 0.918908 0.615819
vt 0.931928 0.642759
vt 0.828973 0.576114
vt 0.823921 0.517182
vt 0.871930 0.693900
vt 0.852214 0.650746
vt 0.856331 0.267341
vt 0.843547 0.313910
vt 0.832958 0.392951
vt 0.826921 0.435826
vt 0.821143 0.474641
vt 0.840343 0.616274
vt 0.865017 0.238332
vt 0.835025 0.354630
vt 0.763145 0.587318
vt 0.753883 0.527539
vt 0.771887 0.641250
vt 0.806073 0.686727
vt 0.824242 0.721783
vt 0.820760 0.185808
vt 0.805150 0.237402
vt 0.795349 0.291131
vt 0.788030 0.336919
vt 0.780200 0.382045
vt 0.774251 0.430235
vt 0.759831 0.472950
vt 0.698472 0.603034
vt 0.692389 0.536126
vt 0.719812 0.651543
vt 0.742042 0.702280
vt 0.759718 0.755761
vt 0.751312 0.147914
vt 0.737213 0.212873
vt 0.730182 0.280735
vt 0.722261 0.337660
vt 0.725244 0.386420
vt 0.717081 0.430828
vt 0.703889 0.477227
vt 0.592740 0.624395
vt 0.586652 0.547930
vt 0.595656 0.682490
vt 0.606852 0.737963
vt 0.608995 0.787044
vt 0.619021 0.829054
vt 0.585684 0.200773
vt 0.587515 0.263576
vt 0.587117 0.319431
vt 0.586235 0.375243
vt 0.587095 0.423650
vt 0.589734 0.480612
vt 0.394931 0.629852
vt 0.394162 0.556759
vt 0.391514 0.684910
vt 0.393023 0.741068
vt 0.383835 0.786683
vt 0.384343 0.824551
vt 0.363040 0.221759
vt 0.376004 0.279654
vt 0.384689 0.331404
vt 0.391395 0.384333
vt 0.396684 0.431037
vt 0.399548 0.490582
vt 0.262488 0.618288
vt 0.262716 0.555414
vt 0.264849 0.668738
vt 0.262095 0.725095
vt 0.250687 0.756295
vt 0.229520 0.797982
vt 0.226453 0.262526
vt 0.243574 0.306697
vt 0.255741 0.347584
vt 0.267030 0.404303
vt 0.274842 0.447302
vt 0.269406 0.497935
vt 0.105968 0.621890
vt 0.136406 0.642131
vt 0.114040 0.672304
vt 0.085572 0.653411
vt 0.182584 0.550721
vt 0.183078 0.604718
vt 0.164669 0.658996
vt 0.143078 0.689009
vt 0.151776 0.366322
vt 0.135243 0.329124
vt 0.160738 0.435716
vt 0.168867 0.482157
vt 0.182904 0.509807
vt 0.165222 0.399184
vt 0.176893 0.636710
vt 0.125677 0.708128
vt 0.218504 0.610234
vt 0.217987 0.553638
vt 0.221929 0.506112
vt 0.216738 0.464323
vt 0.209803 0.418294
vt 0.204889 0.372660
vt 0.191336 0.336327
vt 0.173010 0.295796
vt 0.161727 0.760019
vt 0.187432 0.728748
vt 0.206981 0.691732
vt 0.217444 0.648811
vt 0.325997 0.624332
vt 0.324374 0.678023
vt 0.322311 0.736100
vt 0.311538 0.776083
vt 0.277882 0.192230
vt 0.290167 0.240021
vt 0.305772 0.290967
vt 0.316643 0.337521
vt 0.325263 0.393105
vt 0.331961 0.438447
vt 0.331147 0.494376
vt 0.325723 0.556962
vt 0.453235 0.630390
vt 0.451269 0.686897
vt 0.455467 0.743252
vt 0.450097 0.790170
vt 0.454559 0.829255
vt 0.428523 0.212864
vt 0.438463 0.272434
vt 0.444493 0.325480
vt 0.448943 0.379489
vt 0.452678 0.428156
vt 0.455424 0.488011
vt 0.450943 0.554983
vt 0.519700 0.628950
vt 0.520080 0.686364
vt 0.527548 0.742251
vt 0.525819 0.789836
vt 0.498850 0.148456
vt 0.503238 0.205485
vt 0.509620 0.266855
vt 0.512613 0.321397
vt 0.514512 0.376567
vt 0.516633 0.425653
vt 0.519332 0.484814
vt 0.515510 0.552283
vt 0.627960 0.617904
vt 0.637653 0.673461
vt 0.653623 0.728260
vt 0.661138 0.780261
vt 0.673875 0.826269
vt 0.636664 0.201435
vt 0.635891 0.266744
vt 0.632848 0.323663
vt 0.632565 0.377809
vt 0.630636 0.425843
vt 0.627497 0.479541
vt 0.621357 0.544360
vt 0.652313 0.613029
vt 0.666461 0.666309
vt 0.684958 0.720487
vt 0.696436 0.773784
vt 0.678816 0.140729
vt 0.671892 0.203487
vt 0.669017 0.270184
vt 0.664149 0.327438
vt 0.664604 0.380072
vt 0.660385 0.427464
vt 0.653804 0.478838
vt 0.645656 0.541721
vt 0.713098 0.822617
vt 0.640202 0.140500
vt 0.585315 0.142348
vt 0.533010 0.830248
vt 0.421058 0.157552
vt 0.353232 0.168580
vt 0.302702 0.817160
vt 0.211662 0.219839
vt 0.151410 0.259765
vt 0.118128 0.306321
vt 0.097343 0.704855
vt 0.162321 0.615912
vt 0.045729 0.661135
vt 0.054303 0.635134
vt 0.065741 0.684327
vt 0.091302 0.585017
vt 0.123057 0.592854
vt 0.074348 0.603499
vt 0.785436 0.803719
vt 0.854782 0.764908
vt 0.896249 0.710563
vt 0.974474 0.624409
vt 0.977704 0.653460
vt 0.959424 0.681284
vt 0.923470 0.702755
vt 0.860349 0.589917
vt 0.904550 0.568710
vt 0.938887 0.571295
vt 0.959077 0.593839
vn -0.057359 0.000112 -0.998354
vn -0.015802 0.178771 -0.983764
vn 0.064154 0.221224 -0.973111
vn 0.044704 0.033526 -0.998438
vn -0.079531 0.788569 -0.609782
vn 0.152124 0.787874 -0.596752
vn -0.432582 -0.137517 -0.891045
vn -0.447847 0.236285 -0.862324
vn -0.108005 -0.419138 -0.901476
vn 0.079197 -0.403003 -0.911766
vn 0.418214 0.002329 -0.908346
vn 0.440050 0.262685 -0.858692
vn 0.368470 0.619586 -0.693068
vn -0.376976 0.617944 -0.689952
vn -0.328443 -0.355107 -0.875228
vn 0.303053 -0.255976 -0.917952
vn -0.128049 0.970729 -0.203194
vn 0.187733 0.963514 -0.190782
vn -0.595470 0.746220 -0.297610
vn -0.839367 0.227433 -0.493698
vn -0.815838 -0.247378 -0.522698
vn -0.566022 -0.696852 -0.440473
vn -0.161344 -0.903546 -0.396954
vn 0.180783 -0.892237 -0.413801
vn 0.579317 -0.672588 -0.460453
vn 0.838725 -0.205556 -0.504269
vn 0.830778 0.285539 -0.477781
vn 0.580147 0.758164 -0.297686
vn -0.173565 0.982547 0.066902
vn 0.183186 0.981753 0.051038
vn -0.632534 0.774460 0.010592
vn -0.954642 0.285087 -0.085926
vn -0.945545 -0.294603 -0.138399
vn -0.621610 -0.774080 -0.120006
vn -0.158663 -0.986197 -0.047353
vn 0.249246 -0.967853 -0.033735
vn 0.688511 -0.723548 -0.049306
vn 0.962184 -0.245495 -0.118039
vn 0.953029 0.287525 -0.095212
vn 0.619269 0.785106 -0.010691
vn 0.158547 0.979270 0.126066
vn -0.229831 0.964426 0.130617
vn -0.236012 0.969371 0.067951
vn 0.138515 0.988079 0.067178
vn -0.680930 0.721574 0.125163
vn -0.692722 0.719384 0.051221
vn -0.962857 0.246696 0.109761
vn -0.975926 0.214293 0.040593
vn -0.937912 -0.336331 0.084875
vn -0.930554 -0.364711 0.032492
vn -0.558617 -0.825687 0.078665
vn -0.542826 -0.838817 0.041557
vn -0.140117 -0.986969 0.079119
vn -0.143464 -0.988471 0.048413
vn 0.240489 -0.966611 0.088479
vn 0.222810 -0.973309 0.054997
vn 0.616841 -0.781265 0.095568
vn 0.592385 -0.803717 0.055843
vn 0.909240 -0.407737 0.083862
vn 0.878649 -0.476040 0.036908
vn 0.964918 0.250092 0.079917
vn 0.968848 0.246469 0.024245
vn 0.613325 0.782446 0.107756
vn 0.585325 0.809319 0.048966
vn 0.108253 0.994117 -0.003600
vn -0.223602 0.974680 -0.000907
vn -0.227511 0.973705 0.011705
vn 0.092010 0.995750 -0.004143
vn -0.669972 0.742250 -0.014257
vn -0.671083 0.741199 0.016488
vn -0.980086 0.197478 -0.020849
vn -0.982395 0.186717 0.006053
vn -0.903213 -0.429188 -0.002013
vn -0.870058 -0.492568 0.019361
vn -0.513669 -0.857595 0.025993
vn -0.501938 -0.864277 0.032902
vn -0.153055 -0.987900 0.025058
vn -0.178499 -0.983833 0.014489
vn 0.198003 -0.980121 0.012561
vn 0.174315 -0.984645 -0.009454
vn 0.571049 -0.820910 0.003278
vn 0.566976 -0.823578 -0.016052
vn 0.843664 -0.536868 0.001900
vn 0.843477 -0.537123 -0.006809
vn 0.973129 0.230261 -0.000118
vn 0.977564 0.210626 -0.002331
vn 0.552325 0.833605 -0.006297
vn 0.563063 0.826331 -0.011676
vn 0.070272 0.997138 0.027890
vn -0.239123 0.969138 0.059929
vn -0.255448 0.956757 0.139150
vn 0.049250 0.991836 0.117625
vn -0.669275 0.737915 0.086907
vn -0.671617 0.721682 0.167648
vn -0.981669 0.176427 0.072114
vn -0.972156 0.149810 0.180193
vn -0.832980 -0.550453 0.056095
vn -0.825227 -0.548999 0.132672
vn -0.491226 -0.869875 0.044885
vn -0.498255 -0.864294 0.068838
vn -0.190855 -0.981447 0.018362
vn -0.177553 -0.982931 0.048185
vn 0.148482 -0.988915 -0.000565
vn 0.133283 -0.989905 0.048215
vn 0.552882 -0.833194 -0.010403
vn 0.528882 -0.848007 0.034176
vn 0.846807 -0.531853 -0.007105
vn 0.868956 -0.490824 0.063304
vn 0.976188 0.216921 -0.001746
vn 0.971205 0.216591 0.099241
vn 0.564674 0.825310 0.002776
vn 0.572252 0.812636 0.110228
vn 0.005306 0.174520 0.984639
vn -0.044957 0.176911 0.983200
vn 0.002821 -0.061666 0.998093
vn 0.058033 -0.093528 0.993924
vn 0.001449 0.701431 0.712736
vn -0.151361 0.717701 0.679702
vn -0.367081 0.181949 0.912220
vn -0.321761 -0.188187 0.927931
vn 0.174008 -0.646198 0.743067
vn -0.012326 -0.660183 0.751004
vn 0.436813 -0.164752 0.884337
vn 0.420385 0.189413 0.887355
vn 0.307260 0.608722 0.731470
vn 0.371875 -0.588486 0.717909
vn -0.336230 0.603976 0.722608
vn -0.236093 -0.532809 0.812635
vn -0.233414 0.924494 0.301379
vn 0.027711 0.945799 0.323567
vn 0.500730 0.782969 0.369093
vn 0.859035 0.236926 0.453790
vn 0.830518 -0.395257 0.392443
vn 0.524969 -0.817451 0.237027
vn 0.175879 -0.949670 0.259218
vn -0.111773 -0.957877 0.264536
vn -0.452623 -0.830412 0.324882
vn -0.732045 -0.463903 0.498903
vn -0.834928 0.194887 0.514698
vn -0.583796 0.731629 0.351995
vn -0.229001 0.973124 0.024263
vn -0.677913 0.735119 0.005853
vn -0.977310 0.211777 -0.004018
vn -0.922393 -0.386207 0.005928
vn -0.531439 -0.846582 0.029528
vn -0.144036 -0.988930 0.035666
vn 0.214250 -0.976198 0.033686
vn 0.582236 -0.812570 0.027044
vn 0.857349 -0.514591 0.012217
vn 0.968691 0.248270 0.000203
vn 0.558142 0.829654 0.012305
vn 0.122276 0.992205 0.024026
vn -0.207157 0.965158 0.159861
vn -0.655074 0.740470 0.150272
vn -0.957652 0.269792 0.100573
vn -0.948532 -0.310182 0.063829
vn -0.581933 -0.810714 0.064004
vn -0.145025 -0.986059 0.081575
vn 0.240854 -0.964659 0.106879
vn 0.647655 -0.753272 0.114560
vn 0.947444 -0.312213 0.069804
vn 0.959770 0.274719 0.058057
vn 0.616918 0.779438 0.109038
vn 0.167866 0.975220 0.144106
s 1
g polySurface1
usemtl lambert2SG
f 1/1/1 2/2/2 3/3/3 4/4/4
f 2/2/2 5/190/5 6/191/6 3/3/3
f 1/1/1 7/7/7 8/8/8 2/2/2
f 10/189/9 1/1/1 4/4/4 9/188/10
f 12/186/11 4/4/4 3/3/3 11/193/12
f 13/192/13 11/193/12 3/3/3 6/191/6
f 14/14/14 5/190/5 2/2/2 8/8/8
f 15/185/15 7/7/7 1/1/1 10/189/9
f 16/187/16 9/188/10 4/4/4 12/186/11
f 5/5/5 17/17/17 18/18/18 6/6/6
f 19/19/19 17/17/17 5/5/5 14/14/14
f 20/20/20 19/19/19 14/14/14 8/8/8
f 7/7/7 21/21/21 20/20/20 8/8/8
f 21/21/21 7/7/7 15/185/15 22/184/22
f 23/23/23 22/22/22 15/15/15 10/9/9
f 24/24/24 23/23/23 10/9/9 9/10/10
f 25/25/25 24/24/24 9/10/10 16/16/16
f 25/25/25 16/16/16 12/11/11 26/26/26
f 11/12/12 27/27/27 26/26/26 12/11/11
f 28/28/28 27/27/27 11/12/12 13/13/13
f 13/13/13 6/6/6 18/18/18 28/28/28
f 18/18/18 17/17/17 29/29/29 30/30/30
f 17/17/17 19/19/19 31/31/31 29/29/29
f 19/19/19 20/20/20 32/32/32 31/31/31
f 20/20/20 21/21/21 33/33/33 32/32/32
f 21/21/21 22/184/22 34/183/34 33/33/33
f 22/22/22 23/23/23 35/35/35 34/34/34
f 23/23/23 24/24/24 36/36/36 35/35/35
f 24/24/24 25/25/25 37/37/37 36/36/36
f 25/25/25 26/26/26 38/38/38 37/37/37
f 26/26/26 27/27/27 39/39/39 38/38/38
f 27/27/27 28/28/28 40/40/40 39/39/39
f 28/28/28 18/18/18 30/30/30 40/40/40
f 152/152/41 141/141/42 41/41/43 42/42/44
f 141/141/42 142/142/45 43/43/46 41/41/43
f 142/142/45 143/143/47 44/44/48 43/43/46
f 143/143/47 144/144/49 45/45/50 44/44/48
f 144/144/49 145/145/51 46/46/52 45/45/50
f 145/166/51 146/146/53 47/47/54 46/167/52
f 146/146/53 147/147/55 48/48/56 47/47/54
f 147/147/55 148/148/57 49/49/58 48/48/56
f 148/148/57 149/149/59 50/50/60 49/49/58
f 149/149/59 150/150/61 51/51/62 50/50/60
f 150/150/61 151/151/63 52/52/64 51/51/62
f 151/151/63 152/152/41 42/42/44 52/52/64
f 128/128/65 117/117/66 53/53/67 54/54/68
f 117/117/66 118/118/69 55/55/70 53/53/67
f 118/118/69 119/119/71 56/56/72 55/55/70
f 119/119/71 120/120/73 57/57/74 56/56/72
f 120/120/73 121/121/75 58/58/76 57/57/74
f 121/169/75 122/122/77 59/59/78 58/170/76
f 122/122/77 123/123/79 60/60/80 59/59/78
f 123/123/79 124/124/81 61/61/82 60/60/80
f 124/124/81 125/125/83 62/62/84 61/61/82
f 125/125/83 126/126/85 63/63/86 62/62/84
f 126/126/85 127/127/87 64/64/88 63/63/86
f 127/127/87 128/128/65 54/54/68 64/64/88
f 116/116/89 105/105/90 65/65/91 66/66/92
f 105/105/90 106/106/93 67/67/94 65/65/91
f 106/106/93 107/107/95 68/68/96 67/67/94
f 107/107/95 108/108/97 69/69/98 68/68/96
f 108/108/97 109/171/99 70/70/100 69/69/98
f 109/109/99 110/110/101 71/71/102 70/172/100
f 110/110/101 111/111/103 72/72/104 71/71/102
f 111/111/103 112/112/105 73/73/106 72/72/104
f 112/112/105 113/113/107 74/74/108 73/73/106
f 113/113/107 114/114/109 75/75/110 74/74/108
f 114/114/109 115/115/111 76/76/112 75/75/110
f 115/115/111 116/116/89 66/66/92 76/76/112
f 80/77/113 77/78/114 78/79/115 79/80/116
f 77/78/114 80/77/113 81/181/117 82/176/118
f 77/78/114 83/83/119 84/84/120 78/79/115
f 86/179/121 79/80/116 78/79/115 85/175/122
f 88/178/123 87/182/124 80/77/113 79/80/116
f 80/77/113 87/182/124 89/180/125 81/181/117
f 86/179/121 90/177/126 88/178/123 79/80/116
f 82/176/118 91/91/127 83/83/119 77/78/114
f 84/84/120 92/92/128 85/175/122 78/79/115
f 66/66/92 65/65/91 93/93/129 94/94/130
f 66/66/92 94/94/130 95/95/131 76/76/112
f 76/76/112 95/95/131 96/96/132 75/75/110
f 75/75/110 96/96/132 97/97/133 74/74/108
f 97/97/133 98/98/134 73/73/106 74/74/108
f 73/73/106 98/98/134 99/99/135 72/72/104
f 72/72/104 99/99/135 100/100/136 71/71/102
f 71/71/102 100/100/136 101/173/137 70/172/100
f 70/70/100 101/101/137 102/102/138 69/69/98
f 69/69/98 102/102/138 103/103/139 68/68/96
f 68/68/96 103/103/139 104/104/140 67/67/94
f 104/104/140 93/93/129 65/65/91 67/67/94
f 94/94/130 93/93/129 82/82/118 81/81/117
f 95/95/131 94/94/130 81/81/117 89/89/125
f 96/96/132 95/95/131 89/89/125 87/88/124
f 97/97/133 96/96/132 87/88/124 88/87/123
f 90/90/126 98/98/134 97/97/133 88/87/123
f 99/99/135 98/98/134 90/90/126 86/85/121
f 100/100/136 99/99/135 86/85/121 85/86/122
f 101/173/137 100/100/136 85/86/122 92/174/128
f 102/102/138 101/101/137 92/92/128 84/84/120
f 103/103/139 102/102/138 84/84/120 83/83/119
f 104/104/140 103/103/139 83/83/119 91/91/127
f 82/82/118 93/93/129 104/104/140 91/91/127
f 53/53/67 55/55/70 106/106/93 105/105/90
f 55/55/70 56/56/72 107/107/95 106/106/93
f 56/56/72 57/57/74 108/108/97 107/107/95
f 57/57/74 58/58/76 109/171/99 108/108/97
f 58/170/76 59/59/78 110/110/101 109/109/99
f 59/59/78 60/60/80 111/111/103 110/110/101
f 60/60/80 61/61/82 112/112/105 111/111/103
f 61/61/82 62/62/84 113/113/107 112/112/105
f 62/62/84 63/63/86 114/114/109 113/113/107
f 63/63/86 64/64/88 115/115/111 114/114/109
f 64/64/88 54/54/68 116/116/89 115/115/111
f 54/54/68 53/53/67 105/105/90 116/116/89
f 129/129/141 130/130/142 118/118/69 117/117/66
f 130/130/142 131/131/143 119/119/71 118/118/69
f 131/131/143 132/132/144 120/120/73 119/119/71
f 132/132/144 133/168/145 121/121/75 120/120/73
f 133/133/145 134/134/146 122/122/77 121/169/75
f 134/134/146 135/135/147 123/123/79 122/122/77
f 135/135/147 136/136/148 124/124/81 123/123/79
f 136/136/148 137/137/149 125/125/83 124/124/81
f 137/137/149 138/138/150 126/126/85 125/125/83
f 138/138/150 139/139/151 127/127/87 126/126/85
f 139/139/151 140/140/152 128/128/65 127/127/87
f 140/140/152 129/129/141 117/117/66 128/128/65
f 41/41/43 43/43/46 130/130/142 129/129/141
f 43/43/46 44/44/48 131/131/143 130/130/142
f 44/44/48 45/45/50 132/132/144 131/131/143
f 45/45/50 46/46/52 133/168/145 132/132/144
f 46/167/52 47/47/54 134/134/146 133/133/145
f 47/47/54 48/48/56 135/135/147 134/134/146
f 48/48/56 49/49/58 136/136/148 135/135/147
f 49/49/58 50/50/60 137/137/149 136/136/148
f 50/50/60 51/51/62 138/138/150 137/137/149
f 51/51/62 52/52/64 139/139/151 138/138/150
f 52/52/64 42/42/44 140/140/152 139/139/151
f 42/42/44 41/41/43 129/129/141 140/140/152
f 153/153/153 154/154/154 142/142/45 141/141/42
f 154/154/154 155/155/155 143/143/47 142/142/45
f 155/155/155 156/156/156 144/144/49 143/143/47
f 156/156/156 157/165/157 145/145/51 144/144/49
f 157/157/157 158/158/158 146/146/53 145/166/51
f 158/158/158 159/159/159 147/147/55 146/146/53
f 159/159/159 160/160/160 148/148/57 147/147/55
f 160/160/160 161/161/161 149/149/59 148/148/57
f 161/161/161 162/162/162 150/150/61 149/149/59
f 162/162/162 163/163/163 151/151/63 150/150/61
f 163/163/163 164/164/164 152/152/41 151/151/63
f 164/164/164 153/153/153 141/141/42 152/152/41
f 29/29/29 31/31/31 154/154/154 153/153/153
f 31/31/31 32/32/32 155/155/155 154/154/154
f 32/32/32 33/33/33 156/156/156 155/155/155
f 33/33/33 34/183/34 157/165/157 156/156/156
f 34/34/34 35/35/35 158/158/158 157/157/157
f 35/35/35 36/36/36 159/159/159 158/158/158
f 36/36/36 37/37/37 160/160/160 159/159/159
f 37/37/37 38/38/38 161/161/161 160/160/160
f 38/38/38 39/39/39 162/162/162 161/161/161
f 39/39/39 40/40/40 163/163/163 162/162/162
f 40/40/40 30/30/30 164/164/164 163/163/163
f 30/30/30 29/29/29 153/153/153 164/164/164
