# This file uses centimeters as units for non-parametric coordinates.

mtllib Tunnel02.mtl
g default
v 0.010844 3.235376 10.215566
v -1.480724 2.850526 10.139931
v -2.566513 2.972082 9.807086
v -3.061339 4.564079 9.302873
v -2.621495 5.699297 9.472705
v -1.397268 6.328195 9.870588
v -0.074183 5.724765 10.262731
v 0.384620 4.589571 10.371380
v 2.827403 1.805332 -10.387241
v 0.000000 1.224046 -10.532614
v -2.827403 1.823913 -10.667167
v -3.998550 4.653718 -10.506305
v -2.827403 7.442417 -9.999141
v 0.000000 8.647237 -10.444607
v 2.827403 7.490075 -10.884580
v 3.998550 4.663772 -11.153044
v 3.141435 1.489817 -10.338346
v 0.000000 0.778440 -10.487348
v -3.141435 1.508432 -10.618274
v -4.442663 4.652057 -10.448544
v -3.141435 7.754721 -9.932577
v 0.000000 9.089524 -10.374356
v 3.141435 7.802386 -10.818026
v 4.442663 4.662172 -11.095348
v 0.138388 2.950704 10.708668
v -1.622835 2.448539 10.545966
v -2.980250 2.687404 10.132424
v -3.589562 4.562636 9.601148
v -3.039968 5.981064 9.813325
v -1.546082 6.727282 10.298255
v 0.137821 6.015056 10.483249
v 0.711100 4.596622 10.618980
v -0.066783 3.152919 10.684311
v -1.634620 2.734881 10.584005
v -2.797251 2.889635 10.228339
v -3.324474 4.561764 9.716504
v -2.853568 5.777055 9.898267
v -1.553065 6.439163 10.320794
v -0.063951 5.811036 10.447919
v 0.427237 4.595711 10.564225
v -4.111342 4.567517 -8.034891
v -2.668988 7.265453 -8.085542
v 0.000000 8.677211 -7.918963
v 2.907158 7.473511 -7.952925
v 4.111342 4.567517 -8.034891
v 2.668986 1.929608 -8.236050
v 0.000000 1.063467 -8.133747
v -2.907159 1.661513 -8.116856
v 3.870215 4.560946 -7.802798
v 2.512451 2.080070 -8.018583
v 0.000000 1.297893 -7.894874
v -2.736654 1.825396 -7.879964
v -3.870215 4.560946 -7.802798
v -2.512451 7.102974 -7.876924
v 0.000000 8.429631 -7.693699
v 2.736654 7.296531 -7.725634
v -1.891714 2.249892 2.574672
v -2.406340 3.990912 2.623785
v -1.751306 5.731937 2.672885
v 0.031001 6.585748 2.693228
v 2.115506 5.852399 2.672885
v 2.836951 3.990912 2.623785
v 2.115506 2.249892 2.574672
v 0.038363 1.528717 2.554330
v 0.373787 7.100832 1.701086
v 2.632321 6.238778 1.677132
v 3.761613 4.018728 1.619319
v 2.684550 1.668109 1.561492
v 0.373787 0.945672 1.537542
v -2.026808 1.968897 1.561492
v -2.880343 4.018728 1.619319
v -1.969997 6.232575 1.677133
v -0.575313 6.575306 10.380436
v -0.668829 6.324548 10.377268
v -0.586788 6.224551 10.044793
v 1.090971 6.382122 2.684191
v 1.498819 8.199286 -7.707886
v 1.539134 8.406202 -11.303471
v 1.678639 8.790750 -11.234861
v 1.574564 8.415503 -7.934051
v 1.790573 6.977893 1.690445
v 0.620766 5.419189 10.552315
v 0.377223 5.318518 10.507100
v 0.350512 5.273021 10.318016
v 2.656883 5.016464 2.647901
v 3.649847 5.949100 -7.764898
v 3.759721 6.096482 -11.694428
v 4.139944 6.249063 -11.632381
v 3.856287 6.039369 -7.994633
v 3.384284 5.195958 1.647714
v 0.716829 3.725311 10.664150
v 0.472598 3.826703 10.624705
v 0.490541 3.865184 10.292906
v 2.863371 2.933915 2.599050
v 3.617434 3.173684 -7.911476
v 3.839757 3.086353 -11.256327
v 4.218356 2.926652 -11.203062
v 3.815957 3.101167 -8.136203
v 3.571268 2.806201 1.590195
v -0.653224 2.591419 10.632915
v -0.768357 2.832803 10.637609
v -0.655220 2.930712 10.180351
v 1.217263 1.634924 2.565201
v 1.342685 1.302173 -7.960986
v 1.511000 1.120967 -10.772479
v 1.678822 0.744883 -10.725273
v 1.426340 1.112618 -8.188418
v 1.498073 1.034374 1.550341
v -2.176107 2.806957 10.418356
v -2.255042 2.559789 10.353362
v -0.581290 1.241806 1.548697
v -1.353989 1.068531 -8.125880
v -1.463101 0.844957 -11.012662
v -1.316843 1.229958 -11.059617
v -1.274577 1.270102 -7.887930
v -1.181095 1.659544 2.563804
v -1.986423 2.907140 9.984911
v -3.197259 3.624370 9.977358
v -3.420511 3.521732 9.871910
v -2.646912 2.888840 1.589848
v -3.909688 3.086487 -8.076664
v -4.191550 3.049924 -11.126351
v -3.813733 3.211523 -11.179593
v -3.704553 3.166787 -7.842125
v -2.275229 3.018409 2.598755
v -2.950635 3.667524 9.559842
v -3.257876 5.255180 9.801504
v -3.486166 5.351048 9.700371
v -2.764979 5.272470 1.646355
v -3.919141 5.999243 -8.058578
v -4.316458 6.273052 -11.008326
v -3.933177 6.127888 -11.070204
v -3.717571 5.919763 -7.837462
v -2.140837 4.905032 2.646746
v -3.009267 5.220049 9.382294
v -2.271765 6.280310 10.133800
v -2.350366 6.531205 10.083643
v -1.022558 6.927129 1.690485
v -1.526850 8.303508 -7.992684
v -1.735937 8.749878 -10.802528
v -1.596958 8.365117 -10.871147
v -1.457572 8.093591 -7.774787
v -1.053632 6.304365 2.684225
v -2.082211 6.184039 9.694500
v -3.301912 4.287272 -3.104870
v -3.251310 5.564229 -3.102655
v -2.162351 6.654251 -3.100132
v -1.196228 7.532131 -3.047875
v 0.190878 7.778666 -3.006386
v 1.571140 7.597409 -3.019204
v 2.660653 6.756063 -3.035238
v 3.517596 5.544387 -3.070670
v 3.683669 4.287272 -3.104870
v 3.540782 2.972170 -3.169318
v 2.544106 1.949671 -3.232835
v 1.448473 1.136741 -3.215221
v 0.190878 1.092250 -3.195004
v -0.959402 1.157015 -3.185459
v -2.278897 1.818482 -3.174508
v -3.192590 3.029066 -3.140361
v -3.166885 4.346422 6.428213
v -2.949191 3.270145 6.579627
v -2.462129 2.401783 6.725309
v -1.589692 2.144575 6.853333
v -0.829138 1.920351 6.964939
v 0.201959 2.136927 7.022412
v 1.047139 2.560416 7.072484
v 1.680176 3.414721 7.057074
v 1.729844 4.366898 7.041437
v 1.585597 5.312744 7.012560
v 1.046797 6.036328 6.982643
v 0.252638 6.626811 6.925992
v -0.782896 6.802952 6.880710
v -1.685131 6.588780 6.747197
v -2.498108 6.015849 6.579028
v -3.007754 5.252211 6.498740
vt 0.499960 0.920004
vt 0.438341 0.917726
vt 0.418960 0.621065
vt 0.501058 0.625179
vt 0.544406 0.917832
vt 0.579447 0.636083
vt 0.613649 0.912800
vt 0.646825 0.649621
vt 0.661874 0.924288
vt 0.715524 0.664269
vt 0.266709 0.942898
vt 0.790217 0.681132
vt 0.327995 0.938399
vt 0.272442 0.647096
vt 0.378791 0.929405
vt 0.344705 0.629140
vt 0.502876 0.128653
vt 0.383163 0.127051
vt 0.382743 0.110255
vt 0.501508 0.111831
vt 0.619353 0.123191
vt 0.621720 0.106830
vt 0.744468 0.144570
vt 0.748232 0.127957
vt 0.867335 0.189081
vt 0.874021 0.173785
vt 0.022487 0.215394
vt 0.996621 0.225054
vt 0.129538 0.152110
vt 0.122325 0.136821
vt 0.250682 0.119098
vt 0.249406 0.102298
vt 0.170814 0.210709
vt 0.068408 0.242329
vt 0.857891 0.226146
vt 0.744957 0.200272
vt 0.631281 0.181059
vt 0.519410 0.178289
vt 0.402929 0.182214
vt 0.286011 0.194372
vt 0.501560 0.947713
vt 0.441336 0.946010
vt 0.442275 0.935559
vt 0.501986 0.937151
vt 0.545708 0.948374
vt 0.544105 0.937808
vt 0.609398 0.942236
vt 0.610244 0.931612
vt 0.656266 0.952977
vt 0.658185 0.942612
vt 0.516091 0.859196
vt 0.714111 0.955195
vt 0.329822 0.956270
vt 0.327780 0.946039
vt 0.381740 0.946283
vt 0.379993 0.936212
vt 0.693828 0.559684
vt 0.601676 0.546898
vt 0.508217 0.535683
vt 0.418704 0.530011
vt 0.332103 0.533849
vt 0.242771 0.552406
vt 0.161094 0.581613
vt 0.776784 0.572464
vt 0.393762 0.223730
vt 0.280747 0.243869
vt 0.500724 0.228683
vt 0.609683 0.232919
vt 0.724266 0.248764
vt 0.836115 0.272731
vt 0.059393 0.308188
vt 0.168184 0.270326
vt 0.481542 0.856403
vt 0.297837 0.954059
vt 0.298716 0.939700
vt 0.232318 0.661815
vt 0.113344 0.287703
vt 0.067787 0.167224
vt 0.456383 0.058225
vt 0.461892 0.178830
vt 0.457915 0.530612
vt 0.421489 0.858593
vt 0.352786 0.941533
vt 0.351961 0.933688
vt 0.307518 0.636935
vt 0.227901 0.254839
vt 0.191175 0.117432
vt 0.325802 0.056077
vt 0.340456 0.187863
vt 0.374265 0.530697
vt 0.360589 0.869431
vt 0.409181 0.935139
vt 0.406819 0.922024
vt 0.382328 0.622159
vt 0.334350 0.232413
vt 0.312249 0.109275
vt 0.209681 0.089449
vt 0.230985 0.200714
vt 0.290784 0.540450
vt 0.297196 0.891418
vt 0.470845 0.935502
vt 0.467418 0.917792
vt 0.458272 0.621655
vt 0.448278 0.224916
vt 0.443869 0.119057
vt 0.094237 0.135056
vt 0.117990 0.225903
vt 0.198546 0.567212
vt 0.521803 0.935528
vt 0.726013 0.889572
vt 0.835129 0.583748
vt 0.914804 0.244661
vt 0.555868 0.100013
vt 0.554941 0.115162
vt 0.550176 0.230499
vt 0.545686 0.630498
vt 0.520784 0.918223
vt 0.574958 0.933233
vt 0.668279 0.866490
vt 0.736224 0.565964
vt 0.797319 0.210983
vt 0.690790 0.105070
vt 0.688252 0.119845
vt 0.671920 0.240108
vt 0.610811 0.642279
vt 0.577057 0.915212
vt 0.634706 0.938353
vt 0.605208 0.853009
vt 0.647521 0.552795
vt 0.694528 0.189009
vt 0.810140 0.128026
vt 0.805041 0.142900
vt 0.775206 0.256353
vt 0.681857 0.657012
vt 0.638276 0.919698
vt 0.686487 0.951819
vt 0.546081 0.857089
vt 0.558980 0.541061
vt 0.575896 0.177969
vt 0.942627 0.182212
vt 0.935177 0.195687
vt 0.885621 0.294510
vt 0.748712 0.671327
vt 0.689278 0.933286
vt 0.716828 0.382603
vt 0.670981 0.373268
vt 0.614980 0.366645
vt 0.567140 0.362265
vt 0.515389 0.360755
vt 0.463977 0.359460
vt 0.412986 0.361514
vt 0.357948 0.365297
vt 0.311069 0.370971
vt 0.262074 0.377434
vt 0.209984 0.387105
vt 0.161197 0.399828
vt 0.908143 0.428942
vt 0.867949 0.417313
vt 0.816270 0.403013
vt 0.762341 0.390581
vt 0.654558 0.736862
vt 0.693745 0.747156
vt 0.729155 0.756589
vt 0.761346 0.765142
vt 0.228992 0.776558
vt 0.264228 0.761362
vt 0.297104 0.749457
vt 0.335093 0.737766
vt 0.370501 0.732045
vt 0.406142 0.727503
vt 0.439821 0.726921
vt 0.476683 0.727500
vt 0.515308 0.731332
vt 0.549835 0.732109
vt 0.586989 0.732278
vt 0.620746 0.734782
vt 0.449085 0.857163
vt 0.685825 0.961980
vt 0.578140 0.852676
vt 0.632627 0.948346
vt 0.632932 0.852560
vt 0.575616 0.942639
vt 0.700481 0.879179
vt 0.522989 0.945101
vt 0.263817 0.904336
vt 0.469206 0.945223
vt 0.327303 0.881257
vt 0.409849 0.945084
vt 0.391844 0.863863
vt 0.298875 0.964189
vt 0.263060 0.969851
vt 0.354713 0.951512
vt 0.580618 0.073774
vt 0.518106 0.087794
vt 0.709707 0.080887
vt 0.638698 0.109846
vt 0.822980 0.102519
vt 0.761364 0.113083
vt 0.947888 0.144579
vt 0.882020 0.137881
vt 0.441264 0.104169
vt 0.991123 0.180149
vt 0.312991 0.094036
vt 0.154147 0.132750
vt 0.058167 0.155028
vt 0.187021 0.102833
vt 0.271592 0.083699
vt 0.394791 0.077677
vt 0.748455 0.898626
vt 0.789380 0.772836
vt 0.870783 0.591012
vt 0.116976 0.411874
vt 0.961217 0.260439
vt 0.040455 0.162690
vt 0.716009 0.965956
vt 0.263483 0.959334
vt 0.936284 0.320169
vt 0.194758 0.676916
vt 0.983175 0.235460
vt 0.715713 0.938880
vt 0.007801 0.206816
vn -0.309810 0.924830 -0.220697
vn -0.267794 0.941596 -0.204165
vn -0.311986 0.944682 -0.101195
vn -0.326271 0.940553 -0.094377
vn 0.248927 0.962803 -0.105103
vn 0.259440 0.963347 -0.068208
vn 0.940963 0.325737 0.092104
vn 0.928490 0.354099 0.111896
vn 0.924457 0.376412 -0.060779
vn 0.938681 0.339682 -0.059114
vn 0.914269 -0.377163 0.147852
vn 0.910047 -0.380031 0.165500
vn 0.903916 -0.421769 -0.071035
vn 0.910681 -0.405762 -0.077575
vn 0.410718 -0.909659 0.061899
vn 0.404019 -0.911491 0.077155
vn 0.427052 -0.899668 -0.090692
vn 0.446962 -0.889047 -0.099098
vn -0.382912 -0.917103 -0.110904
vn -0.364771 -0.925519 -0.101764
vn -0.366485 -0.918000 -0.151539
vn -0.380398 -0.913293 -0.145578
vn -0.892490 -0.371526 -0.255792
vn -0.895646 -0.364571 -0.254769
vn -0.919385 -0.355820 -0.167701
vn -0.913336 -0.376740 -0.154545
vn -0.893177 0.335845 -0.299070
vn -0.902805 0.305543 -0.302633
vn -0.897700 0.416330 -0.144235
vn -0.901445 0.410636 -0.137025
vn 0.123346 -0.071559 -0.989780
vn -0.221744 0.923070 -0.314280
vn 0.266025 -0.963955 0.004762
vn 0.123346 -0.071559 -0.989780
vn 0.224331 0.949704 -0.218490
vn -0.224786 -0.970970 -0.081785
vn 0.886646 0.392693 -0.244235
vn -0.114501 -0.059757 -0.991624
vn -0.114501 -0.059757 -0.991624
vn -0.919726 -0.385996 -0.071493
vn 0.875230 -0.321264 -0.361610
vn 0.025339 0.424138 -0.905243
vn 0.025339 0.424138 -0.905243
vn -0.911956 0.410080 -0.013056
vn 0.331167 -0.878271 -0.344917
vn -0.371234 0.013840 -0.928436
vn -0.371234 0.013840 -0.928436
vn -0.409332 0.912383 -0.002156
vn -0.081946 0.210703 -0.974109
vn -0.418357 -0.869572 -0.262339
vn 0.388185 0.920959 -0.033881
vn -0.081946 0.210703 -0.974109
vn 0.128696 0.081209 -0.988353
vn -0.908149 -0.350558 -0.228856
vn 0.922293 0.383504 -0.047960
vn 0.128696 0.081209 -0.988353
vn -0.004957 -0.329232 -0.944236
vn -0.911752 0.295514 -0.285271
vn 0.920788 -0.390041 -0.004253
vn -0.004957 -0.329232 -0.944236
vn 0.297247 -0.952180 0.070692
vn 0.322427 -0.945695 0.041251
vn -0.235531 -0.969868 0.062298
vn -0.916316 -0.382474 0.118657
vn -0.916700 -0.380267 0.122715
vn -0.892853 0.417679 0.168398
vn -0.886647 0.427437 0.176509
vn -0.419996 0.889397 0.180487
vn -0.431977 0.882969 0.183746
vn 0.380765 0.912806 0.147661
vn 0.381901 0.912922 0.143959
vn 0.919280 0.378838 0.106798
vn 0.920075 0.378400 0.101372
vn 0.897738 -0.430871 0.091737
vn 0.899671 -0.430536 0.072319
vn -0.063245 -0.055991 0.996426
vn 0.266501 -0.933018 0.241776
vn -0.223112 0.710204 0.667706
vn -0.063245 -0.055991 0.996426
vn -0.261510 -0.957413 0.122365
vn -0.117597 0.731890 0.671199
vn -0.937839 -0.344712 -0.040381
vn -0.463858 0.109879 0.879069
vn -0.463858 0.109879 0.879069
vn 0.327979 0.372512 0.868139
vn -0.917941 0.388160 -0.081959
vn -0.398852 0.017407 0.916850
vn -0.398852 0.017407 0.916850
vn 0.334324 -0.263828 0.904777
vn -0.420628 0.907233 0.000037
vn -0.343717 0.079056 0.935740
vn -0.343717 0.079056 0.935740
vn 0.052592 -0.610408 0.790340
vn -0.092326 0.013286 0.995640
vn 0.356981 0.920042 0.161515
vn -0.269424 -0.566136 0.779038
vn -0.092326 0.013286 0.995640
vn -0.189449 0.017380 0.981737
vn 0.878417 0.382348 0.286695
vn -0.485308 -0.120397 0.866014
vn -0.189449 0.017380 0.981737
vn -0.115699 0.107024 0.987502
vn 0.890327 -0.322427 0.321495
vn -0.642747 0.318816 0.696586
vn -0.115699 0.107024 0.987502
vn -0.991660 -0.025092 0.126416
vn -0.892295 0.429502 0.139061
vn -0.687086 0.714117 0.133976
vn -0.423375 0.893063 0.152293
vn 0.372555 0.917725 0.137782
vn 0.726391 0.679216 0.104986
vn 0.915633 0.394170 0.079036
vn 0.999005 0.016032 0.041622
vn 0.893978 -0.448048 0.007534
vn 0.651695 -0.758379 -0.012476
vn 0.323663 -0.946070 -0.013922
vn -0.020970 -0.999780 -0.000953
vn -0.284624 -0.957897 0.037721
vn -0.624965 -0.776711 0.078345
vn -0.916573 -0.383743 0.112405
vn -0.897914 0.436069 -0.059959
vn -0.899564 0.431629 -0.066937
vn -0.313510 0.949035 -0.032302
vn -0.298489 0.953410 -0.043750
vn 0.243608 0.969170 -0.036936
vn 0.930733 0.353452 -0.093854
vn 0.917768 0.383036 -0.104809
vn 0.896840 -0.417511 -0.146163
vn 0.892263 -0.425096 -0.152185
vn 0.441094 -0.884452 -0.152255
vn 0.426818 -0.889833 -0.161320
vn -0.381296 -0.915091 -0.131234
vn -0.365452 -0.920175 -0.140437
vn -0.920908 -0.379040 -0.090868
vn -0.922485 -0.373455 -0.097732
vn 0.693953 0.686471 0.217225
vn 0.359379 0.922954 0.137853
vn 0.948206 0.063642 0.311216
vn 0.875780 0.398213 0.272828
vn 0.617145 -0.734413 0.282436
vn 0.877874 -0.355289 0.321102
vn -0.045506 -0.986801 0.155416
vn 0.286914 -0.930930 0.225941
vn -0.319847 -0.944437 0.075741
vn -0.930048 -0.362326 -0.061081
vn -0.621792 -0.783099 0.011442
vn -0.919389 0.383830 -0.086009
vn -0.995950 -0.041226 -0.079896
vn -0.387100 0.921833 -0.019438
vn -0.694357 0.716809 -0.063662
vn -0.092326 0.013286 0.995640
vn -0.092326 0.013286 0.995640
vn -0.422228 -0.888618 0.179113
vn -0.380625 -0.913652 -0.142704
vn -0.381374 -0.915227 -0.130051
vn -0.385018 -0.920907 -0.060760
vn -0.081946 0.210703 -0.974109
vn 0.382007 0.912938 0.143577
vn -0.026390 0.987430 0.155840
vn -0.022764 0.998675 0.046153
vn -0.908114 0.416028 0.047436
vn -0.917613 0.396088 0.033172
vn -0.907999 0.416167 0.048408
vn -0.375747 0.923995 0.071047
vn -0.423553 0.901965 0.084037
vn 0.393055 0.908990 0.138725
vn 0.379766 0.915206 0.134817
vn 0.900577 0.400790 0.168310
vn 0.913802 0.377397 0.150128
vn 0.900433 -0.405109 0.158450
vn 0.904893 -0.403477 0.135558
vn 0.319343 -0.941197 0.110313
vn 0.333171 -0.938716 0.088375
vn -0.338166 -0.939358 0.057008
vn -0.291595 -0.955445 0.045801
vn -0.921956 -0.386252 0.028403
s 1
g Tunnel__1_:Tunnel02
usemtl initialShadingGroup
f 2/1/1 102/102/2 103/103/3 64/4/4
f 117/117/5 2/1/1 64/4/4 116/116/6
f 126/126/7 3/5/8 57/6/9 125/125/10
f 135/135/11 4/7/12 58/8/13 134/134/14
f 144/144/15 5/9/16 59/10/17 143/143/18
f 7/13/19 75/75/20 76/76/21 61/14/22
f 8/15/23 84/84/24 85/85/25 62/16/26
f 1/2/27 93/93/28 94/94/29 63/3/30
f 10/17/31 105/105/32 106/201/33 18/20/34
f 114/114/35 10/17/31 18/20/34 113/113/36
f 123/123/37 11/21/38 19/22/39 122/122/40
f 132/132/41 12/23/42 20/24/43 131/131/44
f 141/141/45 13/25/46 21/26/47 140/140/48
f 15/29/49 78/78/50 79/205/51 23/30/52
f 16/31/53 87/87/54 88/206/55 24/32/56
f 9/18/57 96/96/58 97/203/59 17/19/60
f 18/214/34 106/106/33 107/107/61 47/34/62
f 113/199/36 18/202/34 47/213/62 112/112/63
f 122/197/40 19/200/39 48/35/64 121/121/65
f 131/195/44 20/198/43 41/36/66 130/130/67
f 140/193/48 21/196/47 42/37/68 139/139/69
f 23/208/52 79/79/51 80/80/70 44/39/71
f 24/207/56 88/88/55 89/89/72 45/40/73
f 17/204/60 97/97/59 98/98/74 46/33/75
f 26/41/76 100/186/77 101/101/78 34/44/79
f 110/184/80 26/41/76 34/44/79 109/109/81
f 119/182/82 27/45/83 35/46/84 118/118/85
f 128/180/86 28/47/87 36/48/88 127/127/89
f 137/178/90 29/49/91 37/50/92 136/136/93
f 31/53/94 73/190/95 74/74/96 39/54/97
f 32/55/98 82/192/99 83/83/100 40/56/101
f 25/42/102 91/188/103 92/92/104 33/43/105
f 34/44/79 101/101/78 102/102/2 2/1/1
f 117/117/5 109/109/81 34/44/79 2/1/1
f 126/126/7 118/118/85 35/46/84 3/5/8
f 135/135/11 127/127/89 36/48/88 4/7/12
f 144/144/15 136/136/93 37/50/92 5/9/16
f 39/54/97 74/74/96 75/75/20 7/13/19
f 40/56/101 83/83/100 84/84/24 8/15/23
f 33/43/105 92/92/104 93/93/28 1/2/27
f 130/130/67 41/36/66 145/145/106 146/146/107
f 139/139/69 42/37/68 147/147/108 148/148/109
f 44/39/71 80/80/70 150/150/110 151/151/111
f 45/40/73 89/89/72 152/152/112 153/153/113
f 46/33/75 98/98/74 154/154/114 155/155/115
f 47/34/62 107/107/61 156/156/116 157/212/117
f 112/112/63 47/213/62 157/157/117 158/158/118
f 121/121/65 48/35/64 159/159/119 160/160/120
f 50/65/121 95/95/122 96/96/58 9/18/57
f 51/67/123 104/104/124 105/105/32 10/17/31
f 115/115/125 51/67/123 10/17/31 114/114/35
f 124/124/126 52/68/127 11/21/38 123/123/37
f 133/133/128 53/69/129 12/23/42 132/132/41
f 142/142/130 54/70/131 13/25/46 141/141/45
f 56/72/132 77/77/133 78/78/50 15/29/49
f 49/66/134 86/86/135 87/87/54 16/31/53
f 125/125/10 57/6/9 52/68/127 124/124/126
f 134/134/14 58/8/13 53/69/129 133/133/128
f 143/143/18 59/10/17 54/70/131 142/142/130
f 61/14/22 76/76/21 77/77/133 56/72/132
f 62/16/26 85/85/25 86/86/135 49/66/134
f 63/3/30 94/94/29 95/95/122 50/65/121
f 64/4/4 103/103/3 104/104/124 51/67/123
f 116/116/6 64/4/4 51/67/123 115/115/125
f 171/171/136 172/172/137 73/73/95 31/177/94
f 169/169/138 170/170/139 82/82/99 32/189/98
f 167/167/140 168/168/141 91/91/103 25/187/102
f 165/165/142 166/166/143 100/100/77 26/185/76
f 164/164/144 165/210/142 26/209/76 110/110/80
f 162/162/145 163/163/146 27/183/83 119/119/82
f 176/176/147 161/161/148 28/181/87 128/128/86
f 174/174/149 175/175/150 29/179/91 137/137/90
f 73/190/95 30/191/151 38/216/152 74/74/96
f 75/75/20 74/74/96 38/216/152 6/11/153
f 76/76/21 75/75/20 6/11/153 60/218/154
f 77/77/133 76/76/21 60/218/154 55/71/155
f 78/78/50 77/77/133 55/71/155 14/27/156
f 79/205/51 78/78/50 14/27/156 22/221/157
f 80/80/70 79/79/51 22/194/157 43/38/158
f 150/150/110 80/80/70 43/38/158 149/149/159
f 73/73/95 172/172/137 173/173/160 30/51/151
f 82/192/99 31/53/94 39/54/97 83/83/100
f 84/84/24 83/83/100 39/54/97 7/13/19
f 85/85/25 84/84/24 7/13/19 61/14/22
f 86/86/135 85/85/25 61/14/22 56/72/132
f 87/87/54 86/86/135 56/72/132 15/29/49
f 88/206/55 87/87/54 15/29/49 23/30/52
f 89/89/72 88/88/55 23/208/52 44/39/71
f 152/152/112 89/89/72 44/39/71 151/151/111
f 82/82/99 170/170/139 171/171/136 31/177/94
f 91/188/103 32/55/98 40/56/101 92/92/104
f 93/93/28 92/92/104 40/56/101 8/15/23
f 94/94/29 93/93/28 8/15/23 62/16/26
f 95/95/122 94/94/29 62/16/26 49/66/134
f 96/96/58 95/95/122 49/66/134 16/31/53
f 97/203/59 96/96/58 16/31/53 24/32/56
f 98/98/74 97/97/59 24/207/56 45/40/73
f 154/154/114 98/98/74 45/40/73 153/153/113
f 91/91/103 168/168/141 169/169/138 32/189/98
f 100/186/77 25/42/102 33/43/105 101/101/78
f 102/102/2 101/101/78 33/43/105 1/2/27
f 103/103/3 102/102/2 1/2/27 63/3/30
f 104/104/124 103/103/3 63/3/30 50/65/121
f 105/105/32 104/104/124 50/65/121 9/18/57
f 106/201/33 105/105/32 9/18/57 17/19/60
f 107/107/61 106/106/33 17/204/60 46/33/75
f 156/156/116 107/107/61 46/33/75 155/155/115
f 100/100/77 166/166/143 167/167/140 25/187/102
f 27/45/83 110/184/80 109/109/81 35/46/84
f 163/163/146 164/164/144 110/110/80 27/183/83
f 48/35/64 112/112/63 158/158/118 159/159/119
f 19/200/39 113/199/36 112/112/63 48/35/64
f 11/21/38 114/114/35 113/113/36 19/22/39
f 52/68/127 115/115/125 114/114/35 11/21/38
f 57/6/9 116/116/6 115/115/125 52/68/127
f 3/5/8 117/117/5 116/116/6 57/6/9
f 35/46/84 109/109/81 117/117/5 3/5/8
f 28/47/87 119/182/82 118/118/85 36/48/88
f 161/161/148 162/162/145 119/119/82 28/181/87
f 41/36/66 121/121/65 160/160/120 145/145/106
f 20/198/43 122/197/40 121/121/65 41/36/66
f 12/23/42 123/123/37 122/122/40 20/24/43
f 53/69/129 124/124/126 123/123/37 12/23/42
f 58/8/13 125/125/10 124/124/126 53/69/129
f 4/7/12 126/126/7 125/125/10 58/8/13
f 36/48/88 118/118/85 126/126/7 4/7/12
f 29/49/91 128/180/86 127/127/89 37/50/92
f 175/175/150 176/176/147 128/128/86 29/179/91
f 42/37/68 130/130/67 146/146/107 147/147/108
f 21/196/47 131/195/44 130/130/67 42/37/68
f 13/25/46 132/132/41 131/131/44 21/26/47
f 54/70/131 133/133/128 132/132/41 13/25/46
f 59/10/17 134/134/14 133/133/128 54/70/131
f 5/9/16 135/135/11 134/134/14 59/10/17
f 37/50/92 127/127/89 135/135/11 5/9/16
f 30/215/151 137/178/90 136/136/93 38/52/152
f 173/173/160 174/174/149 137/137/90 30/51/151
f 43/38/158 139/139/69 148/148/109 149/149/159
f 22/194/157 140/193/48 139/139/69 43/38/158
f 14/219/156 141/141/45 140/140/48 22/28/157
f 55/217/155 142/142/130 141/141/45 14/219/156
f 60/12/154 143/143/18 142/142/130 55/217/155
f 6/220/153 144/144/15 143/143/18 60/12/154
f 38/52/152 136/136/93 144/144/15 6/220/153
f 146/146/107 145/145/106 71/57/161 129/129/162
f 147/147/108 146/146/107 129/129/162 72/58/163
f 148/148/109 147/147/108 72/58/163 138/138/164
f 149/149/159 148/148/109 138/138/164 65/59/165
f 81/81/166 150/150/110 149/149/159 65/59/165
f 151/151/111 150/150/110 81/81/166 66/60/167
f 90/90/168 152/152/112 151/151/111 66/60/167
f 153/153/113 152/152/112 90/90/168 67/61/169
f 99/99/170 154/154/114 153/153/113 67/61/169
f 155/155/115 154/154/114 99/99/170 68/62/171
f 108/108/172 156/156/116 155/155/115 68/62/171
f 157/212/117 156/156/116 108/108/172 69/63/173
f 158/158/118 157/157/117 69/211/173 111/111/174
f 159/159/119 158/158/118 111/111/174 70/64/175
f 160/160/120 159/159/119 70/64/175 120/120/176
f 145/145/106 160/160/120 120/120/176 71/57/161
f 71/57/161 120/120/176 162/162/145 161/161/148
f 120/120/176 70/64/175 163/163/146 162/162/145
f 70/64/175 111/111/174 164/164/144 163/163/146
f 111/111/174 69/211/173 165/210/142 164/164/144
f 69/63/173 108/108/172 166/166/143 165/165/142
f 167/167/140 166/166/143 108/108/172 68/62/171
f 68/62/171 99/99/170 168/168/141 167/167/140
f 169/169/138 168/168/141 99/99/170 67/61/169
f 67/61/169 90/90/168 170/170/139 169/169/138
f 171/171/136 170/170/139 90/90/168 66/60/167
f 66/60/167 81/81/166 172/172/137 171/171/136
f 173/173/160 172/172/137 81/81/166 65/59/165
f 65/59/165 138/138/164 174/174/149 173/173/160
f 138/138/164 72/58/163 175/175/150 174/174/149
f 72/58/163 129/129/162 176/176/147 175/175/150
f 129/129/162 71/57/161 161/161/148 176/176/147
