# This file uses centimeters as units for non-parametric coordinates.

mtllib Ö_25.mtl
v 201.806320 356.211456 358.309296
v 213.148544 356.211456 359.841370
v 201.806320 362.043976 358.309296
v 213.148544 362.043976 359.841370
v 200.794266 362.043976 353.956146
v 212.696671 362.043976 354.394684
v 200.794266 356.211456 353.956146
v 212.696671 356.211456 354.394684
v 203.872681 362.082581 354.189606
v 203.872681 356.176788 354.189606
v 204.032074 356.176788 359.767181
v 204.032074 362.082581 359.767181
v 209.345932 362.082581 354.250244
v 209.345932 356.176788 354.250244
v 209.417099 356.176788 360.364777
v 209.417099 362.082581 360.364777
v 212.361832 362.082581 356.888824
v 209.249985 362.132202 356.932892
v 203.948318 362.132202 356.797852
v 201.019394 362.082581 356.189880
v 201.019394 356.176788 356.189880
v 203.948318 356.132202 356.797852
v 209.249985 356.132202 356.932892
v 212.361832 356.176788 356.888824
v 213.723480 361.159882 360.138062
v 209.448486 361.159882 360.813904
v 204.044281 361.159882 360.150208
v 201.680237 361.159882 358.371124
v 200.691635 361.159882 356.100464
v 200.425293 361.159882 353.635834
v 203.862106 361.159882 353.866425
v 209.367142 361.159882 353.925659
v 213.163147 361.159882 354.114288
v 212.723145 361.159882 356.879944
v 213.723480 357.064636 360.138062
v 209.448486 357.064636 360.813904
v 204.044281 357.064636 360.150208
v 201.680237 357.064636 358.371124
v 200.691635 357.064636 356.100464
v 200.425293 357.064636 353.635834
v 203.862106 357.064636 353.866425
v 209.367142 357.064636 353.925659
v 213.163147 357.064636 354.114288
v 212.723145 357.064636 356.879944
v 213.444000 357.053619 358.676544
v 213.070923 357.057709 355.250641
v 212.645035 359.108978 356.866669
v 211.734131 357.061218 353.827545
v 213.196213 356.293640 354.094604
v 206.578720 357.063385 353.954193
v 209.374756 356.288788 353.903168
v 201.721329 357.059845 353.564453
v 203.853500 356.289124 353.846008
v 200.271484 357.058807 354.681671
v 200.399200 356.293610 353.613342
v 201.104141 357.064514 357.303558
v 200.670105 356.292603 356.096222
v 202.544128 357.063965 359.359589
v 201.589111 359.107727 358.397766
v 206.563660 357.063019 360.626678
v 203.979309 359.109070 360.170776
v 212.099579 357.062195 360.748535
v 209.487061 359.108551 360.856384
v 213.760376 359.109344 360.154785
v 213.444061 361.170959 358.676605
v 213.070953 361.166840 355.250610
v 212.742050 361.945313 356.879089
v 211.734161 361.163300 353.827545
v 213.198532 359.109314 354.094238
v 206.578720 361.161163 353.954193
v 209.466995 359.108124 353.937469
v 201.721283 361.164703 353.564453
v 203.784317 359.108673 353.891327
v 200.271439 361.165741 354.681641
v 200.397842 359.109314 353.612976
v 201.104141 361.160004 357.303558
v 200.683685 359.107910 356.151093
v 202.544113 361.160553 359.359619
v 201.671341 361.949005 358.375244
v 206.563644 361.161499 360.626678
v 204.036179 361.949799 360.178192
v 212.099594 361.162323 360.748566
v 209.453491 361.951416 360.847809
v 213.762878 361.948151 360.158051
v 212.741959 356.296509 356.879059
v 211.180679 356.129242 356.913605
v 213.023575 356.173553 358.722504
v 206.576553 356.132202 356.906525
v 209.335419 356.128387 358.842712
v 202.111496 356.129730 356.488831
v 203.990967 356.129456 358.465607
v 200.670227 361.949158 356.096191
v 201.388596 356.174438 357.458832
v 202.111420 362.135010 356.488831
v 200.643677 362.085266 354.742279
v 206.576553 362.132202 356.906525
v 203.897751 362.135468 355.278687
v 211.180756 362.135559 356.913544
v 209.281631 362.135071 355.341156
v 212.681137 362.085114 355.247894
v 209.335403 362.136475 358.842682
v 209.453552 356.290344 360.847992
v 211.996277 362.085144 360.303619
v 209.281616 356.129639 355.341156
v 211.996292 356.174500 360.303619
v 209.374619 361.952942 353.903259
v 211.665222 356.174774 354.164398
v 211.665222 362.084839 354.164398
v 203.990967 362.135315 358.465607
v 204.035980 356.292023 360.178345
v 206.566086 362.082764 360.198944
v 203.897766 356.129303 355.278687
v 206.566086 356.176636 360.198944
v 203.853683 361.952606 353.846069
v 206.579117 356.176361 354.272980
v 206.579117 362.083069 354.272980
v 212.681061 356.174530 355.247925
v 200.643692 356.174377 354.742310
v 213.195892 361.948425 354.094757
v 200.399445 361.948456 353.613525
v 213.023636 362.086182 358.722534
v 201.388626 362.085205 357.458832
v 213.763214 356.293945 360.158203
v 201.671188 356.292908 358.375305
v 201.750595 356.174866 353.894104
v 201.750595 362.084717 353.894104
v 202.482468 362.085022 359.028839
v 202.482559 356.174622 359.028748
v 213.500610 359.108673 358.719513
v 213.093002 359.108917 355.208038
v 211.795410 359.109070 353.802429
v 206.546387 359.106903 354.006561
v 201.658707 359.109009 353.536804
v 200.216385 359.108887 354.645874
v 201.049850 359.107574 357.348541
v 202.467026 359.108765 359.383575
v 206.514053 359.108673 360.665924
v 212.147507 359.109161 360.773987
v 213.484787 361.958099 358.691132
v 213.101471 361.953400 355.237244
v 211.755997 361.951050 353.805267
v 206.577896 361.955536 353.931671
v 201.703690 361.951630 353.540802
v 200.242676 361.953491 354.664459
v 201.088959 361.949097 357.303528
v 202.534485 361.951477 359.376190
v 206.560944 361.952271 360.659119
v 212.126068 361.950714 360.776428
v 213.101639 356.288513 355.237091
v 211.353363 356.127319 355.294495
v 206.578873 356.128632 355.351990
v 201.898697 356.127045 355.010193
v 200.242416 356.288391 354.664307
v 201.898697 362.138000 355.010193
v 206.578873 362.136200 355.351990
v 211.353409 362.137665 355.294464
v 211.554504 362.139221 358.802734
v 212.126343 356.291199 360.776611
v 211.554489 356.125946 358.802704
v 211.756287 356.290863 353.805115
v 206.569061 362.136383 358.751038
v 206.560867 356.289520 360.659302
v 206.569061 356.128479 358.751038
v 206.577881 356.286194 353.931610
v 201.088821 356.292725 357.303589
v 213.485046 356.283813 358.691254
v 202.315170 356.126770 357.942963
v 201.703430 356.290283 353.540649
v 202.315094 362.138275 357.942993
v 202.534302 356.290405 359.376312
vt 0.375000 0.000000
vt 0.625000 0.000000
vt 0.375000 0.250000
vt 0.625000 0.250000
vt 0.375000 0.500000
vt 0.625000 0.500000
vt 0.375000 0.750000
vt 0.625000 0.750000
vt 0.375000 1.000000
vt 0.625000 1.000000
vt 0.875000 0.000000
vt 0.875000 0.250000
vt 0.125000 0.000000
vt 0.125000 0.250000
vt 0.436885 0.500000
vt 0.436885 0.750000
vt 0.436885 0.000000
vt 0.436885 1.000000
vt 0.436885 0.250000
vt 0.556657 0.500000
vt 0.556657 0.750000
vt 0.556657 0.000000
vt 0.556657 1.000000
vt 0.556657 0.250000
vt 0.625000 0.380829
vt 0.755829 0.250000
vt 0.556657 0.380829
vt 0.436885 0.380829
vt 0.244171 0.250000
vt 0.375000 0.380829
vt 0.244171 0.000000
vt 0.375000 0.869171
vt 0.436885 0.869171
vt 0.556657 0.869171
vt 0.625000 0.869171
vt 0.755829 0.000000
vt 0.625000 0.231617
vt 0.556657 0.231617
vt 0.436885 0.231617
vt 0.375000 0.231617
vt 0.244171 0.231617
vt 0.125000 0.231617
vt 0.375000 0.518383
vt 0.436885 0.518383
vt 0.556657 0.518383
vt 0.625000 0.518383
vt 0.875000 0.231617
vt 0.755829 0.231617
vt 0.625000 0.016508
vt 0.556657 0.016508
vt 0.436885 0.016508
vt 0.375000 0.016508
vt 0.244171 0.016508
vt 0.125000 0.016508
vt 0.375000 0.733492
vt 0.436885 0.733492
vt 0.556657 0.733492
vt 0.625000 0.733492
vt 0.875000 0.016508
vt 0.755829 0.016508
vt 0.690414 0.016508
vt 0.815414 0.016508
vt 0.755829 0.124063
vt 0.590829 0.733492
vt 0.625000 0.741746
vt 0.875000 0.008254
vt 0.496771 0.733492
vt 0.556657 0.741746
vt 0.405943 0.733492
vt 0.436885 0.741746
vt 0.184585 0.016508
vt 0.125000 0.008254
vt 0.375000 0.741746
vt 0.309585 0.016508
vt 0.244171 0.008254
vt 0.405943 0.016508
vt 0.375000 0.124063
vt 0.496771 0.016508
vt 0.436885 0.124063
vt 0.590829 0.016508
vt 0.556657 0.124063
vt 0.625000 0.124063
vt 0.690415 0.231617
vt 0.815415 0.231617
vt 0.755829 0.240809
vt 0.590829 0.518383
vt 0.625000 0.625937
vt 0.875000 0.124063
vt 0.496771 0.518383
vt 0.556657 0.625937
vt 0.405943 0.518383
vt 0.436885 0.625937
vt 0.184585 0.231617
vt 0.125000 0.124063
vt 0.375000 0.625937
vt 0.309585 0.231617
vt 0.244171 0.124063
vt 0.405943 0.231617
vt 0.375000 0.240809
vt 0.496771 0.231617
vt 0.436885 0.240809
vt 0.590829 0.231617
vt 0.556657 0.240809
vt 0.625000 0.240809
vt 0.755829 0.008254
vt 0.590829 0.869171
vt 0.625000 0.934585
vt 0.690415 0.000000
vt 0.496771 0.869171
vt 0.556657 0.934585
vt 0.405943 0.869171
vt 0.436885 0.934585
vt 0.244171 0.240809
vt 0.309585 0.000000
vt 0.375000 0.934585
vt 0.405943 0.380829
vt 0.184585 0.250000
vt 0.375000 0.440415
vt 0.496771 0.380829
vt 0.436885 0.440415
vt 0.590829 0.380829
vt 0.556657 0.440415
vt 0.625000 0.440415
vt 0.815415 0.250000
vt 0.556657 0.315415
vt 0.556657 0.008254
vt 0.590829 0.250000
vt 0.556657 0.809585
vt 0.590829 0.000000
vt 0.590829 1.000000
vt 0.556657 0.509191
vt 0.590829 0.750000
vt 0.590829 0.500000
vt 0.436885 0.315415
vt 0.436885 0.008254
vt 0.496771 0.250000
vt 0.436885 0.809585
vt 0.496771 0.000000
vt 0.496771 1.000000
vt 0.436885 0.509191
vt 0.496771 0.750000
vt 0.496771 0.500000
vt 0.625000 0.809585
vt 0.815415 0.000000
vt 0.184585 0.000000
vt 0.375000 0.809585
vt 0.625000 0.509191
vt 0.875000 0.240809
vt 0.125000 0.240809
vt 0.375000 0.509191
vt 0.625000 0.315415
vt 0.690415 0.250000
vt 0.309585 0.250000
vt 0.375000 0.315415
vt 0.625000 0.008254
vt 0.375000 0.008254
vt 0.405943 0.750000
vt 0.405943 0.500000
vt 0.405943 0.250000
vt 0.405943 0.000000
vt 0.405943 1.000000
vt 0.690415 0.124063
vt 0.815414 0.124063
vt 0.590829 0.625937
vt 0.496771 0.625937
vt 0.405943 0.625937
vt 0.184585 0.124063
vt 0.309585 0.124063
vt 0.405943 0.124063
vt 0.496771 0.124063
vt 0.590829 0.124063
vt 0.690415 0.240809
vt 0.815415 0.240809
vt 0.590829 0.509191
vt 0.496771 0.509191
vt 0.405943 0.509191
vt 0.184585 0.240809
vt 0.309585 0.240809
vt 0.405943 0.240809
vt 0.496771 0.240809
vt 0.590829 0.240809
vt 0.815414 0.008254
vt 0.590829 0.809585
vt 0.496771 0.809585
vt 0.405943 0.809585
vt 0.184585 0.008254
vt 0.405943 0.440415
vt 0.496771 0.440415
vt 0.590829 0.440415
vt 0.590829 0.315415
vt 0.590829 0.008254
vt 0.590829 0.934585
vt 0.590829 0.741746
vt 0.496771 0.315415
vt 0.496771 0.008254
vt 0.496771 0.934585
vt 0.496771 0.741746
vt 0.309585 0.008254
vt 0.690415 0.008254
vt 0.405943 0.934585
vt 0.405943 0.741746
vt 0.405943 0.315415
vt 0.405943 0.008254
vn -0.207857 -0.967185 0.146114
vn -0.074076 -0.992078 0.101461
vn -0.565664 -0.291226 0.771500
vn -0.811128 -0.149233 0.565509
vn -0.234930 0.957877 0.165165
vn -0.084370 0.989721 0.115477
vn -0.025162 0.999467 0.020787
vn -0.151145 0.986573 0.061872
vn -0.609262 -0.003759 -0.792960
vn 0.074204 0.006299 -0.997223
vn 0.060600 -0.309779 -0.948875
vn -0.595198 -0.258252 -0.760950
vn -0.114782 -0.992874 0.032054
vn -0.014828 -0.999885 0.003350
vn -0.022606 -0.999570 0.018670
vn -0.132993 -0.989621 0.054442
vn 0.081030 -0.995094 0.056758
vn 0.092108 -0.995636 -0.014996
vn 0.881009 -0.391913 -0.265006
vn 0.794757 -0.322596 0.514095
vn -0.890424 -0.250957 0.379692
vn -0.901658 -0.325597 0.284605
vn 0.084614 0.017017 -0.996269
vn 0.009533 0.020702 -0.999740
vn 0.009959 -0.343157 -0.939225
vn 0.075710 -0.345862 -0.935226
vn -0.028474 -0.994933 0.096423
vn -0.003611 -0.999878 0.015179
vn -0.001460 -0.999899 0.014167
vn -0.009929 -0.996063 0.088092
vn -0.299957 -0.006111 0.953933
vn -0.275154 -0.375057 0.885225
vn -0.109990 -0.416919 0.902264
vn -0.121991 -0.003147 0.992526
vn 0.000573 1.000000 -0.000055
vn -0.004016 0.999849 0.016899
vn -0.001623 0.999874 0.015776
vn -0.000004 1.000000 -0.000137
vn -0.029398 0.013947 -0.999470
vn 0.044795 0.003654 -0.998990
vn 0.050811 -0.316205 -0.947329
vn -0.022909 -0.343232 -0.938971
vn -0.002067 -0.996259 0.086393
vn -0.000761 -0.999897 0.014309
vn 0.012283 -0.999859 0.011441
vn 0.019463 -0.995783 0.089656
vn -0.021317 -0.002193 0.999770
vn -0.018819 -0.433332 0.901038
vn 0.146601 -0.403745 0.903049
vn 0.156249 -0.000773 0.987717
vn -0.000565 1.000000 -0.000327
vn -0.000853 0.999873 0.015933
vn 0.013675 0.999825 0.012738
vn 0.012973 0.999915 -0.001467
vn -0.002869 0.991799 -0.127772
vn -0.000766 0.999816 -0.019181
vn 0.013667 0.999759 -0.017175
vn 0.014838 0.990497 -0.136736
vn 0.009841 0.992063 -0.125357
vn 0.001816 0.999817 -0.019050
vn 0.000238 0.999826 -0.018658
vn 0.001380 0.992088 -0.125541
vn -0.130662 0.990755 0.036507
vn -0.016508 0.999857 0.003722
vn -0.013233 0.999748 -0.018137
vn -0.132806 0.991142 0.000906
vn -0.073819 -0.991885 -0.103510
vn -0.116199 -0.993226 0.000384
vn -0.943793 -0.316914 0.093915
vn 0.000702 -0.992558 -0.121773
vn -0.011885 -0.999797 -0.016285
vn -0.000501 -1.000000 -0.000300
vn -0.000006 -1.000000 -0.000125
vn 0.000212 -0.999860 -0.016762
vn -0.000684 -0.999852 -0.017218
vn 0.081004 -0.996684 -0.007695
vn 0.011658 -0.999931 -0.001319
vn 0.012280 -0.999806 -0.015415
vn 0.101322 -0.994850 0.002632
vn 0.993471 0.017774 -0.112693
vn 0.885208 -0.454690 -0.098303
vn 0.917380 -0.371630 0.142498
vn 0.984888 0.012876 0.172715
vn -0.002367 0.995121 0.098638
vn -0.018939 0.420140 0.907262
vn 0.147318 0.392142 0.908032
vn 0.022012 0.994485 0.102541
vn -0.032528 0.993404 0.109957
vn -0.276045 0.363047 0.889942
vn -0.110575 0.404047 0.908031
vn -0.011345 0.994867 0.100558
vn -0.819082 0.023904 0.573178
vn -0.598558 0.016086 0.800918
vn -0.566376 0.280904 0.774798
vn -0.811740 0.144576 0.565841
vn -0.953895 0.006712 0.300067
vn -0.920530 0.016819 0.390311
vn -0.892868 0.241815 0.379885
vn -0.905433 0.314184 0.285448
vn -0.609274 0.003839 -0.792950
vn -0.993685 0.004718 0.112106
vn -0.946848 0.307693 0.093828
vn -0.596615 0.252013 -0.761932
vn -0.084473 0.989366 -0.118400
vn 0.001111 0.990283 -0.139065
vn 0.060719 0.300195 -0.951944
vn 0.010006 0.331551 -0.943384
vn 0.076085 0.334060 -0.939476
vn 0.051070 0.306553 -0.950483
vn -0.023006 0.331673 -0.943114
vn 0.092239 0.995698 -0.008768
vn 0.892933 0.439124 -0.099204
vn 0.921853 0.360273 0.142792
vn 0.115558 0.993295 0.003360
vn 0.837688 0.000803 0.546148
vn 0.952005 -0.007836 -0.305981
vn 0.885814 0.380257 -0.265965
vn 0.797086 0.314551 0.515473
vn -0.021323 0.002240 0.999770
vn -0.020020 -0.000003 0.999800
vn 0.161139 -0.000003 0.986932
vn 0.156256 0.000846 0.987716
vn -0.299968 0.006131 0.953930
vn -0.303607 0.000000 0.952798
vn -0.123567 -0.000001 0.992336
vn -0.121982 0.003187 0.992527
vn -0.819051 -0.024065 0.573215
vn -0.598491 -0.016157 0.800966
vn -0.600588 0.000004 0.799558
vn -0.820472 -0.000010 0.571687
vn -0.953905 -0.006725 0.300035
vn -0.920553 -0.016922 0.390252
vn -0.922001 -0.000004 0.387187
vn -0.954325 -0.000004 0.298770
vn -0.993686 -0.004687 0.112101
vn -0.994252 -0.000005 0.107070
vn -0.610857 -0.000001 -0.791741
vn 0.074161 -0.006204 -0.997227
vn 0.072431 -0.000001 -0.997374
vn 0.084572 -0.016843 -0.996275
vn 0.009532 -0.020488 -0.999745
vn 0.009690 0.000006 -0.999953
vn 0.089210 -0.000004 -0.996013
vn -0.029368 -0.013788 -0.999474
vn 0.044824 -0.003567 -0.998989
vn 0.048006 -0.000000 -0.998847
vn -0.032277 -0.000003 -0.999479
vn 0.993475 -0.017610 -0.112686
vn 0.993924 -0.000004 -0.110069
vn 0.984473 -0.000003 0.175535
vn 0.984906 -0.012730 0.172623
vn 0.837642 -0.000679 0.546219
vn 0.951981 0.007954 -0.306055
vn 0.952154 -0.000008 -0.305619
vn 0.837850 -0.000002 0.545901
vn 0.732701 0.000000 -0.680551
vn 0.730454 -0.000310 -0.682961
vn 0.730468 0.000421 -0.682947
vn 0.105263 0.994290 -0.017514
vn 0.092916 0.993562 0.064812
vn 0.709070 0.259110 -0.655806
vn 0.096878 0.990483 -0.097767
vn 0.707441 -0.265494 -0.655012
vn 0.084635 -0.992741 -0.085451
vn 0.013267 -0.992725 -0.119667
vn -0.002496 -0.993725 -0.111820
vn 0.001206 -0.993955 -0.109783
vn 0.001625 -0.999852 -0.017114
vn 0.008610 -0.993923 -0.109745
vn 0.000508 -1.000000 -0.000043
s 1
usemtl initialShadingGroup
f 1/1/1 128/160/2 170/203/3 124/156/4
f 3/3/5 127/159/6 169/202/7 122/154/8
f 40/55/9 52/69/10 168/201/11 55/73/12
f 21/32/13 90/111/14 167/200/15 93/115/16
f 2/2/17 87/108/18 166/199/19 123/155/20
f 21/31/13 93/114/16 165/198/21 57/75/22
f 41/56/23 50/67/24 164/197/25 53/70/26
f 11/18/27 91/112/28 163/196/29 113/139/30
f 37/51/31 110/135/32 162/195/33 60/78/34
f 19/28/35 109/134/36 161/194/37 96/119/38
f 42/57/39 48/64/40 160/193/41 51/68/42
f 15/23/43 89/110/44 159/192/45 105/130/46
f 36/50/47 102/126/48 158/191/49 62/80/50
f 18/27/51 101/125/52 157/190/53 98/121/54
f 13/20/55 99/122/56 156/189/57 108/133/58
f 9/15/59 97/120/60 155/188/61 116/142/62
f 20/30/63 94/116/64 154/187/65 95/118/66
f 7/13/67 118/145/68 153/186/69 55/72/12
f 7/7/67 125/157/70 152/185/71 118/146/68
f 23/34/72 88/109/73 151/184/74 104/128/75
f 24/35/76 86/106/77 150/183/78 117/143/79
f 44/60/80 85/105/81 149/182/82 46/62/83
f 16/24/84 83/103/85 148/181/86 103/127/87
f 12/19/88 81/101/89 147/180/90 111/136/91
f 28/40/92 78/98/93 146/179/94 79/99/95
f 29/41/96 76/96/97 145/178/98 92/113/99
f 30/42/100 74/93/101 144/177/102 120/149/103
f 5/5/104 126/158/105 143/176/106 120/150/103
f 9/15/59 116/142/62 142/175/107 114/140/108
f 13/20/55 108/133/58 141/174/109 106/131/110
f 17/26/111 67/85/112 140/173/113 100/124/114
f 25/37/115 65/83/116 139/172/117 84/104/118
f 26/38/119 63/81/120 138/171/121 82/102/122
f 27/39/123 61/79/124 137/170/125 80/100/126
f 38/52/127 58/76/128 136/169/129 59/77/130
f 39/53/131 56/74/132 135/168/133 77/97/134
f 40/54/9 54/71/135 134/167/136 75/94/137
f 30/43/100 72/91/138 133/166/139 75/95/137
f 31/44/140 70/89/141 132/165/142 73/92/143
f 32/45/144 68/86/145 131/164/146 71/90/147
f 34/48/148 47/63/149 130/163/150 66/84/151
f 35/49/152 45/61/153 129/162/154 64/82/155
f 65/83/116 129/162/154 47/63/149 34/48/148
f 47/63/149 129/162/154 45/61/153 44/60/80
f 64/82/155 129/162/154 65/83/116 25/37/115
f 69/88/156 130/163/150 46/62/83 43/59/157
f 46/62/83 130/163/150 47/63/149 44/60/80
f 66/84/151 130/163/150 69/88/156 33/47/158
f 48/64/40 131/164/146 69/87/156 43/58/157
f 69/87/156 131/164/146 68/86/145 33/46/158
f 71/90/147 131/164/146 48/64/40 42/57/39
f 50/67/24 132/165/142 71/90/147 42/57/39
f 71/90/147 132/165/142 70/89/141 32/45/144
f 73/92/143 132/165/142 50/67/24 41/56/23
f 52/69/10 133/166/139 73/92/143 41/56/23
f 73/92/143 133/166/139 72/91/138 31/44/140
f 75/95/137 133/166/139 52/69/10 40/55/9
f 74/93/101 134/167/136 77/97/134 29/41/96
f 77/97/134 134/167/136 54/71/135 39/53/131
f 75/94/137 134/167/136 74/93/101 30/42/100
f 76/96/97 135/168/133 59/77/130 28/40/92
f 59/77/130 135/168/133 56/74/132 38/52/127
f 77/97/134 135/168/133 76/96/97 29/41/96
f 78/98/93 136/169/129 61/79/124 27/39/123
f 61/79/124 136/169/129 58/76/128 37/51/31
f 59/77/130 136/169/129 78/98/93 28/40/92
f 63/81/120 137/170/125 60/78/34 36/50/47
f 60/78/34 137/170/125 61/79/124 37/51/31
f 80/100/126 137/170/125 63/81/120 26/38/119
f 64/82/155 138/171/121 62/80/50 35/49/152
f 62/80/50 138/171/121 63/81/120 36/50/47
f 82/102/122 138/171/121 64/82/155 25/37/115
f 121/152/159 139/172/117 67/85/112 17/26/111
f 67/85/112 139/172/117 65/83/116 34/48/148
f 84/104/118 139/172/117 121/152/159 4/4/160
f 119/148/161 140/173/113 66/84/151 33/47/158
f 66/84/151 140/173/113 67/85/112 34/48/148
f 100/124/114 140/173/113 119/148/161 6/12/162
f 68/86/145 141/174/109 119/147/161 33/46/158
f 119/147/161 141/174/109 108/133/58 6/6/162
f 106/131/110 141/174/109 68/86/145 32/45/144
f 70/89/141 142/175/107 106/131/110 32/45/144
f 106/131/110 142/175/107 116/142/62 13/20/55
f 114/140/108 142/175/107 70/89/141 31/44/140
f 72/91/138 143/176/106 114/140/108 31/44/140
f 114/140/108 143/176/106 126/158/105 9/15/59
f 120/150/103 143/176/106 72/91/138 30/43/100
f 95/117/66 144/177/102 92/113/99 20/29/63
f 92/113/99 144/177/102 74/93/101 29/41/96
f 120/149/103 144/177/102 95/117/66 5/14/104
f 122/153/8 145/178/98 79/99/95 3/3/5
f 79/99/95 145/178/98 76/96/97 28/40/92
f 92/113/99 145/178/98 122/153/8 20/29/63
f 127/159/6 146/179/94 81/101/89 12/19/88
f 81/101/89 146/179/94 78/98/93 27/39/123
f 79/99/95 146/179/94 127/159/6 3/3/5
f 83/103/85 147/180/90 80/100/126 26/38/119
f 80/100/126 147/180/90 81/101/89 27/39/123
f 111/136/91 147/180/90 83/103/85 16/24/84
f 84/104/118 148/181/86 82/102/122 25/37/115
f 82/102/122 148/181/86 83/103/85 26/38/119
f 103/127/87 148/181/86 84/104/118 4/4/160
f 49/66/163 149/182/82 117/144/79 8/11/164
f 117/144/79 149/182/82 85/105/81 24/36/76
f 46/62/83 149/182/82 49/66/163 43/59/157
f 107/132/165 150/183/78 104/128/75 14/21/166
f 104/128/75 150/183/78 86/106/77 23/34/72
f 117/143/79 150/183/78 107/132/165 8/8/164
f 115/141/167 151/184/74 112/137/168 10/16/169
f 112/137/168 151/184/74 88/109/73 22/33/170
f 104/128/75 151/184/74 115/141/167 14/21/166
f 90/111/14 152/185/71 112/137/168 22/33/170
f 112/137/168 152/185/71 125/157/70 10/16/169
f 118/146/68 152/185/71 90/111/14 21/32/13
f 54/71/135 153/186/69 57/75/22 39/53/131
f 57/75/22 153/186/69 118/145/68 21/31/13
f 55/72/12 153/186/69 54/71/135 40/54/9
f 126/158/105 154/187/65 97/120/60 9/15/59
f 97/120/60 154/187/65 94/116/64 19/28/35
f 95/118/66 154/187/65 126/158/105 5/5/104
f 99/122/56 155/188/61 96/119/38 18/27/51
f 96/119/38 155/188/61 97/120/60 19/28/35
f 116/142/62 155/188/61 99/122/56 13/20/55
f 100/123/114 156/189/57 98/121/54 17/25/111
f 98/121/54 156/189/57 99/122/56 18/27/51
f 108/133/58 156/189/57 100/123/114 6/6/162
f 121/151/159 157/190/53 103/127/87 4/4/160
f 103/127/87 157/190/53 101/125/52 16/24/84
f 98/121/54 157/190/53 121/151/159 17/25/111
f 123/155/20 158/191/49 105/129/46 2/2/17
f 105/129/46 158/191/49 102/126/48 15/22/43
f 62/80/50 158/191/49 123/155/20 35/49/152
f 87/107/18 159/192/45 86/106/77 24/35/76
f 86/106/77 159/192/45 89/110/44 23/34/72
f 105/130/46 159/192/45 87/107/18 2/10/17
f 107/132/165 160/193/41 49/65/163 8/8/164
f 49/65/163 160/193/41 48/64/40 43/58/157
f 51/68/42 160/193/41 107/132/165 14/21/166
f 101/125/52 161/194/37 111/136/91 16/24/84
f 111/136/91 161/194/37 109/134/36 12/19/88
f 96/119/38 161/194/37 101/125/52 18/27/51
f 102/126/48 162/195/33 113/138/30 15/22/43
f 113/138/30 162/195/33 110/135/32 11/17/27
f 60/78/34 162/195/33 102/126/48 36/50/47
f 89/110/44 163/196/29 88/109/73 23/34/72
f 88/109/73 163/196/29 91/112/28 22/33/170
f 113/139/30 163/196/29 89/110/44 15/23/43
f 115/141/167 164/197/25 51/68/42 14/21/166
f 51/68/42 164/197/25 50/67/24 42/57/39
f 53/70/26 164/197/25 115/141/167 10/16/169
f 56/74/132 165/198/21 124/156/4 38/52/127
f 124/156/4 165/198/21 93/114/16 1/1/1
f 57/75/22 165/198/21 56/74/132 39/53/131
f 45/61/153 166/199/19 85/105/81 44/60/80
f 85/105/81 166/199/19 87/108/18 24/36/76
f 123/155/20 166/199/19 45/61/153 35/49/152
f 128/161/2 167/200/15 91/112/28 11/18/27
f 91/112/28 167/200/15 90/111/14 22/33/170
f 93/115/16 167/200/15 128/161/2 1/9/1
f 125/157/70 168/201/11 53/70/26 10/16/169
f 53/70/26 168/201/11 52/69/10 41/56/23
f 55/73/12 168/201/11 125/157/70 7/7/67
f 94/116/64 169/202/7 109/134/36 19/28/35
f 109/134/36 169/202/7 127/159/6 12/19/88
f 122/154/8 169/202/7 94/116/64 20/30/63
f 58/76/128 170/203/3 110/135/32 37/51/31
f 110/135/32 170/203/3 128/160/2 11/17/27
f 124/156/4 170/203/3 58/76/128 38/52/127
