# This file uses centimeters as units for non-parametric coordinates.

mtllib Ö_27.mtl
v 224.269562 356.451874 356.748932
v 228.256561 356.451874 356.662537
v 224.269562 362.207245 356.748932
v 228.256561 362.207245 356.662537
v 224.020859 362.207245 346.534943
v 229.595505 362.207245 346.273682
v 224.020859 356.451874 346.534943
v 229.595505 356.451874 346.273682
v 230.826294 362.263245 349.856354
v 222.467743 362.263245 350.338959
v 222.467743 356.400848 350.338959
v 230.826294 356.400848 349.856354
v 229.500702 362.263245 353.670715
v 223.063965 362.263245 354.076111
v 223.063965 356.400848 354.076111
v 229.500702 356.400848 353.670715
v 228.759537 361.229736 356.981293
v 223.774689 361.229736 357.046112
v 222.127319 361.229736 354.134064
v 221.265610 361.229736 350.408295
v 223.339279 361.229736 346.143005
v 230.305115 361.229736 345.830536
v 232.028412 361.229736 349.787018
v 230.437347 361.229736 353.612762
v 228.759537 357.390045 356.981293
v 223.774689 357.390045 357.046112
v 222.127319 357.390045 354.134064
v 221.265610 357.390045 350.408295
v 223.339279 357.390045 346.143005
v 230.305115 357.390045 345.830536
v 232.028412 357.390045 349.787018
v 230.437347 357.390045 353.612762
v 229.853180 357.385193 355.531281
v 231.374374 357.387665 351.750793
v 230.359329 359.304352 353.606262
v 231.836700 357.387512 347.553040
v 232.084473 359.305847 349.802002
v 226.842819 357.374268 345.372314
v 230.350342 356.592621 345.802032
v 221.689041 357.387115 348.070465
v 223.295410 356.592499 346.117462
v 221.529480 357.389038 352.377289
v 221.182083 356.591980 350.415466
v 222.640091 357.387054 355.817841
v 222.058151 356.586731 354.140045
v 226.273010 357.380280 357.461823
v 223.736801 359.306122 357.070221
v 228.794556 359.306122 357.007111
v 229.853241 361.234650 355.531311
v 231.374405 361.232147 351.750793
v 230.505051 362.057373 353.607727
v 231.836746 361.232269 347.553040
v 232.110825 362.049316 349.784241
v 226.842834 361.245605 345.371979
v 230.333664 359.306213 345.811035
v 221.688995 361.232697 348.070465
v 223.309158 359.306183 346.123260
v 221.529480 361.230774 352.377289
v 221.209488 359.305756 350.434448
v 222.640045 361.232758 355.817871
v 222.156448 359.299866 354.222687
v 226.273010 361.239563 357.462006
v 223.741211 362.050323 357.066345
v 228.793182 362.050201 357.003052
v 230.505356 356.584320 353.607697
v 226.246094 356.285736 353.884186
v 229.041885 356.397522 355.581451
v 222.058517 362.054962 354.139984
v 223.454086 356.397797 355.801178
v 226.249130 362.385773 353.883301
v 222.637573 362.263245 352.306519
v 230.266129 362.263275 351.821106
v 232.111282 356.592499 349.784271
v 226.678101 356.266327 350.214386
v 230.266113 356.400848 351.821106
v 221.182541 362.049835 350.415375
v 222.637589 356.400848 352.306519
v 226.676498 362.407471 350.208374
v 222.830627 362.266968 347.987610
v 230.694931 362.266815 347.587677
v 230.694931 356.397614 347.587677
v 222.830612 356.397461 347.987610
v 230.349976 362.049530 345.802277
v 223.295776 362.049652 346.117676
v 229.041870 362.266907 355.581451
v 223.454102 362.266602 355.801178
v 228.793579 356.591919 357.003326
v 223.740799 356.591766 357.066620
v 226.827133 356.382904 345.839905
v 226.827103 362.282837 345.840698
v 226.268448 362.281830 357.115906
v 226.268463 356.383759 357.116882
v 229.906982 359.305511 355.580750
v 231.451599 359.304352 351.778564
v 231.881165 359.306061 347.536072
v 226.845306 359.305756 345.298065
v 221.640839 359.306030 348.054352
v 221.464127 359.304901 352.418793
v 222.586029 359.305664 355.857422
v 226.274017 359.305634 357.539551
v 229.906799 362.054291 355.543823
v 231.453339 362.053253 351.747437
v 231.901978 362.050629 347.534943
v 226.845062 362.072693 345.305420
v 221.622940 362.051361 348.058197
v 221.451920 362.052307 352.384033
v 222.588577 362.052612 355.832611
v 226.273621 362.068420 357.508301
v 231.453766 356.588531 351.747437
v 226.441193 356.268188 352.128052
v 221.451477 356.589478 352.384125
v 226.442001 362.403870 352.123077
v 231.902435 356.591339 347.534790
v 226.774628 356.294739 347.651184
v 221.622482 356.590607 348.058075
v 226.774414 362.379150 347.653778
v 222.588135 356.589294 355.832825
v 229.907242 356.587616 355.544006
v 226.241531 356.305634 355.767120
v 226.845093 356.569458 345.304718
v 226.241669 362.367249 355.765167
v 226.273621 356.573608 357.508942
vt 0.375000 0.000000
vt 0.625000 0.000000
vt 0.375000 0.250000
vt 0.625000 0.250000
vt 0.375000 0.500000
vt 0.625000 0.500000
vt 0.375000 0.750000
vt 0.625000 0.750000
vt 0.375000 1.000000
vt 0.625000 1.000000
vt 0.875000 0.000000
vt 0.875000 0.250000
vt 0.125000 0.000000
vt 0.125000 0.250000
vt 0.625000 0.367777
vt 0.742777 0.250000
vt 0.257223 0.250000
vt 0.375000 0.367777
vt 0.257223 0.000000
vt 0.375000 0.882223
vt 0.625000 0.882223
vt 0.742777 0.000000
vt 0.625000 0.305522
vt 0.680522 0.250000
vt 0.319478 0.250000
vt 0.375000 0.305522
vt 0.319478 0.000000
vt 0.375000 0.944478
vt 0.625000 0.944478
vt 0.680522 0.000000
vt 0.625000 0.223327
vt 0.375000 0.223327
vt 0.319478 0.223327
vt 0.257223 0.223327
vt 0.125000 0.223327
vt 0.375000 0.526673
vt 0.625000 0.526673
vt 0.875000 0.223327
vt 0.742777 0.223327
vt 0.680522 0.223327
vt 0.625000 0.024291
vt 0.375000 0.024291
vt 0.319478 0.024291
vt 0.257223 0.024291
vt 0.125000 0.024291
vt 0.375000 0.725709
vt 0.625000 0.725709
vt 0.875000 0.024291
vt 0.742777 0.024291
vt 0.680522 0.024291
vt 0.652761 0.024291
vt 0.711650 0.024291
vt 0.680522 0.123809
vt 0.808888 0.024291
vt 0.742777 0.123809
vt 0.500000 0.725709
vt 0.625000 0.737855
vt 0.875000 0.012145
vt 0.191112 0.024291
vt 0.125000 0.012145
vt 0.375000 0.737855
vt 0.288350 0.024291
vt 0.257223 0.012145
vt 0.347239 0.024291
vt 0.319478 0.012145
vt 0.500000 0.024291
vt 0.375000 0.123809
vt 0.625000 0.123809
vt 0.652761 0.223327
vt 0.711650 0.223327
vt 0.680522 0.236664
vt 0.808888 0.223327
vt 0.742777 0.236664
vt 0.500000 0.526673
vt 0.625000 0.626191
vt 0.875000 0.123809
vt 0.191112 0.223327
vt 0.125000 0.123809
vt 0.375000 0.626191
vt 0.288350 0.223327
vt 0.257223 0.123809
vt 0.347239 0.223327
vt 0.319478 0.123809
vt 0.500000 0.223327
vt 0.375000 0.236664
vt 0.625000 0.236664
vt 0.680522 0.012145
vt 0.500000 0.944478
vt 0.625000 0.972239
vt 0.652761 0.000000
vt 0.319478 0.236664
vt 0.347239 0.000000
vt 0.375000 0.972239
vt 0.500000 0.305522
vt 0.288350 0.250000
vt 0.375000 0.336650
vt 0.625000 0.336650
vt 0.711650 0.250000
vt 0.742777 0.012145
vt 0.500000 0.882223
vt 0.625000 0.913350
vt 0.711650 0.000000
vt 0.257223 0.236664
vt 0.288350 0.000000
vt 0.375000 0.913350
vt 0.500000 0.367777
vt 0.191112 0.250000
vt 0.375000 0.433888
vt 0.625000 0.433888
vt 0.808888 0.250000
vt 0.625000 0.816112
vt 0.808888 0.000000
vt 0.191112 0.000000
vt 0.375000 0.816112
vt 0.625000 0.513336
vt 0.875000 0.236664
vt 0.125000 0.236664
vt 0.375000 0.513336
vt 0.625000 0.277761
vt 0.652761 0.250000
vt 0.347239 0.250000
vt 0.375000 0.277761
vt 0.625000 0.012145
vt 0.375000 0.012145
vt 0.500000 0.750000
vt 0.500000 0.500000
vt 0.500000 0.250000
vt 0.500000 0.000000
vt 0.500000 1.000000
vt 0.652761 0.123809
vt 0.711650 0.123809
vt 0.808888 0.123809
vt 0.500000 0.626191
vt 0.191112 0.123809
vt 0.288350 0.123809
vt 0.347239 0.123809
vt 0.500000 0.123809
vt 0.652761 0.236664
vt 0.711650 0.236664
vt 0.808888 0.236664
vt 0.500000 0.513336
vt 0.191112 0.236664
vt 0.288350 0.236664
vt 0.347239 0.236664
vt 0.500000 0.236664
vt 0.711650 0.012145
vt 0.500000 0.913350
vt 0.288350 0.012145
vt 0.500000 0.336650
vt 0.808888 0.012145
vt 0.500000 0.816112
vt 0.191112 0.012145
vt 0.500000 0.433888
vt 0.347239 0.012145
vt 0.652761 0.012145
vt 0.500000 0.972239
vt 0.500000 0.737855
vt 0.500000 0.277761
vt 0.500000 0.012145
vn -0.068289 -0.985350 0.156274
vn 0.004084 -0.986554 0.163383
vn 0.012825 -0.305751 0.952025
vn -0.404955 -0.341375 0.848219
vn -0.075431 0.981955 0.173420
vn 0.004496 0.983426 0.181253
vn 0.001267 0.999512 0.031223
vn -0.085017 0.995034 0.051769
vn -0.462477 0.002436 -0.886628
vn -0.045094 0.000855 -0.998982
vn -0.039037 -0.398924 -0.916153
vn -0.431306 -0.449381 -0.782325
vn -0.069094 -0.997453 0.017691
vn -0.000512 -0.999954 0.009550
vn 0.001207 -0.999576 0.029106
vn -0.076945 -0.995914 0.047280
vn 0.076652 -0.986230 0.146543
vn 0.078476 -0.995954 0.043777
vn 0.736469 -0.576259 0.354316
vn 0.459724 -0.352000 0.815322
vn -0.719095 -0.574872 0.390417
vn -0.688198 -0.691840 0.218496
vn -0.069794 0.997548 -0.005242
vn 0.000438 0.999999 -0.001621
vn -0.000867 0.999664 -0.025920
vn -0.069778 0.996794 -0.039164
vn -0.058918 -0.991607 -0.115083
vn -0.063131 -0.997368 -0.035653
vn -0.673911 -0.670701 -0.309846
vn -0.005603 -0.992284 -0.123861
vn -0.000804 -0.999711 -0.024032
vn 0.994339 0.006088 0.106080
vn 0.685415 -0.724795 0.069848
vn 0.681680 -0.675261 -0.281665
vn 0.915740 0.008468 -0.401683
vn -0.075891 0.996932 0.019140
vn -0.000519 0.999952 0.009738
vn -0.000128 0.999972 0.007442
vn -0.072413 0.997309 0.011452
vn -0.063391 -0.997976 -0.005111
vn -0.066023 -0.997766 0.010196
vn -0.673159 -0.724048 0.150371
vn -0.681036 -0.731832 -0.024717
vn 0.000422 -0.999998 -0.001897
vn -0.000120 -0.999976 0.006864
vn 0.926793 0.022799 0.374880
vn 0.682666 -0.676850 0.275392
vn 0.659723 -0.702518 0.266896
vn 0.918423 0.012032 0.395418
vn -0.410330 0.005917 0.911918
vn 0.012738 0.006430 0.999898
vn 0.012914 0.295901 0.955132
vn -0.407375 0.330741 0.851267
vn -0.950748 -0.011316 0.309757
vn -0.871226 -0.004027 0.490866
vn -0.729179 0.559028 0.394697
vn -0.702668 0.675778 0.222670
vn -0.999178 -0.007429 -0.039865
vn -0.972746 -0.008466 0.231718
vn -0.688267 0.709056 0.153387
vn -0.696440 0.717170 -0.025256
vn -0.462512 -0.002221 -0.886610
vn -0.898310 -0.006853 -0.439308
vn -0.686511 0.655540 -0.314593
vn -0.435136 0.436112 -0.787694
vn -0.065161 0.989649 -0.127866
vn -0.006233 0.990450 -0.137729
vn -0.039221 0.386382 -0.921504
vn 0.070412 0.997504 0.005373
vn 0.700554 0.710035 0.071239
vn 0.694420 0.660340 -0.285887
vn 0.069574 0.996943 -0.035555
vn 0.075996 0.996775 0.025776
vn 0.696491 0.660352 0.280776
vn 0.673746 0.687023 0.272149
vn 0.073181 0.996983 0.025874
vn 0.472004 0.006001 0.881576
vn 0.899705 -0.010642 0.436368
vn 0.746808 0.560204 0.358399
vn 0.462404 0.341088 0.818439
vn -0.410274 -0.005789 0.911944
vn 0.012744 -0.006314 0.999899
vn 0.012743 -0.000027 0.999919
vn -0.415411 -0.000014 0.909634
vn -0.950744 0.011618 0.309759
vn -0.871093 0.004252 0.491100
vn -0.872037 0.000010 0.489440
vn -0.951507 -0.000033 0.307626
vn -0.999173 0.007693 -0.039929
vn -0.972769 0.008734 0.231611
vn -0.972027 0.000012 0.234870
vn -0.999301 -0.000001 -0.037379
vn -0.898301 0.007104 -0.439323
vn -0.899432 -0.000007 -0.437061
vn -0.466878 -0.000027 -0.884322
vn -0.045083 -0.000655 -0.998983
vn -0.044272 -0.000044 -0.999020
vn 0.994332 -0.005842 0.106156
vn 0.994402 -0.000003 0.105660
vn 0.916371 -0.000008 -0.400330
vn 0.915749 -0.008189 -0.401668
vn 0.926789 -0.022408 0.374914
vn 0.927451 -0.000007 0.373945
vn 0.917205 -0.000015 0.398415
vn 0.918447 -0.011752 0.395371
vn 0.471943 -0.005870 0.881610
vn 0.899720 0.010925 0.436331
vn 0.901264 -0.000013 0.433272
vn 0.476020 -0.000013 0.879435
vn 0.404254 -0.000027 -0.914647
vn 0.398988 0.003428 -0.916950
vn 0.399028 -0.003194 -0.916933
vn 0.086747 0.995075 0.047957
vn 0.084747 0.983032 0.162685
vn 0.379539 0.445058 -0.811094
vn 0.054100 0.990295 -0.128020
vn 0.066697 -0.997501 0.023321
vn 0.063892 -0.997947 0.004489
vn 0.069197 -0.997320 0.023752
vn 0.375907 -0.458326 -0.805377
vn 0.062902 -0.997494 -0.032398
vn 0.048957 -0.992141 -0.115148
s 1
usemtl initialShadingGroup
f 1/1/1 92/128/2 122/159/3 88/124/4
f 3/3/5 91/127/6 121/158/7 86/122/8
f 29/46/9 38/56/10 120/157/11 41/61/12
f 15/28/13 66/88/14 119/156/15 69/93/16
f 2/2/17 67/90/18 118/155/19 87/123/20
f 15/27/13 69/92/16 117/154/21 45/65/22
f 10/18/23 78/106/24 116/153/25 79/108/26
f 7/13/27 82/113/28 115/152/29 41/60/12
f 7/7/27 89/125/30 114/151/31 82/114/28
f 31/49/32 73/99/33 113/150/34 36/54/35
f 14/26/36 70/94/37 112/149/38 71/96/39
f 11/19/40 77/104/41 111/148/42 43/63/43
f 11/20/40 74/100/44 110/147/45 77/105/41
f 32/50/46 65/87/47 109/146/48 34/52/49
f 18/32/50 62/84/51 108/145/52 63/85/53
f 19/33/54 60/82/55 107/144/56 68/91/57
f 20/34/58 58/80/59 106/143/60 76/103/61
f 21/35/62 56/77/63 105/142/64 84/117/65
f 5/5/66 90/126/67 104/141/68 84/118/65
f 9/16/69 53/73/70 103/140/71 80/110/72
f 13/24/73 51/71/74 102/139/75 72/98/76
f 17/31/77 49/69/78 101/138/79 64/86/80
f 26/42/81 46/66/82 100/137/83 47/67/84
f 27/43/85 44/64/86 99/136/87 61/83/88
f 28/44/89 42/62/90 98/135/91 59/81/92
f 29/45/9 40/59/93 97/134/94 57/78/95
f 21/36/62 54/74/96 96/133/97 57/79/95
f 23/39/98 37/55/99 95/132/100 52/72/101
f 24/40/102 35/53/103 94/131/104 50/70/105
f 25/41/106 33/51/107 93/130/108 48/68/109
f 49/69/78 93/130/108 35/53/103 24/40/102
f 35/53/103 93/130/108 33/51/107 32/50/46
f 48/68/109 93/130/108 49/69/78 17/31/77
f 37/55/99 94/131/104 34/52/49 31/49/32
f 34/52/49 94/131/104 35/53/103 32/50/46
f 50/70/105 94/131/104 37/55/99 23/39/98
f 55/76/110 95/132/100 36/54/35 30/48/111
f 36/54/35 95/132/100 37/55/99 31/49/32
f 52/72/101 95/132/100 55/76/110 22/38/112
f 38/56/10 96/133/97 55/75/110 30/47/111
f 55/75/110 96/133/97 54/74/96 22/37/112
f 57/79/95 96/133/97 38/56/10 29/46/9
f 56/77/63 97/134/94 59/81/92 20/34/58
f 59/81/92 97/134/94 40/59/93 28/44/89
f 57/78/95 97/134/94 56/77/63 21/35/62
f 58/80/59 98/135/91 61/83/88 19/33/54
f 61/83/88 98/135/91 42/62/90 27/43/85
f 59/81/92 98/135/91 58/80/59 20/34/58
f 60/82/55 99/136/87 47/67/84 18/32/50
f 47/67/84 99/136/87 44/64/86 26/42/81
f 61/83/88 99/136/87 60/82/55 19/33/54
f 62/84/51 100/137/83 48/68/109 17/31/77
f 48/68/109 100/137/83 46/66/82 25/41/106
f 47/67/84 100/137/83 62/84/51 18/32/50
f 85/120/113 101/138/79 51/71/74 13/24/73
f 51/71/74 101/138/79 49/69/78 24/40/102
f 64/86/80 101/138/79 85/120/113 4/4/114
f 53/73/70 102/139/75 50/70/105 23/39/98
f 50/70/105 102/139/75 51/71/74 24/40/102
f 72/98/76 102/139/75 53/73/70 9/16/69
f 83/116/115 103/140/71 52/72/101 22/38/112
f 52/72/101 103/140/71 53/73/70 23/39/98
f 80/110/72 103/140/71 83/116/115 6/12/116
f 54/74/96 104/141/68 83/115/115 22/37/112
f 83/115/115 104/141/68 90/126/67 6/6/116
f 84/118/65 104/141/68 54/74/96 21/36/62
f 79/107/26 105/142/64 76/103/61 10/17/23
f 76/103/61 105/142/64 56/77/63 20/34/58
f 84/117/65 105/142/64 79/107/26 5/14/66
f 71/95/39 106/143/60 68/91/57 14/25/36
f 68/91/57 106/143/60 58/80/59 19/33/54
f 76/103/61 106/143/60 71/95/39 10/17/23
f 86/121/8 107/144/56 63/85/53 3/3/5
f 63/85/53 107/144/56 60/82/55 18/32/50
f 68/91/57 107/144/56 86/121/8 14/25/36
f 91/127/6 108/145/52 64/86/80 4/4/114
f 64/86/80 108/145/52 62/84/51 17/31/77
f 63/85/53 108/145/52 91/127/6 3/3/5
f 73/99/33 109/146/48 75/102/117 12/22/118
f 75/102/117 109/146/48 65/87/47 16/30/119
f 34/52/49 109/146/48 73/99/33 31/49/32
f 66/88/14 110/147/45 75/101/117 16/29/119
f 75/101/117 110/147/45 74/100/44 12/21/118
f 77/105/41 110/147/45 66/88/14 15/28/13
f 42/62/90 111/148/42 45/65/22 27/43/85
f 45/65/22 111/148/42 77/104/41 15/27/13
f 43/63/43 111/148/42 42/62/90 28/44/89
f 78/106/24 112/149/38 72/97/76 9/15/69
f 72/97/76 112/149/38 70/94/37 13/23/73
f 71/96/39 112/149/38 78/106/24 10/18/23
f 39/58/120 113/150/34 81/112/121 8/11/122
f 81/112/121 113/150/34 73/99/33 12/22/118
f 36/54/35 113/150/34 39/58/120 30/48/111
f 74/100/44 114/151/31 81/111/121 12/21/118
f 81/111/121 114/151/31 89/125/30 8/8/122
f 82/114/28 114/151/31 74/100/44 11/20/40
f 40/59/93 115/152/29 43/63/43 28/44/89
f 43/63/43 115/152/29 82/113/28 11/19/40
f 41/60/12 115/152/29 40/59/93 29/45/9
f 90/126/67 116/153/25 80/109/72 6/6/116
f 80/109/72 116/153/25 78/106/24 9/15/69
f 79/108/26 116/153/25 90/126/67 5/5/66
f 44/64/86 117/154/21 88/124/4 26/42/81
f 88/124/4 117/154/21 69/92/16 1/1/1
f 45/65/22 117/154/21 44/64/86 27/43/85
f 33/51/107 118/155/19 65/87/47 32/50/46
f 65/87/47 118/155/19 67/90/18 16/30/119
f 87/123/20 118/155/19 33/51/107 25/41/106
f 92/129/2 119/156/15 67/89/18 2/10/17
f 67/89/18 119/156/15 66/88/14 16/29/119
f 69/93/16 119/156/15 92/129/2 1/9/1
f 89/125/30 120/157/11 39/57/120 8/8/122
f 39/57/120 120/157/11 38/56/10 30/47/111
f 41/61/12 120/157/11 89/125/30 7/7/27
f 70/94/37 121/158/7 85/119/113 13/23/73
f 85/119/113 121/158/7 91/127/6 4/4/114
f 86/122/8 121/158/7 70/94/37 14/26/36
f 46/66/82 122/159/3 87/123/20 25/41/106
f 87/123/20 122/159/3 92/128/2 2/2/17
f 88/124/4 122/159/3 46/66/82 26/42/81
