# This file uses centimeters as units for non-parametric coordinates.

mtllib Ö_34.mtl
v 236.627182 358.580872 287.820984
v 254.331238 358.580872 286.417328
v 236.627182 371.345795 287.820984
v 254.331238 371.345795 286.417328
v 236.052383 371.345795 279.750153
v 253.520050 371.345795 278.275116
v 236.052383 358.580872 279.750153
v 253.520050 358.580872 278.275116
v 242.276886 371.406311 288.589294
v 241.861359 371.406311 279.256500
v 241.861359 358.538544 279.256500
v 242.276886 358.538544 288.589294
v 248.448303 371.406311 288.294006
v 247.232834 371.406311 278.719666
v 247.232834 358.538544 278.719666
v 248.448303 358.538544 288.294006
v 255.620682 371.406311 282.178253
v 248.140915 371.484131 282.925018
v 241.831161 371.484131 283.427246
v 234.967133 371.406311 283.785919
v 234.967133 358.538544 283.785919
v 241.831161 358.484131 283.427246
v 248.140915 358.484131 282.925018
v 255.620682 358.538544 282.178253
v 236.151001 369.540009 288.216370
v 234.067566 369.540009 283.826965
v 235.464615 369.540009 279.309326
v 241.874802 369.540009 278.747559
v 247.104462 369.540009 278.210022
v 254.037109 369.540009 277.735321
v 256.607758 369.540009 282.073273
v 254.875458 369.540009 286.688293
v 248.470657 369.540009 288.995789
v 242.346085 369.540009 289.263092
v 234.067566 360.243713 283.826965
v 236.151001 360.243713 288.216370
v 242.346085 360.243713 289.263092
v 248.470657 360.243713 288.995789
v 254.875458 360.243713 286.688293
v 256.607758 360.243713 282.073273
v 254.037109 360.243713 277.735321
v 247.104462 360.243713 278.210022
v 241.874802 360.243713 278.747559
v 235.464615 360.243713 279.309326
v 234.181824 360.237366 281.259399
v 238.447418 360.231384 278.737122
v 235.420227 358.641876 279.275543
v 244.460175 360.241333 278.564606
v 241.886475 358.630707 278.713348
v 250.704575 360.231842 277.620056
v 247.082932 358.630829 278.176270
v 255.918121 360.236420 279.517029
v 254.075836 358.641968 277.694214
v 256.340790 360.242279 284.557281
v 256.774719 364.874451 282.080933
v 251.943741 360.241028 288.141144
v 254.968918 364.877167 286.731964
v 245.388779 360.243073 289.311920
v 248.418503 364.874786 289.079559
v 238.996170 360.240112 289.048981
v 242.444992 364.868744 289.339294
v 234.617004 360.240845 286.302002
v 236.079453 364.877411 288.275299
v 233.995926 358.633301 283.830841
v 238.996155 369.543671 289.049011
v 245.388779 369.540649 289.311920
v 242.354843 371.234100 289.314545
v 251.943756 369.542725 288.141174
v 248.468201 371.230042 289.050629
v 256.340820 369.541473 284.557281
v 254.919632 371.226257 286.709991
v 255.918213 369.547394 279.516968
v 256.686493 371.229218 282.066620
v 250.704605 369.552032 277.619965
v 254.082184 364.878021 277.683868
v 244.460175 369.542450 278.564606
v 246.937180 364.873810 278.246552
v 238.447357 369.552490 278.737061
v 242.030472 364.873413 278.780151
v 234.181763 369.546417 281.259338
v 235.410919 364.878021 279.265961
v 234.616974 369.542938 286.302002
v 233.885849 364.872162 283.847839
v 236.112991 371.225555 288.247894
v 256.687714 358.634216 282.066559
v 252.271881 358.479431 282.515320
v 255.415146 358.535461 284.750427
v 244.936615 358.484131 283.208099
v 248.354477 358.479523 285.914886
v 238.016510 358.479675 283.632294
v 242.057404 358.479523 286.308014
v 233.997009 371.230072 283.830780
v 235.472244 358.535126 286.335663
v 238.016602 371.490509 283.632294
v 235.068024 371.411194 281.199615
v 244.936615 371.484131 283.208099
v 241.807922 371.488464 280.967407
v 252.271774 371.490845 282.515320
v 247.674347 371.488464 280.432373
v 254.951706 371.411621 279.591766
v 248.468033 358.633484 289.051300
v 247.674377 358.481110 280.432404
v 252.048004 358.535461 287.490967
v 247.083603 371.232483 278.176514
v 250.949966 358.535339 278.150726
v 248.354492 371.490692 285.914856
v 250.949951 371.410889 278.150787
v 252.047989 371.410736 287.490967
v 242.355042 358.629272 289.315125
v 241.807892 358.481110 280.967438
v 245.338379 358.538513 288.601990
v 241.885956 371.232574 278.713623
v 244.513245 358.537872 279.058014
v 242.057373 371.490723 286.307953
v 244.513260 371.407288 279.058075
v 245.338379 371.406372 288.601990
v 254.951813 358.534821 279.591736
v 235.067947 358.535126 281.199585
v 254.075012 371.222809 277.695129
v 235.421188 371.222900 279.276306
v 255.415070 371.410736 284.750427
v 235.472366 371.411194 286.335632
v 254.920990 358.638184 286.710632
v 236.111908 358.638947 288.248779
v 238.339478 358.535461 279.278229
v 238.339493 371.410736 279.278229
v 238.829102 371.410461 288.430725
v 238.829102 358.535675 288.430756
v 234.116180 358.630585 281.238342
v 238.421295 358.627045 278.695679
v 244.454758 358.624634 278.528809
v 250.721878 358.627167 277.573547
v 255.986557 358.628845 279.484497
v 256.407532 358.632721 284.567108
v 251.970413 358.630829 288.182831
v 245.391495 358.630798 289.366302
v 238.975754 358.630859 289.094086
v 234.556229 358.630676 286.324371
v 238.976257 371.233032 289.093231
v 245.391495 371.232635 289.365662
v 251.969849 371.233124 288.182068
v 256.406097 371.231140 284.566803
v 255.985352 371.235199 279.485168
v 250.721558 371.236816 277.574402
v 244.454849 371.238617 278.529114
v 238.421799 371.236908 278.696411
v 234.117401 371.233429 281.238831
v 234.557495 371.233185 286.323792
v 256.015991 364.876648 279.453400
v 251.643784 358.476288 279.966217
v 244.697189 358.480713 280.739685
v 238.106750 358.476746 281.106110
v 234.084671 364.876648 281.208038
v 238.106842 371.494659 281.106171
v 244.697189 371.489044 280.739655
v 251.643692 371.495300 279.966339
v 252.007217 364.875793 288.211304
v 252.283829 358.475281 285.320190
v 250.737289 364.875549 277.533844
v 252.283630 371.496735 285.320099
v 245.378845 364.872284 289.404358
v 245.167755 358.479340 286.206299
v 244.425232 364.863403 278.666412
v 245.167755 371.490967 286.206238
v 234.504211 364.875854 286.366211
v 256.467560 364.876099 284.594635
v 238.375519 358.475616 286.350067
v 238.387344 364.875214 278.658417
v 238.375687 371.496307 286.349945
v 238.930511 364.875458 289.129425
vt 0.375000 0.000000
vt 0.625000 0.000000
vt 0.375000 0.250000
vt 0.625000 0.250000
vt 0.375000 0.500000
vt 0.625000 0.500000
vt 0.375000 0.750000
vt 0.625000 0.750000
vt 0.375000 1.000000
vt 0.625000 1.000000
vt 0.875000 0.000000
vt 0.875000 0.250000
vt 0.125000 0.000000
vt 0.125000 0.250000
vt 0.460938 0.250000
vt 0.460938 0.500000
vt 0.460938 0.750000
vt 0.460938 0.000000
vt 0.460938 1.000000
vt 0.534360 0.250000
vt 0.534360 0.500000
vt 0.534360 0.750000
vt 0.534360 0.000000
vt 0.534360 1.000000
vt 0.625000 0.371699
vt 0.746699 0.250000
vt 0.534360 0.371699
vt 0.460938 0.371699
vt 0.253301 0.250000
vt 0.375000 0.371699
vt 0.253301 0.000000
vt 0.375000 0.878301
vt 0.460938 0.878301
vt 0.534360 0.878301
vt 0.625000 0.878301
vt 0.746699 0.000000
vt 0.375000 0.236699
vt 0.253301 0.236699
vt 0.125000 0.236699
vt 0.375000 0.513301
vt 0.460938 0.513301
vt 0.534360 0.513301
vt 0.625000 0.513301
vt 0.875000 0.236699
vt 0.746699 0.236699
vt 0.625000 0.236699
vt 0.534360 0.236699
vt 0.460938 0.236699
vt 0.253301 0.009302
vt 0.375000 0.009302
vt 0.460938 0.009302
vt 0.534360 0.009302
vt 0.625000 0.009302
vt 0.746699 0.009302
vt 0.625000 0.740698
vt 0.875000 0.009302
vt 0.534360 0.740698
vt 0.460938 0.740698
vt 0.125000 0.009302
vt 0.375000 0.740698
vt 0.189150 0.009302
vt 0.417969 0.740698
vt 0.125000 0.004651
vt 0.375000 0.745349
vt 0.497649 0.740698
vt 0.460938 0.745349
vt 0.579680 0.740698
vt 0.534360 0.745349
vt 0.810850 0.009302
vt 0.625000 0.745349
vt 0.875000 0.004651
vt 0.685850 0.009302
vt 0.746699 0.123001
vt 0.579680 0.009302
vt 0.625000 0.123001
vt 0.497649 0.009302
vt 0.534360 0.123001
vt 0.417969 0.009302
vt 0.460938 0.123001
vt 0.314150 0.009302
vt 0.375000 0.123001
vt 0.253301 0.004651
vt 0.417969 0.236699
vt 0.497649 0.236699
vt 0.460938 0.243350
vt 0.579680 0.236699
vt 0.534360 0.243350
vt 0.685850 0.236699
vt 0.625000 0.243350
vt 0.810850 0.236699
vt 0.746699 0.243350
vt 0.579680 0.513301
vt 0.625000 0.626999
vt 0.875000 0.123001
vt 0.497649 0.513301
vt 0.534360 0.626999
vt 0.417969 0.513301
vt 0.460938 0.626999
vt 0.189150 0.236699
vt 0.125000 0.123001
vt 0.375000 0.626999
vt 0.314150 0.236699
vt 0.253301 0.123001
vt 0.375000 0.243350
vt 0.746699 0.004651
vt 0.579680 0.878301
vt 0.625000 0.939150
vt 0.685850 0.000000
vt 0.497649 0.878301
vt 0.534360 0.939150
vt 0.417969 0.878301
vt 0.460938 0.939150
vt 0.253301 0.243350
vt 0.314150 0.000000
vt 0.375000 0.939150
vt 0.417969 0.371699
vt 0.189150 0.250000
vt 0.375000 0.435850
vt 0.497649 0.371699
vt 0.460938 0.435850
vt 0.579680 0.371699
vt 0.534360 0.435850
vt 0.625000 0.435850
vt 0.810850 0.250000
vt 0.534360 0.004651
vt 0.534360 0.814150
vt 0.579680 0.000000
vt 0.579680 1.000000
vt 0.534360 0.506650
vt 0.579680 0.750000
vt 0.534360 0.310850
vt 0.579680 0.500000
vt 0.579680 0.250000
vt 0.460938 0.004651
vt 0.460938 0.814150
vt 0.497649 0.000000
vt 0.497649 1.000000
vt 0.460938 0.506650
vt 0.497649 0.750000
vt 0.460938 0.310850
vt 0.497649 0.500000
vt 0.497649 0.250000
vt 0.625000 0.814150
vt 0.810850 0.000000
vt 0.189150 0.000000
vt 0.375000 0.814150
vt 0.625000 0.506650
vt 0.875000 0.243350
vt 0.125000 0.243350
vt 0.375000 0.506650
vt 0.625000 0.310850
vt 0.685850 0.250000
vt 0.314150 0.250000
vt 0.375000 0.310850
vt 0.625000 0.004651
vt 0.375000 0.004651
vt 0.417969 0.750000
vt 0.417969 0.500000
vt 0.417969 0.250000
vt 0.417969 0.000000
vt 0.417969 1.000000
vt 0.189150 0.004651
vt 0.417969 0.745349
vt 0.497649 0.745349
vt 0.579680 0.745349
vt 0.810850 0.004651
vt 0.685850 0.004651
vt 0.579680 0.004651
vt 0.497649 0.004651
vt 0.417969 0.004651
vt 0.314150 0.004651
vt 0.417969 0.243350
vt 0.497649 0.243350
vt 0.579680 0.243350
vt 0.685850 0.243350
vt 0.810850 0.243350
vt 0.579680 0.506650
vt 0.497649 0.506650
vt 0.417969 0.506650
vt 0.189150 0.243350
vt 0.314150 0.243350
vt 0.810850 0.123001
vt 0.579680 0.814150
vt 0.497649 0.814150
vt 0.417969 0.814150
vt 0.189150 0.123001
vt 0.417969 0.435850
vt 0.497649 0.435850
vt 0.579680 0.435850
vt 0.579680 0.123001
vt 0.579680 0.939150
vt 0.579680 0.626999
vt 0.579680 0.310850
vt 0.497649 0.123001
vt 0.497649 0.939150
vt 0.497649 0.626999
vt 0.497649 0.310850
vt 0.314150 0.123001
vt 0.685850 0.123001
vt 0.417969 0.939150
vt 0.417969 0.626999
vt 0.417969 0.310850
vt 0.417969 0.123001
vn -0.529611 -0.007839 0.848204
vn -0.165461 -0.005559 0.986201
vn -0.166488 0.000006 0.986044
vn -0.531383 0.000009 0.847132
vn -0.064380 0.991971 0.108853
vn -0.018406 0.995399 0.094034
vn -0.011956 0.999767 0.018004
vn -0.069216 0.996930 0.036606
vn -0.507841 0.004860 -0.861437
vn -0.081126 0.000941 -0.996703
vn -0.080922 -0.000007 -0.996720
vn -0.510202 0.000005 -0.860055
vn -0.040814 -0.999162 0.003106
vn -0.008507 -0.999964 0.000379
vn -0.008363 -0.999886 0.012600
vn -0.040190 -0.998960 0.021554
vn 0.629805 -0.008048 0.776712
vn 0.934273 -0.011009 0.356388
vn 0.934340 0.000003 0.356383
vn 0.631889 0.000005 0.775059
vn -0.996377 -0.012822 0.084076
vn -0.900452 -0.011568 0.434801
vn -0.899637 0.000010 0.436639
vn -0.996500 -0.000035 0.083594
vn -0.001594 0.996207 0.087003
vn 0.004169 0.996439 0.084210
vn 0.000795 0.999891 0.014771
vn 0.000666 0.999886 0.015106
vn -0.016693 0.008094 -0.999828
vn -0.014433 -0.000019 -0.999896
vn -0.104810 0.000035 -0.994492
vn -0.104606 0.015643 -0.994391
vn -0.000769 -0.998695 0.051064
vn 0.000464 -0.999944 0.010563
vn 0.000554 -0.999947 0.010324
vn 0.002522 -0.998778 0.049357
vn -0.042064 0.004730 0.999104
vn -0.041555 -0.000018 0.999136
vn 0.043411 0.000002 0.999057
vn 0.043533 0.004714 0.999041
vn 0.013832 0.996150 0.086568
vn 0.033215 0.995506 0.088687
vn 0.013947 0.999773 0.016114
vn 0.001442 0.999888 0.014880
vn -0.160103 0.006016 -0.987082
vn -0.162937 -0.000015 -0.986636
vn -0.072924 -0.000007 -0.997338
vn -0.072870 -0.001646 -0.997340
vn 0.007984 -0.998667 0.050995
vn 0.001006 -0.999945 0.010404
vn 0.009758 -0.999889 0.011272
vn 0.019618 -0.998450 0.052094
vn 0.176987 0.004513 0.984203
vn 0.175903 0.000002 0.984408
vn 0.338657 -0.000003 0.940910
vn 0.338133 0.005449 0.941083
vn -0.000943 1.000000 -0.000253
vn 0.011299 0.999935 -0.001377
vn 0.008538 0.999757 -0.020342
vn -0.003060 0.999848 -0.017153
vn 0.000874 1.000000 -0.000439
vn -0.000016 1.000000 -0.000430
vn -0.001657 0.999850 -0.017243
vn 0.000065 0.999845 -0.017622
vn -0.069675 0.997555 0.005412
vn -0.012168 0.999926 0.000552
vn -0.012404 0.999749 -0.018635
vn -0.071388 0.997038 -0.028627
vn -0.507849 -0.004761 -0.861433
vn -0.952967 -0.008417 -0.302957
vn -0.951935 0.000010 -0.306301
vn -0.035465 -0.997324 -0.063936
vn -0.010293 -0.997910 -0.063790
vn -0.008675 -0.999877 -0.013036
vn -0.041183 -0.999003 -0.017228
vn -0.000663 -1.000000 -0.000176
vn -0.000013 -1.000000 -0.000299
vn -0.001159 -0.999927 -0.012056
vn -0.002144 -0.999926 -0.011987
vn 0.038045 -0.999271 -0.003329
vn 0.007901 -0.999968 -0.000960
vn 0.005971 -0.999881 -0.014229
vn 0.034040 -0.999125 -0.024313
vn 0.996290 0.010995 -0.085353
vn 0.996377 -0.000019 -0.085043
vn 0.856487 -0.000002 -0.516168
vn 0.857298 0.007243 -0.514769
vn -0.996374 0.012782 0.084114
vn -0.900516 0.011576 0.434668
vn -0.849916 0.347269 0.396293
vn -0.912510 0.401502 0.078247
vn -0.953023 0.008469 -0.302781
vn -0.894058 0.356554 -0.271162
vn -0.501682 0.231240 -0.833573
vn -0.059802 0.992133 -0.109978
vn -0.016266 0.993851 -0.109520
vn -0.084042 0.253678 -0.963631
vn -0.159976 -0.005832 -0.987104
vn -0.104585 -0.015283 -0.994398
vn -0.098566 0.269497 -0.957944
vn -0.143673 0.275235 -0.950581
vn 0.340359 0.004594 -0.940284
vn -0.072835 0.001733 -0.997343
vn -0.066849 0.261352 -0.962926
vn 0.338668 0.240106 -0.909754
vn 0.065012 0.997868 -0.005718
vn 0.903414 0.422056 -0.075575
vn 0.800801 0.376079 -0.466136
vn 0.059248 0.997386 -0.041363
vn 0.629848 0.008109 0.776676
vn 0.934304 0.011043 0.356305
vn 0.874497 0.365350 0.319020
vn 0.619297 0.228252 0.751247
vn 0.165162 0.330101 0.929384
vn 0.321827 0.291290 0.900876
vn -0.038355 0.333058 0.942126
vn 0.041121 0.341512 0.938978
vn -0.529639 0.007905 0.848186
vn -0.165415 0.005599 0.986208
vn -0.157625 0.289608 0.944077
vn -0.521324 0.227881 0.822370
vn -0.839703 -0.372860 0.394809
vn -0.898815 -0.431462 0.077285
vn -0.038090 -0.997236 0.063793
vn -0.011109 -0.998420 0.055083
vn -0.157783 -0.313044 0.936540
vn -0.517995 -0.244044 0.819831
vn 0.177019 -0.004482 0.984197
vn 0.043579 -0.004703 0.999039
vn 0.040562 -0.368936 0.928569
vn 0.163865 -0.356775 0.919706
vn 0.338112 -0.005400 0.941091
vn 0.320843 -0.314927 0.893242
vn 0.615465 -0.244700 0.749216
vn 0.046311 -0.997169 0.059236
vn 0.039938 -0.999067 0.016425
vn 0.863106 -0.391710 0.318766
vn 0.340355 -0.004487 -0.940286
vn 0.857238 -0.007156 -0.514871
vn 0.789535 -0.402586 -0.463205
vn 0.335149 -0.256779 -0.906499
vn -0.008959 -0.998059 -0.061625
vn -0.142794 -0.299208 -0.943443
vn -0.065773 -0.282651 -0.956965
vn -0.000066 -0.998042 -0.062550
vn -0.001906 -0.998012 -0.063001
vn -0.027410 -0.297324 -0.954383
vn -0.097914 -0.293348 -0.950978
vn -0.006205 -0.998013 -0.062697
vn -0.081075 -0.000849 -0.996708
vn -0.084006 -0.274376 -0.957946
vn -0.497746 -0.247053 -0.831393
vn -0.883583 -0.382135 -0.270655
vn 0.022594 -0.997408 -0.068310
vn 0.888748 -0.452357 -0.074158
vn 0.996286 -0.010979 -0.085402
vn -0.038287 -0.360430 0.932000
vn -0.042079 -0.004713 0.999103
vn 0.078034 0.991819 0.101024
vn 0.068425 0.997260 0.028107
vn 0.037688 0.992435 -0.116845
vn -0.001257 0.994257 -0.107008
vn -0.015334 0.994340 -0.105131
vn -0.010649 0.994196 -0.107053
vn -0.027769 0.273105 -0.961583
vn -0.003231 0.994217 -0.107346
vn -0.016877 -0.007879 -0.999827
vn 0.342723 0.000002 -0.939436
vn 0.000048 -0.999924 -0.012318
vn 0.000612 -1.000000 -0.000309
s 1
usemtl initialShadingGroup
f 36/50/1 60/78/2 170/203/3 63/81/4
f 3/3/5 127/159/6 169/202/7 122/154/8
f 27/40/9 78/97/10 168/201/11 81/101/12
f 21/32/13 90/111/14 167/200/15 93/115/16
f 39/53/17 54/72/18 166/199/19 57/75/20
f 35/49/21 62/80/22 165/198/23 83/103/24
f 9/15/25 116/142/26 164/197/27 114/140/28
f 43/58/29 79/98/30 163/196/31 48/65/32
f 12/19/33 91/112/34 162/195/35 111/137/36
f 34/48/37 61/79/38 161/194/39 66/84/40
f 13/20/41 108/133/42 160/193/43 106/131/44
f 42/57/45 77/96/46 159/192/47 50/67/48
f 16/24/49 89/110/50 158/191/51 103/128/52
f 33/47/53 59/77/54 157/190/55 68/86/56
f 18/27/57 98/121/58 156/189/59 99/122/60
f 19/28/61 96/119/62 155/188/63 97/120/64
f 20/30/65 94/116/66 154/187/67 95/118/68
f 44/59/69 45/61/70 153/186/71 81/100/12
f 7/7/72 125/157/73 152/185/74 118/146/75
f 23/34/76 88/109/77 151/184/78 102/126/79
f 24/35/80 86/106/81 150/183/82 117/143/83
f 31/45/84 55/73/85 149/182/86 72/90/87
f 26/38/88 82/102/89 148/181/90 92/113/91
f 27/39/9 80/99/92 147/180/93 120/149/94
f 5/5/95 126/158/96 146/179/97 120/150/94
f 29/42/98 76/95/99 145/178/100 104/129/101
f 30/43/102 74/92/103 144/177/104 119/147/105
f 17/26/106 73/91/107 143/176/108 100/124/109
f 32/46/110 70/88/111 142/175/112 71/89/113
f 13/20/41 69/87/114 141/174/115 108/133/42
f 9/15/25 67/85/116 140/173/117 116/142/26
f 25/37/118 65/83/119 139/172/120 84/104/121
f 21/31/13 93/114/16 138/171/122 64/82/123
f 1/1/124 128/160/125 137/170/126 124/156/127
f 38/52/128 58/76/129 136/169/130 101/125/131
f 39/53/17 56/74/132 135/168/133 123/155/134
f 2/2/135 87/108/136 134/167/137 123/155/134
f 41/56/138 52/69/139 133/166/140 53/71/141
f 15/22/142 51/68/143 132/165/144 105/130/145
f 11/17/146 49/66/147 131/164/148 113/139/149
f 44/60/69 46/62/150 130/163/151 47/64/152
f 7/13/72 118/145/75 129/162/153 47/63/152
f 45/61/70 129/162/153 64/82/123 35/49/21
f 64/82/123 129/162/153 118/145/75 21/31/13
f 47/63/152 129/162/153 45/61/70 44/59/69
f 125/157/73 130/163/151 49/66/147 11/17/146
f 49/66/147 130/163/151 46/62/150 43/58/29
f 47/64/152 130/163/151 125/157/73 7/7/72
f 51/68/143 131/164/148 48/65/32 42/57/45
f 48/65/32 131/164/148 49/66/147 43/58/29
f 113/139/149 131/164/148 51/68/143 15/22/142
f 53/70/141 132/165/144 50/67/48 41/55/138
f 50/67/48 132/165/144 51/68/143 42/57/45
f 105/130/145 132/165/144 53/70/141 8/8/154
f 117/144/83 133/166/140 85/105/155 24/36/80
f 85/105/155 133/166/140 52/69/139 40/54/156
f 53/71/141 133/166/140 117/144/83 8/11/154
f 54/72/18 134/167/137 85/105/155 40/54/156
f 85/105/155 134/167/137 87/108/136 24/36/80
f 123/155/134 134/167/137 54/72/18 39/53/17
f 103/127/52 135/168/133 101/125/131 16/23/49
f 101/125/131 135/168/133 56/74/132 38/52/128
f 123/155/134 135/168/133 103/127/52 2/2/135
f 111/136/36 136/169/130 109/134/157 12/18/33
f 109/134/157 136/169/130 58/76/129 37/51/158
f 101/125/131 136/169/130 111/136/36 16/23/49
f 60/78/2 137/170/126 109/134/157 37/51/158
f 109/134/157 137/170/126 128/160/125 12/18/33
f 124/156/127 137/170/126 60/78/2 36/50/1
f 62/80/22 138/171/122 124/156/127 36/50/1
f 124/156/127 138/171/122 93/114/16 1/1/124
f 64/82/123 138/171/122 62/80/22 35/49/21
f 127/159/6 139/172/120 67/85/116 9/15/25
f 67/85/116 139/172/120 65/83/119 34/48/37
f 84/104/121 139/172/120 127/159/6 3/3/5
f 69/87/114 140/173/117 66/84/40 33/47/53
f 66/84/40 140/173/117 67/85/116 34/48/37
f 116/142/26 140/173/117 69/87/114 13/20/41
f 71/89/113 141/174/115 68/86/56 32/46/110
f 68/86/56 141/174/115 69/87/114 33/47/53
f 108/133/42 141/174/115 71/89/113 4/4/159
f 121/152/160 142/175/112 73/91/107 17/26/106
f 73/91/107 142/175/112 70/88/111 31/45/84
f 71/89/113 142/175/112 121/152/160 4/4/159
f 119/148/105 143/176/108 72/90/87 30/44/102
f 72/90/87 143/176/108 73/91/107 31/45/84
f 100/124/109 143/176/108 119/148/105 6/12/161
f 107/132/162 144/177/104 104/129/101 14/21/163
f 104/129/101 144/177/104 74/92/103 29/42/98
f 119/147/105 144/177/104 107/132/162 6/6/161
f 115/141/164 145/178/100 112/138/165 10/16/166
f 112/138/165 145/178/100 76/95/99 28/41/167
f 104/129/101 145/178/100 115/141/164 14/21/163
f 78/97/10 146/179/97 112/138/165 28/41/167
f 112/138/165 146/179/97 126/158/96 10/16/166
f 120/150/94 146/179/97 78/97/10 27/40/9
f 95/117/68 147/180/93 92/113/91 20/29/65
f 92/113/91 147/180/93 80/99/92 26/38/88
f 120/149/94 147/180/93 95/117/68 5/14/95
f 122/153/8 148/181/90 84/104/121 3/3/5
f 84/104/121 148/181/90 82/102/89 25/37/118
f 92/113/91 148/181/90 122/153/8 20/29/65
f 75/94/168 149/182/86 52/69/139 41/56/138
f 52/69/139 149/182/86 55/73/85 40/54/156
f 72/90/87 149/182/86 75/94/168 30/44/102
f 105/130/145 150/183/82 102/126/79 15/22/142
f 102/126/79 150/183/82 86/106/81 23/34/76
f 117/143/83 150/183/82 105/130/145 8/8/154
f 113/139/149 151/184/78 110/135/169 11/17/146
f 110/135/169 151/184/78 88/109/77 22/33/170
f 102/126/79 151/184/78 113/139/149 15/22/142
f 90/111/14 152/185/74 110/135/169 22/33/170
f 110/135/169 152/185/74 125/157/73 11/17/146
f 118/146/75 152/185/74 90/111/14 21/32/13
f 80/99/92 153/186/71 83/103/24 26/38/88
f 83/103/24 153/186/71 45/61/70 35/49/21
f 81/100/12 153/186/71 80/99/92 27/39/9
f 126/158/96 154/187/67 97/120/64 10/16/166
f 97/120/64 154/187/67 94/116/66 19/28/61
f 95/118/68 154/187/67 126/158/96 5/5/95
f 115/141/164 155/188/63 99/122/60 14/21/163
f 99/122/60 155/188/63 96/119/62 18/27/57
f 97/120/64 155/188/63 115/141/164 10/16/166
f 107/132/162 156/189/59 100/123/109 6/6/161
f 100/123/109 156/189/59 98/121/58 17/25/106
f 99/122/60 156/189/59 107/132/162 14/21/163
f 57/75/20 157/190/55 56/74/132 39/53/17
f 56/74/132 157/190/55 59/77/54 38/52/128
f 68/86/56 157/190/55 57/75/20 32/46/110
f 87/107/136 158/191/51 86/106/81 24/35/80
f 86/106/81 158/191/51 89/110/50 23/34/76
f 103/128/52 158/191/51 87/107/136 2/10/135
f 75/93/168 159/192/47 74/92/103 30/43/102
f 74/92/103 159/192/47 77/96/46 29/42/98
f 50/67/48 159/192/47 75/93/168 41/55/138
f 98/121/58 160/193/43 121/151/160 17/25/106
f 121/151/160 160/193/43 108/133/42 4/4/159
f 106/131/44 160/193/43 98/121/58 18/27/57
f 59/77/54 161/194/39 58/76/129 38/52/128
f 58/76/129 161/194/39 61/79/38 37/51/158
f 66/84/40 161/194/39 59/77/54 33/47/53
f 89/110/50 162/195/35 88/109/77 23/34/76
f 88/109/77 162/195/35 91/112/34 22/33/170
f 111/137/36 162/195/35 89/110/50 16/24/49
f 77/96/46 163/196/31 76/95/99 29/42/98
f 76/95/99 163/196/31 79/98/30 28/41/167
f 48/65/32 163/196/31 77/96/46 42/57/45
f 96/119/62 164/197/27 106/131/44 18/27/57
f 106/131/44 164/197/27 116/142/26 13/20/41
f 114/140/28 164/197/27 96/119/62 19/28/61
f 82/102/89 165/198/23 63/81/4 25/37/118
f 63/81/4 165/198/23 62/80/22 36/50/1
f 83/103/24 165/198/23 82/102/89 26/38/88
f 70/88/111 166/199/19 55/73/85 31/45/84
f 55/73/85 166/199/19 54/72/18 40/54/156
f 57/75/20 166/199/19 70/88/111 32/46/110
f 128/161/125 167/200/15 91/112/34 12/19/33
f 91/112/34 167/200/15 90/111/14 22/33/170
f 93/115/16 167/200/15 128/161/125 1/9/124
f 46/62/150 168/201/11 79/98/30 43/58/29
f 79/98/30 168/201/11 78/97/10 28/41/167
f 81/101/12 168/201/11 46/62/150 44/60/69
f 94/116/66 169/202/7 114/140/28 19/28/61
f 114/140/28 169/202/7 127/159/6 9/15/25
f 122/154/8 169/202/7 94/116/66 20/30/65
f 65/83/119 170/203/3 61/79/38 34/48/37
f 61/79/38 170/203/3 60/78/2 37/51/158
f 63/81/4 170/203/3 65/83/119 25/37/118
